<?xml version="1.0" encoding="UTF-8" standalone="no"?>
<!-- Created with Inkscape (http://www.inkscape.org/) -->

<svg
   xmlns:dc="http://purl.org/dc/elements/1.1/"
   xmlns:cc="http://creativecommons.org/ns#"
   xmlns:rdf="http://www.w3.org/1999/02/22-rdf-syntax-ns#"
   xmlns:svg="http://www.w3.org/2000/svg"
   xmlns="http://www.w3.org/2000/svg"
   xmlns:sodipodi="http://sodipodi.sourceforge.net/DTD/sodipodi-0.dtd"
   xmlns:inkscape="http://www.inkscape.org/namespaces/inkscape"
   width="200"
   height="50"
   viewBox="0 0 52.916665 13.229167"
   version="1.1"
   id="svg9562"
   inkscape:version="0.92.5 (2060ec1f9f, 2020-04-08)"
   sodipodi:docname="filter.svg">
  <defs
     id="defs9556" />
  <sodipodi:namedview
     id="base"
     pagecolor="#ffffff"
     bordercolor="#666666"
     borderopacity="1.0"
     inkscape:pageopacity="0.0"
     inkscape:pageshadow="2"
     inkscape:zoom="3.4525"
     inkscape:cx="86.732892"
     inkscape:cy="85.031099"
     inkscape:document-units="mm"
     inkscape:current-layer="layer1"
     showgrid="false"
     units="px"
     inkscape:window-width="1916"
     inkscape:window-height="1043"
     inkscape:window-x="0"
     inkscape:window-y="18"
     inkscape:window-maximized="0" />
  <metadata
     id="metadata9559">
    <rdf:RDF>
      <cc:Work
         rdf:about="">
        <dc:format>image/svg+xml</dc:format>
        <dc:type
           rdf:resource="http://purl.org/dc/dcmitype/StillImage" />
        <dc:title />
      </cc:Work>
    </rdf:RDF>
  </metadata>
  <g
     inkscape:label="Layer 1"
     inkscape:groupmode="layer"
     id="layer1"
     transform="translate(0,-283.77082)">
    <path
       style="fill:#000000;stroke-width:0.01363507"
       d="m 1.1532642,290.30862 c -0.020497,-0.036 -0.045516,-0.0785 -0.055587,-0.0944 -0.017671,-0.028 0.00312,-0.0419 0.5973965,-0.39755 0.3386379,-0.20269 0.6106937,-0.37311 0.6045668,-0.37869 -0.0061,-0.005 -0.053675,-0.0206 -0.1056653,-0.0334 -0.051987,-0.0128 -0.1166733,-0.0292 -0.143746,-0.0365 l -0.049228,-0.0132 0.026752,-0.10656 c 0.014718,-0.0586 0.029206,-0.10908 0.032204,-0.11216 0.010732,-0.011 0.6843464,0.17115 0.690239,0.18666 0.00513,0.0134 -0.1631203,0.68938 -0.1744384,0.70092 -0.00439,0.004 -0.2032314,-0.0493 -0.2117048,-0.0573 -0.00305,-0.003 0.011275,-0.0707 0.031713,-0.15083 0.020445,-0.0801 0.033944,-0.14898 0.029987,-0.15301 -0.00394,-0.004 -0.2774753,0.15438 -0.6078273,0.35202 -0.3303519,0.19765 -0.6066597,0.35935 -0.6140167,0.35935 -0.00736,0 -0.030151,-0.0294 -0.050648,-0.0654 z m 2.0062035,-1.00415 c -0.5235935,-0.3065 -0.9649522,-0.56364 -0.9807975,-0.57143 -0.024803,-0.0122 -0.098875,0.0279 -0.533384,0.28908 -0.2775155,0.16679 -0.5131887,0.3053 -0.5237155,0.30782 -0.011625,0.003 -0.039448,-0.0305 -0.070893,-0.0848 -0.028463,-0.0492 -0.0517491,-0.0932 -0.0517491,-0.0978 0,-0.005 0.2050834,-0.13122 0.4557397,-0.28133 0.2506563,-0.15011 0.4724498,-0.28463 0.4928735,-0.29894 l 0.037135,-0.026 v -1.20122 -1.20123 l 1.0606463,-0.62178 1.060647,-0.62178 0.7589348,0.44508 c 1.3483823,0.79077 1.2348943,0.72735 1.2688882,0.70915 0.052195,-0.0279 0.4887562,-0.29091 0.5003503,-0.3014 0.0061,-0.005 -0.057721,-0.0272 -0.1417855,-0.0482 -0.084061,-0.021 -0.155082,-0.0401 -0.1578257,-0.0424 -0.00669,-0.006 0.039857,-0.20251 0.050864,-0.21509 0.00699,-0.008 0.6853096,0.15882 0.6978125,0.17156 0.00558,0.006 -0.1715594,0.69091 -0.1814429,0.70177 -0.00807,0.009 -0.199033,-0.0341 -0.21247,-0.0478 -0.00312,-0.003 0.012606,-0.0764 0.034889,-0.16283 0.022282,-0.0864 0.040556,-0.15821 0.040601,-0.15958 4.16e-5,-0.002 -0.1211752,0.0699 -0.2693836,0.15834 l -0.2694691,0.16081 -6.061e-4,1.17774 -6.069e-4,1.17774 -0.9815397,0.57768 c -0.5398448,0.31774 -1.0153328,0.59719 -1.0566376,0.62101 l -0.075096,0.0434 z m 0.8083411,-1.84928 c -0.016184,-0.0114 -0.4158383,-0.25023 -0.8881237,-0.53082 l -0.8587024,-0.51016 -0.0035,0.49193 c -0.00193,0.27057 -0.00193,0.71822 0,0.99478 l 0.0035,0.50283 0.2914919,-0.17482 c 0.1603201,-0.0962 0.2928431,-0.18094 0.294495,-0.1884 0.00171,-0.007 -0.061574,-0.0301 -0.1404937,-0.0502 -0.078924,-0.0202 -0.1458493,-0.0391 -0.1487238,-0.042 -0.00617,-0.006 0.042259,-0.20309 0.05256,-0.21359 0.00817,-0.008 0.6713869,0.16074 0.6880688,0.17542 0.00834,0.007 -0.1579044,0.69616 -0.1716829,0.71138 -0.00141,0.001 -0.051533,-0.0109 -0.1113667,-0.0276 l -0.1087876,-0.0304 0.038622,-0.15088 c 0.021241,-0.083 0.037023,-0.15463 0.03506,-0.1592 -0.00193,-0.004 -0.1269748,0.0657 -0.2778145,0.15626 -0.1648324,0.0989 -0.2693501,0.16956 -0.2619611,0.1771 0.00669,0.007 0.3671593,0.21987 0.8008859,0.47328 l 0.7885934,0.46075 0.00372,-1.02249 0.00372,-1.0225 z m 1.1732819,1.53145 0.8540889,-0.50226 v -1.03836 -1.03837 l -0.06414,0.0383 c -0.035275,0.021 -0.4317706,0.2594 -0.8810955,0.52963 l -0.8169557,0.49132 -0.00342,1.02728 -0.00342,1.02728 0.030463,-0.0162 c 0.016756,-0.009 0.4148096,-0.2423 0.8845582,-0.51854 z M 4.996737,286.7358 c 0.6602562,-0.39695 0.8719044,-0.53039 0.859548,-0.54192 -0.00901,-0.008 -0.4052408,-0.2426 -0.880499,-0.52044 -0.7394132,-0.43224 -0.8683121,-0.50319 -0.8932606,-0.4916 -0.026789,0.0124 -1.332482,0.77541 -1.6227786,0.94825 -0.069205,0.0412 -0.1225719,0.0782 -0.1185922,0.0823 0.013737,0.014 1.7568315,1.04825 1.7682203,1.04915 0.00625,4.8e-4 0.4055948,-0.23608 0.8873621,-0.52573 z m -3.4475487,1.15612 c -0.057558,-0.0148 -0.1045289,-0.0338 -0.1043801,-0.0425 1.48e-4,-0.009 0.015217,-0.0745 0.033483,-0.14646 0.018273,-0.072 0.033342,-0.13813 0.033483,-0.14708 1.48e-4,-0.009 -0.1371342,0.0673 -0.3050739,0.16941 -0.1679397,0.10213 -0.3067533,0.18379 -0.30847355,0.1815 -0.001785,-0.002 -0.0280909,-0.0472 -0.058584,-0.0997 -0.0504996,-0.087 -0.0534076,-0.097 -0.0324863,-0.1115 0.0126361,-0.009 0.14902949,-0.0919 0.30310075,-0.18468 0.1540714,-0.0928 0.2774948,-0.17307 0.2742737,-0.17839 -0.0032,-0.005 -0.068513,-0.0243 -0.1450959,-0.0423 -0.076585,-0.018 -0.1435623,-0.0362 -0.1488481,-0.0407 -0.00939,-0.008 0.034152,-0.2026 0.048588,-0.21732 0.00647,-0.007 0.6821599,0.15858 0.6955881,0.17004 0.00588,0.005 -0.1553706,0.65863 -0.171291,0.69464 -0.00869,0.0197 -0.019835,0.0192 -0.1142882,-0.005 z"
       id="path879"
       inkscape:connector-curvature="0" />
    <g
       aria-label="FILTER"
       transform="scale(0.99669133,1.0033197)"
       style="font-style:normal;font-weight:normal;font-size:7.89731836px;line-height:1.25;font-family:sans-serif;letter-spacing:0px;word-spacing:0px;fill:#000000;fill-opacity:1;stroke:none;stroke-width:0.19743295"
       id="text1453">
      <path
         d="m 8.2919751,284.93387 h 1.7774229 v 0.20217 H 8.5657488 v 1.17091 H 9.858803 v 0.20639 H 8.5657488 v 1.34781 H 8.2919751 Z"
         style="font-style:normal;font-variant:normal;font-weight:300;font-stretch:normal;font-size:4.2119031px;font-family:'YS Display';-inkscape-font-specification:'YS Display Light';stroke-width:0.19743295"
         id="path3894" />
      <path
         d="m 10.798052,284.93387 v 2.92728 h -0.273774 v -2.92728 z"
         style="font-style:normal;font-variant:normal;font-weight:300;font-stretch:normal;font-size:4.2119031px;font-family:'YS Display';-inkscape-font-specification:'YS Display Light';stroke-width:0.19743295"
         id="path3896" />
      <path
         d="m 13.20726,287.86115 h -1.790058 v -2.92728 h 0.273773 v 2.72089 h 1.516285 z"
         style="font-style:normal;font-variant:normal;font-weight:300;font-stretch:normal;font-size:4.2119031px;font-family:'YS Display';-inkscape-font-specification:'YS Display Light';stroke-width:0.19743295"
         id="path3898" />
      <path
         d="m 14.256022,285.13604 v 2.72511 h -0.273774 v -2.72511 h -0.960313 v -0.20217 h 2.198613 v 0.20217 z"
         style="font-style:normal;font-variant:normal;font-weight:300;font-stretch:normal;font-size:4.2119031px;font-family:'YS Display';-inkscape-font-specification:'YS Display Light';stroke-width:0.19743295"
         id="path3900" />
      <path
         d="m 15.603823,284.93387 h 1.802694 v 0.20217 h -1.528921 v 1.08667 h 1.314114 v 0.20218 h -1.314114 v 1.22987 h 1.549981 v 0.20639 h -1.823754 z"
         style="font-style:normal;font-variant:normal;font-weight:300;font-stretch:normal;font-size:4.2119031px;font-family:'YS Display';-inkscape-font-specification:'YS Display Light';stroke-width:0.19743295"
         id="path3902" />
      <path
         d="m 17.928785,284.93387 h 0.939255 q 0.480157,0 0.745507,0.19796 0.269561,0.19375 0.269561,0.61073 0,0.18953 -0.05054,0.33274 -0.05054,0.1432 -0.143205,0.2485 -0.09266,0.10109 -0.223231,0.16848 -0.126357,0.0632 -0.282198,0.0927 l 0.804474,1.27621 h -0.307469 l -0.787626,-1.24252 h -0.690752 v 1.24252 h -0.273774 z m 0.273774,0.20217 v 1.28042 h 0.614938 q 0.168476,0 0.311681,-0.0337 0.147416,-0.0379 0.248502,-0.11794 0.105298,-0.08 0.164264,-0.21059 0.05897,-0.13057 0.05897,-0.31589 0,-0.3159 -0.193748,-0.4591 -0.193747,-0.14321 -0.539123,-0.14321 z"
         style="font-style:normal;font-variant:normal;font-weight:300;font-stretch:normal;font-size:4.2119031px;font-family:'YS Display';-inkscape-font-specification:'YS Display Light';stroke-width:0.19743295"
         id="path3904" />
    </g>
  </g>
</svg>
