<?xml version="1.0" encoding="UTF-8" standalone="no"?>
<!-- Created with Inkscape (http://www.inkscape.org/) -->

<svg
   xmlns:dc="http://purl.org/dc/elements/1.1/"
   xmlns:cc="http://creativecommons.org/ns#"
   xmlns:rdf="http://www.w3.org/1999/02/22-rdf-syntax-ns#"
   xmlns:svg="http://www.w3.org/2000/svg"
   xmlns="http://www.w3.org/2000/svg"
   xmlns:sodipodi="http://sodipodi.sourceforge.net/DTD/sodipodi-0.dtd"
   xmlns:inkscape="http://www.inkscape.org/namespaces/inkscape"
   width="200"
   height="50"
   viewBox="0 0 31.75 7.9374999"
   version="1.1"
   id="svg1571"
   sodipodi:docname="remap.svg"
   inkscape:version="0.92.5 (2060ec1f9f, 2020-04-08)">
  <defs
     id="defs1565" />
  <sodipodi:namedview
     id="base"
     pagecolor="#ffffff"
     bordercolor="#666666"
     borderopacity="1.0"
     inkscape:pageopacity="0.53333333"
     inkscape:pageshadow="2"
     inkscape:zoom="5.6"
     inkscape:cx="24.570179"
     inkscape:cy="16.819424"
     inkscape:document-units="mm"
     inkscape:current-layer="layer1"
     showgrid="false"
     inkscape:window-width="1916"
     inkscape:window-height="1043"
     inkscape:window-x="0"
     inkscape:window-y="18"
     inkscape:window-maximized="0"
     inkscape:pagecheckerboard="false"
     scale-x="0.6"
     units="px" />
  <metadata
     id="metadata1568">
    <rdf:RDF>
      <cc:Work
         rdf:about="">
        <dc:format>image/svg+xml</dc:format>
        <dc:type
           rdf:resource="http://purl.org/dc/dcmitype/StillImage" />
        <dc:title />
      </cc:Work>
    </rdf:RDF>
  </metadata>
  <g
     inkscape:label="Layer 1"
     inkscape:groupmode="layer"
     id="layer1"
     transform="translate(0,-269.0625)">
    <path
       style="fill:none;fill-opacity:1;stroke-width:0.26458332"
       d="m 0,247.10715 h 199.19344 v 58.96428 H 0 Z"
       id="rect2484"
       inkscape:connector-curvature="0" />
    <path
       style="fill:#000000;stroke-width:0.00626843"
       d="m 1.0079884,272.68075 c -0.0291995,-0.0105 -0.0502654,-0.0294 -0.0633223,-0.0568 -0.008602,-0.018 -0.009762,-0.0877 -0.009762,-0.59104 0,-0.38885 0.002134,-0.5761 0.006685,-0.58811 0.009513,-0.025 0.0301356,-0.0456 0.0591498,-0.0591 0.023795,-0.0105 0.053998,-0.0118 0.5894061,-0.0118 0.5341105,0 0.5656813,6.6e-4 0.5896651,0.0118 0.028264,0.0128 0.05728,0.0439 0.06321,0.0674 0.00753,0.0299 -0.00126,0.076 -0.018956,0.0992 -0.035757,0.0468 9.479e-4,0.0439 -0.5618109,0.0473 l -0.5047575,0.003 v 0.4324 0.43239 h 0.4326489 0.4326489 l 0.00312,-0.26947 c 0.00355,-0.30301 0.00229,-0.29493 0.051108,-0.32722 0.048001,-0.0316 0.1114408,-0.02 0.1476489,0.0275 l 0.017568,0.023 0.00186,0.33262 c 0.00103,0.18294 1.901e-4,0.3417 -0.00182,0.3528 -0.0049,0.0271 -0.031448,0.0573 -0.062475,0.0714 -0.023989,0.0105 -0.055293,0.0117 -0.5865302,0.0117 -0.4591702,-9e-5 -0.5655725,-0.001 -0.5852975,-0.008 z m 1.7216137,-6.6e-4 c -0.060165,-0.0305 -0.080552,-0.10507 -0.043567,-0.15938 0.031911,-0.0469 0.029307,-0.0462 0.2291547,-0.0506 0.1987523,-0.005 0.2124511,-0.007 0.2923071,-0.0483 0.087323,-0.0456 0.1652962,-0.14866 0.1848419,-0.24428 0.00376,-0.0182 0.00679,-0.0996 0.00679,-0.18133 v -0.14814 l -0.017241,0.0162 c -0.02935,0.0274 -0.056851,0.0381 -0.090277,0.0348 -0.070472,-0.007 -0.1168547,-0.071 -0.099227,-0.1374 0.00614,-0.0231 0.025419,-0.0455 0.1304914,-0.15162 0.067804,-0.0685 0.1323615,-0.12838 0.1434589,-0.13316 0.024049,-0.0105 0.063127,-0.0117 0.087576,-0.002 0.02344,0.009 0.2504426,0.23441 0.2658248,0.26411 0.041678,0.0805 -0.026124,0.17234 -0.1171232,0.15871 -0.016195,-0.002 -0.03783,-0.0126 -0.055312,-0.0258 L 3.6185847,271.85 v 0.15126 c 0,0.12591 -0.00209,0.16141 -0.012366,0.21178 -0.026352,0.12898 -0.080529,0.22648 -0.1765765,0.31781 -0.068907,0.0655 -0.1445238,0.10883 -0.2419,0.13859 -0.053778,0.0164 -0.059714,0.0169 -0.2463489,0.019 -0.1686424,0.002 -0.193672,6.7e-4 -0.2117931,-0.008 z m -0.1738289,-1.56855 c -0.024966,-0.0155 -0.044682,-0.0375 -0.05288,-0.0592 -0.00456,-0.012 -0.00664,-0.19738 -0.00654,-0.58279 1.183e-4,-0.53605 7.202e-4,-0.56643 0.011715,-0.59021 0.013391,-0.029 0.033997,-0.0496 0.059098,-0.0591 0.012034,-0.005 0.1993677,-0.007 0.5884581,-0.007 0.6387541,0 0.5976253,-0.002 0.6324874,0.0451 0.034003,0.0469 0.029374,0.10494 -0.011628,0.1459 -0.012101,0.012 -0.032125,0.0247 -0.04449,0.0282 -0.01404,0.003 -0.2078075,0.006 -0.5162624,0.007 l -0.4937838,2e-5 v 0.4324 0.43239 H 3.1545962 3.587245 l 1.447e-4,-0.26192 c 1.212e-4,-0.24043 0.0011,-0.26366 0.011651,-0.28669 0.013702,-0.0298 0.027681,-0.0432 0.058777,-0.0562 0.048793,-0.0204 0.1053988,-0.002 0.1351966,0.0423 l 0.016829,0.0254 v 0.34245 0.34244 l -0.016682,0.0252 c -0.032426,0.0489 0.00956,0.046 -0.6395077,0.046 -0.5539506,-2e-5 -0.5798683,-6.6e-4 -0.5978635,-0.0117 z m -1.323028,-0.0882 c -0.032075,-0.008 -0.040467,-0.0149 -0.1671739,-0.14253 -0.10414518,-0.10495 -0.12437895,-0.12835 -0.13034972,-0.15086 -0.0178458,-0.0672 0.0349841,-0.13451 0.10583532,-0.13473 0.032605,-10e-5 0.051606,0.007 0.079466,0.0298 l 0.019452,0.0159 0.0038,-0.16145 c 0.00267,-0.1128 0.00685,-0.17544 0.01394,-0.20791 0.048524,-0.22224 0.2213153,-0.39732 0.4496519,-0.45561 0.051035,-0.013 0.3759706,-0.0203 0.412926,-0.009 0.097652,0.0294 0.1108551,0.15701 0.021327,0.20638 -0.01578,0.008 -0.047584,0.0105 -0.1975134,0.0138 -0.2060841,0.005 -0.2269381,0.008 -0.3081925,0.0612 -0.056936,0.0372 -0.098482,0.0836 -0.1277013,0.14267 -0.034377,0.0695 -0.040414,0.11047 -0.040539,0.2747 l -1.183e-4,0.14373 0.017245,-0.0161 c 0.032322,-0.03 0.050841,-0.0382 0.086388,-0.0382 0.026177,0 0.039815,0.003 0.058541,0.0162 0.041739,0.0275 0.061746,0.0881 0.044334,0.13406 -0.00753,0.0198 -0.2386875,0.25544 -0.2629385,0.26795 -0.0216,0.0117 -0.055885,0.0157 -0.078378,0.0105 z"
       id="path3992"
       inkscape:connector-curvature="0" />
    <g
       aria-label="REMAP"
       transform="scale(0.995237,1.0047858)"
       style="font-style:normal;font-weight:normal;font-size:1.33125699px;line-height:1.25;font-family:sans-serif;letter-spacing:0px;word-spacing:0px;fill:#000000;fill-opacity:1;stroke:none;stroke-width:0.03328142"
       id="text2616-62">
      <path
         d="m 5.0986501,269.2281 h 0.480566 q 0.2456705,0 0.3814358,0.10129 0.1379202,0.0991 0.1379202,0.31247 0,0.097 -0.02586,0.17025 -0.02586,0.0733 -0.07327,0.12714 -0.04741,0.0517 -0.1142152,0.0862 -0.06465,0.0323 -0.1443853,0.0474 l 0.4116059,0.65297 H 5.9951319 L 5.5921461,270.0901 H 5.2387253 v 0.63573 H 5.0986501 Z m 0.1400752,0.10344 v 0.65512 H 5.553356 q 0.0862,0 0.1594703,-0.0172 0.075425,-0.0194 0.1271453,-0.0603 0.053875,-0.0409 0.084045,-0.10775 0.03017,-0.0668 0.03017,-0.16162 0,-0.16163 -0.09913,-0.2349 -0.09913,-0.0733 -0.2758405,-0.0733 z"
         style="font-style:normal;font-variant:normal;font-weight:300;font-stretch:normal;font-size:2.1550045px;font-family:'YS Display';-inkscape-font-specification:'YS Display Light';stroke-width:0.03328142"
         id="path4500" />
      <path
         d="m 6.3679451,269.2281 h 0.922342 v 0.10344 H 6.5080204 v 0.55599 h 0.6723614 v 0.10344 H 6.5080204 v 0.62926 h 0.7930417 v 0.1056 h -0.933117 z"
         style="font-style:normal;font-variant:normal;font-weight:300;font-stretch:normal;font-size:2.1550045px;font-family:'YS Display';-inkscape-font-specification:'YS Display Light';stroke-width:0.03328142"
         id="path4502" />
      <path
         d="M 8.8505065,269.42852 8.3311504,270.4974 H 8.1975401 L 7.680339,269.41774 v 1.30809 H 7.5575038 v -1.49773 h 0.1702453 l 0.5452162,1.13569 0.5473711,-1.13569 h 0.1702454 v 1.49773 H 8.8505065 Z"
         style="font-style:normal;font-variant:normal;font-weight:300;font-stretch:normal;font-size:2.1550045px;font-family:'YS Display';-inkscape-font-specification:'YS Display Light';stroke-width:0.03328142"
         id="path4504" />
      <path
         d="m 9.7232795,269.2281 h 0.1961054 l 0.5603011,1.49773 h -0.14654 l -0.176711,-0.4741 H 9.4668339 l -0.1767104,0.4741 H 9.1672883 Z m 0.3943655,0.92019 -0.3081654,-0.82106 -0.3060106,0.82106 z"
         style="font-style:normal;font-variant:normal;font-weight:300;font-stretch:normal;font-size:2.1550045px;font-family:'YS Display';-inkscape-font-specification:'YS Display Light';stroke-width:0.03328142"
         id="path4506" />
      <path
         d="m 10.654238,269.2281 h 0.459016 q 0.243515,0 0.379281,0.10344 0.135765,0.10129 0.135765,0.31894 0,0.12284 -0.03879,0.21119 -0.03879,0.0862 -0.109905,0.14223 -0.06896,0.056 -0.168091,0.0819 -0.09698,0.0259 -0.217655,0.0259 h -0.299546 v 0.61418 h -0.140075 z m 0.140075,0.10344 v 0.67667 h 0.299546 q 0.18102,0 0.286615,-0.0819 0.107751,-0.0819 0.107751,-0.27368 0,-0.16594 -0.09698,-0.24352 -0.09698,-0.0776 -0.277995,-0.0776 z"
         style="font-style:normal;font-variant:normal;font-weight:300;font-stretch:normal;font-size:2.1550045px;font-family:'YS Display';-inkscape-font-specification:'YS Display Light';stroke-width:0.03328142"
         id="path4508" />
    </g>
  </g>
</svg>
