<?xml version="1.0" encoding="UTF-8" standalone="no"?>
<!-- Created with Inkscape (http://www.inkscape.org/) -->

<svg
   xmlns:dc="http://purl.org/dc/elements/1.1/"
   xmlns:cc="http://creativecommons.org/ns#"
   xmlns:rdf="http://www.w3.org/1999/02/22-rdf-syntax-ns#"
   xmlns:svg="http://www.w3.org/2000/svg"
   xmlns="http://www.w3.org/2000/svg"
   xmlns:sodipodi="http://sodipodi.sourceforge.net/DTD/sodipodi-0.dtd"
   xmlns:inkscape="http://www.inkscape.org/namespaces/inkscape"
   width="200"
   height="50"
   viewBox="0 0 31.75 7.9374999"
   version="1.1"
   id="svg1571"
   sodipodi:docname="sink_raw.svg"
   inkscape:version="0.92.5 (2060ec1f9f, 2020-04-08)">
  <defs
     id="defs1565" />
  <sodipodi:namedview
     id="base"
     pagecolor="#ffffff"
     bordercolor="#666666"
     borderopacity="1.0"
     inkscape:pageopacity="0.53333333"
     inkscape:pageshadow="2"
     inkscape:zoom="5.6"
     inkscape:cx="36.339308"
     inkscape:cy="15.434491"
     inkscape:document-units="mm"
     inkscape:current-layer="layer1"
     showgrid="false"
     inkscape:window-width="1916"
     inkscape:window-height="1043"
     inkscape:window-x="0"
     inkscape:window-y="18"
     inkscape:window-maximized="0"
     inkscape:pagecheckerboard="false"
     scale-x="0.6"
     units="px" />
  <metadata
     id="metadata1568">
    <rdf:RDF>
      <cc:Work
         rdf:about="">
        <dc:format>image/svg+xml</dc:format>
        <dc:type
           rdf:resource="http://purl.org/dc/dcmitype/StillImage" />
        <dc:title />
      </cc:Work>
    </rdf:RDF>
  </metadata>
  <g
     inkscape:label="Layer 1"
     inkscape:groupmode="layer"
     id="layer1"
     transform="translate(0,-269.0625)">
    <path
       style="fill:none;fill-opacity:1;stroke-width:0.26458332"
       d="m 0,247.10715 h 199.19344 v 58.96428 H 0 Z"
       id="rect2484"
       inkscape:connector-curvature="0" />
    <path
       style="fill:#000000;stroke-width:0.00672504"
       d="m 1.6286881,272.20401 c -0.3278428,-0.16544 -0.6028594,-0.3071 -0.6111475,-0.31481 l -0.01507,-0.014 -3.569e-4,-0.57112 -3.57e-4,-0.57111 -0.059568,0.11817 -0.059568,0.11818 -3.57e-4,0.0576 -3.57e-4,0.0576 -0.050342,0.0251 c -0.027681,0.0138 -0.059463,0.0251 -0.070621,0.0251 -0.028029,0 -0.053268,-0.0265 -0.05282,-0.0554 2.348e-4,-0.0152 0.049987,-0.12151 0.155717,-0.33289 l 0.15537325,-0.31062 0.4638025,-0.2347 0.4638026,-0.23469 v 0.0675 0.0676 l -0.4068684,0.20513 -0.4068682,0.20514 0.5542133,0.27936 0.5542132,0.27936 0.552849,-0.27867 c 0.304067,-0.15328 0.55144,-0.2809 0.549716,-0.2836 -0.0018,-0.003 -0.184199,-0.0961 -0.405503,-0.20745 l -0.402359,-0.20253 v -0.0625 c 0,-0.0373 0.0027,-0.0625 0.0067,-0.0625 0.01338,0 0.914483,0.45794 0.925255,0.47021 0.0061,0.007 0.07937,0.15062 0.162854,0.31932 0.156553,0.31633 0.158879,0.32234 0.135586,0.35064 -0.0042,0.005 -0.278166,0.1456 -0.60892,0.31236 -0.44054,0.22209 -0.607483,0.30317 -0.62423,0.30317 -0.03136,0 -0.03876,-0.0104 -0.141258,-0.19766 l -0.08707,-0.15911 -0.0017,0.48672 c -9.77e-4,0.26768 -5.22e-4,0.48791 9.12e-4,0.48938 0.0014,10e-4 0.241083,-0.11752 0.532496,-0.26444 l 0.529834,-0.26712 v -0.19094 -0.19094 l 0.05703,-0.0286 c 0.03137,-0.0157 0.05863,-0.0286 0.06059,-0.0286 0.002,0 0.0027,0.11015 0.0016,0.24478 -0.0015,0.18514 -0.0041,0.24853 -0.01068,0.26013 -0.01133,0.02 -1.204809,0.62296 -1.23201,0.62241 -0.01034,-1.5e-4 -0.2801142,-0.13241 -0.6145112,-0.30116 z m 0.5525449,-0.44296 v -0.58919 l -0.5257657,-0.26503 c -0.2891715,-0.14576 -0.5287747,-0.26502 -0.5324523,-0.26502 -0.0044,0 -0.00669,0.20043 -0.00669,0.58582 v 0.58581 l 0.5307778,0.26802 c 0.2919273,0.14741 0.5315312,0.26819 0.5324522,0.2684 9.12e-4,1.6e-4 0.0017,-0.26476 0.0017,-0.58881 z m 1.458768,-0.71071 c 0.0018,-0.001 -0.210866,-0.43487 -0.216375,-0.44098 -0.0038,-0.005 -1.095048,0.54926 -1.095048,0.55543 0,0.005 0.199994,0.37304 0.225283,0.41391 0.0093,0.0151 0.01163,0.014 0.546725,-0.25566 0.295545,-0.14895 0.538282,-0.27165 0.539415,-0.2727 z m -1.6563275,-0.38825 -0.2544227,-0.25659 0.041822,-0.0422 0.041822,-0.0422 0.1841714,0.18559 0.1841708,0.18559 v -0.55198 -0.55199 h 0.06028 0.06028 v 0.55199 0.55198 l 0.182552,-0.18396 c 0.100404,-0.10118 0.18564,-0.18396 0.189415,-0.18396 0.0038,0 0.02406,0.0175 0.04508,0.0389 l 0.03822,0.0389 -0.256132,0.25818 c -0.140872,0.14199 -0.257639,0.25817 -0.259481,0.25817 -0.0018,0 -0.11784,-0.11546 -0.2577723,-0.25659 z"
       id="path2040"
       inkscape:connector-curvature="0" />
    <text
       xml:space="preserve"
       style="font-style:normal;font-weight:normal;font-size:1.58886325px;line-height:1.25;font-family:sans-serif;letter-spacing:0px;word-spacing:0px;fill:#000000;fill-opacity:1;stroke:none;stroke-width:0.03972157"
       x="4.6018634"
       y="289.89603"
       id="text2616-6"
       transform="scale(1.066543,0.93760872)"
       inkscape:transform-center-x="-0.25849508"
       inkscape:transform-center-y="0.52727922"><tspan
         sodipodi:role="line"
         id="tspan2614-5"
         x="4.6018634"
         y="289.89603"
         style="font-style:normal;font-variant:normal;font-weight:300;font-stretch:normal;font-size:2.22763753px;font-family:'YS Display';-inkscape-font-specification:'YS Display Light';stroke-width:0.03972157">SINK</tspan></text>
  </g>
</svg>
