<?xml version="1.0" encoding="UTF-8" standalone="no"?>
<!-- Created with Inkscape (http://www.inkscape.org/) -->

<svg
   xmlns:dc="http://purl.org/dc/elements/1.1/"
   xmlns:cc="http://creativecommons.org/ns#"
   xmlns:rdf="http://www.w3.org/1999/02/22-rdf-syntax-ns#"
   xmlns:svg="http://www.w3.org/2000/svg"
   xmlns="http://www.w3.org/2000/svg"
   xmlns:sodipodi="http://sodipodi.sourceforge.net/DTD/sodipodi-0.dtd"
   xmlns:inkscape="http://www.inkscape.org/namespaces/inkscape"
   width="200"
   height="50"
   viewBox="0 0 31.75 7.9374999"
   version="1.1"
   id="svg1571"
   sodipodi:docname="sink.svg"
   inkscape:version="0.92.5 (2060ec1f9f, 2020-04-08)">
  <defs
     id="defs1565" />
  <sodipodi:namedview
     id="base"
     pagecolor="#ffffff"
     bordercolor="#666666"
     borderopacity="1.0"
     inkscape:pageopacity="0.53333333"
     inkscape:pageshadow="2"
     inkscape:zoom="5.6"
     inkscape:cx="68.303594"
     inkscape:cy="15.434491"
     inkscape:document-units="mm"
     inkscape:current-layer="layer1"
     showgrid="false"
     inkscape:window-width="1916"
     inkscape:window-height="1043"
     inkscape:window-x="0"
     inkscape:window-y="18"
     inkscape:window-maximized="0"
     inkscape:pagecheckerboard="false"
     scale-x="0.6"
     units="px" />
  <metadata
     id="metadata1568">
    <rdf:RDF>
      <cc:Work
         rdf:about="">
        <dc:format>image/svg+xml</dc:format>
        <dc:type
           rdf:resource="http://purl.org/dc/dcmitype/StillImage" />
        <dc:title />
      </cc:Work>
    </rdf:RDF>
  </metadata>
  <g
     inkscape:label="Layer 1"
     inkscape:groupmode="layer"
     id="layer1"
     transform="translate(0,-269.0625)">
    <path
       style="fill:none;fill-opacity:1;stroke-width:0.26458332"
       d="m 0,247.10715 h 199.19344 v 58.96428 H 0 Z"
       id="rect2484"
       inkscape:connector-curvature="0" />
    <path
       style="fill:#000000;stroke-width:0.00657985"
       d="m 1.626116,272.0993 c -0.3269268,-0.15881 -0.601175,-0.2948 -0.6094399,-0.3022 l -0.015028,-0.0134 -3.559e-4,-0.54826 -3.56e-4,-0.54825 -0.0594016,0.11344 -0.0594016,0.11345 -3.56e-4,0.0553 -3.56e-4,0.0553 -0.0502014,0.0241 c -0.0276037,0.0132 -0.0592969,0.0241 -0.0704237,0.0241 -0.0279507,0 -0.0531192,-0.0254 -0.0526724,-0.0532 2.3415e-4,-0.0146 0.0498473,-0.11665 0.15528193,-0.31957 l 0.15493907,-0.29819 0.4625067,-0.2253 0.4625067,-0.2253 v 0.0648 0.0649 l -0.4057316,0.19692 -0.4057314,0.19692 0.5526648,0.26818 0.5526648,0.26818 0.5513043,-0.26752 c 0.3032175,-0.14714 0.5498993,-0.26965 0.5481801,-0.27224 -0.00179,-0.003 -0.1836843,-0.0923 -0.40437,-0.19915 l -0.4012348,-0.19442 v -0.06 c 0,-0.0358 0.00269,-0.06 0.00668,-0.06 0.013343,0 0.911928,0.43961 0.9226699,0.45139 0.00608,0.007 0.079148,0.14459 0.162399,0.30654 0.1561156,0.30366 0.1584351,0.30943 0.1352072,0.3366 -0.00419,0.005 -0.2773889,0.13977 -0.6072187,0.29986 -0.4393092,0.2132 -0.6057857,0.29103 -0.6224859,0.29103 -0.031272,0 -0.038652,-0.01 -0.1408634,-0.18975 l -0.086827,-0.15274 -0.0017,0.46724 c -9.743e-4,0.25696 -5.206e-4,0.46838 9.094e-4,0.46979 0.0014,9.6e-4 0.2404094,-0.11282 0.5310082,-0.25386 l 0.5283537,-0.25642 v -0.1833 -0.1833 l 0.056871,-0.0274 c 0.031282,-0.0151 0.058466,-0.0275 0.060421,-0.0275 0.00199,0 0.00269,0.10574 0.0016,0.23498 -0.0015,0.17773 -0.00409,0.23859 -0.01065,0.24972 -0.011298,0.0192 -1.2014428,0.59802 -1.2285678,0.5975 -0.010311,-1.5e-4 -0.2793315,-0.12711 -0.6127942,-0.28911 z m 0.5510011,-0.42522 v -0.56561 l -0.5242967,-0.25442 c -0.2883635,-0.13993 -0.5272973,-0.25441 -0.5309646,-0.25441 -0.00439,0 -0.00667,0.19241 -0.00667,0.56237 v 0.56236 l 0.5292948,0.25729 c 0.2911116,0.14151 0.5300461,0.25745 0.5309645,0.25766 9.095e-4,1.5e-4 0.0017,-0.25417 0.0017,-0.56524 z m 1.4546922,-0.68226 c 0.00179,-9.6e-4 -0.2102768,-0.41747 -0.2157704,-0.42333 -0.00379,-0.005 -1.0919885,0.52727 -1.0919885,0.53319 0,0.005 0.1994353,0.35811 0.2246536,0.39735 0.00927,0.0145 0.011598,0.0134 0.5451975,-0.24543 0.2947192,-0.14299 0.536778,-0.26078 0.5379078,-0.26178 z m -1.6516997,-0.37271 -0.2537118,-0.24632 0.041705,-0.0405 0.041705,-0.0405 0.1836568,0.17816 0.1836562,0.17816 v -0.52989 -0.52989 h 0.060112 0.060112 v 0.52989 0.52989 l 0.1820419,-0.1766 c 0.1001235,-0.0971 0.1851213,-0.17659 0.1888858,-0.17659 0.00379,0 0.023993,0.0168 0.044954,0.0373 l 0.038113,0.0373 -0.2554164,0.24785 c -0.1404784,0.1363 -0.2569192,0.24783 -0.258756,0.24783 -0.00179,0 -0.1175108,-0.11084 -0.2570521,-0.24632 z"
       id="path2040"
       inkscape:connector-curvature="0" />
    <g
       aria-label="SINK"
       transform="scale(1.087031,0.91993698)"
       inkscape:transform-center-x="-0.25777318"
       inkscape:transform-center-y="0.50617824"
       style="font-style:normal;font-weight:normal;font-size:1.55456126px;line-height:1.25;font-family:sans-serif;letter-spacing:0px;word-spacing:0px;fill:#000000;fill-opacity:1;stroke:none;stroke-width:0.03886402"
       id="text2616-6">
      <path
         d="m 5.0622975,295.39002 q -0.100259,0 -0.1809022,-0.0153 -0.078464,-0.0131 -0.1394909,-0.0327 -0.058848,-0.0218 -0.1002591,-0.0458 -0.039232,-0.0261 -0.061027,-0.0479 v -0.1177 q 0.026155,0.024 0.071925,0.0501 0.04795,0.024 0.1089773,0.0479 0.063207,0.0218 0.1394909,0.0371 0.076284,0.0131 0.1612863,0.0131 0.085002,0 0.1569273,-0.0174 0.074104,-0.0174 0.1264136,-0.0545 0.052309,-0.0392 0.082823,-0.0959 0.030514,-0.0589 0.030514,-0.13949 0,-0.0741 -0.028334,-0.12424 -0.026155,-0.0501 -0.078464,-0.0828 -0.05013,-0.0349 -0.124234,-0.0567 -0.074105,-0.024 -0.1656455,-0.0458 -0.085002,-0.0218 -0.1700045,-0.0501 -0.085002,-0.0305 -0.1525681,-0.0763 -0.067566,-0.048 -0.1111569,-0.11988 -0.041411,-0.0719 -0.041411,-0.1809 0,-0.19398 0.1351318,-0.29642 0.1351318,-0.10461 0.3988568,-0.10461 0.1569272,0 0.2506476,0.0305 0.0959,0.0283 0.1460296,0.0632 v 0.11551 q -0.1547477,-0.0981 -0.3966772,-0.0981 -0.2048773,0 -0.3029568,0.0741 -0.0959,0.0719 -0.0959,0.21141 0,0.0719 0.030514,0.11988 0.030514,0.048 0.080643,0.0806 0.052309,0.0327 0.119875,0.0545 0.067566,0.0218 0.1416704,0.0392 0.082823,0.0218 0.1721841,0.048 0.089361,0.0262 0.1634659,0.0741 0.074105,0.0458 0.1220545,0.12205 0.04795,0.0763 0.04795,0.19616 0,0.11769 -0.04577,0.19834 -0.043591,0.0806 -0.1176954,0.13077 -0.074105,0.0501 -0.1721841,0.0741 -0.09808,0.0218 -0.2026977,0.0218 z"
         style="font-style:normal;font-variant:normal;font-weight:300;font-stretch:normal;font-size:2.17954516px;font-family:'YS Display';-inkscape-font-specification:'YS Display Light';stroke-width:0.03886402"
         id="path5106" />
      <path
         d="m 5.968985,293.85344 v 1.51479 H 5.8273146 v -1.51479 z"
         style="font-style:normal;font-variant:normal;font-weight:300;font-stretch:normal;font-size:2.17954516px;font-family:'YS Display';-inkscape-font-specification:'YS Display Light';stroke-width:0.03886402"
         id="path5108" />
      <path
         d="M 7.4510754,295.36823 H 7.2745323 l -0.8609204,-1.3535 v 1.3535 h -0.124234 v -1.51479 h 0.1830818 l 0.8565612,1.34696 v -1.34696 h 0.1220545 z"
         style="font-style:normal;font-variant:normal;font-weight:300;font-stretch:normal;font-size:2.17954516px;font-family:'YS Display';-inkscape-font-specification:'YS Display Light';stroke-width:0.03886402"
         id="path5110" />
      <path
         d="m 7.9131356,293.85344 v 1.51479 H 7.7714651 v -1.51479 z m 0.220134,0.74541 0.7279681,0.76938 H 8.6868741 l -0.7148908,-0.75195 0.7061726,-0.76284 h 0.14385 z"
         style="font-style:normal;font-variant:normal;font-weight:300;font-stretch:normal;font-size:2.17954516px;font-family:'YS Display';-inkscape-font-specification:'YS Display Light';stroke-width:0.03886402"
         id="path5112" />
    </g>
  </g>
</svg>
