<?xml version="1.0" encoding="UTF-8" standalone="no"?>
<!-- Created with Inkscape (http://www.inkscape.org/) -->

<svg
   xmlns:dc="http://purl.org/dc/elements/1.1/"
   xmlns:cc="http://creativecommons.org/ns#"
   xmlns:rdf="http://www.w3.org/1999/02/22-rdf-syntax-ns#"
   xmlns:svg="http://www.w3.org/2000/svg"
   xmlns="http://www.w3.org/2000/svg"
   xmlns:sodipodi="http://sodipodi.sourceforge.net/DTD/sodipodi-0.dtd"
   xmlns:inkscape="http://www.inkscape.org/namespaces/inkscape"
   width="200"
   height="50"
   viewBox="0 0 31.75 7.9374999"
   version="1.1"
   id="svg1571"
   sodipodi:docname="source_raw.svg"
   inkscape:version="0.92.5 (2060ec1f9f, 2020-04-08)">
  <defs
     id="defs1565" />
  <sodipodi:namedview
     id="base"
     pagecolor="#ffffff"
     bordercolor="#666666"
     borderopacity="1.0"
     inkscape:pageopacity="0.53333333"
     inkscape:pageshadow="2"
     inkscape:zoom="3.959798"
     inkscape:cx="39.024419"
     inkscape:cy="19.880735"
     inkscape:document-units="mm"
     inkscape:current-layer="layer1"
     showgrid="false"
     inkscape:window-width="1916"
     inkscape:window-height="1043"
     inkscape:window-x="0"
     inkscape:window-y="18"
     inkscape:window-maximized="0"
     inkscape:pagecheckerboard="false"
     scale-x="0.6"
     units="px" />
  <metadata
     id="metadata1568">
    <rdf:RDF>
      <cc:Work
         rdf:about="">
        <dc:format>image/svg+xml</dc:format>
        <dc:type
           rdf:resource="http://purl.org/dc/dcmitype/StillImage" />
        <dc:title></dc:title>
      </cc:Work>
    </rdf:RDF>
  </metadata>
  <g
     inkscape:label="Layer 1"
     inkscape:groupmode="layer"
     id="layer1"
     transform="translate(0,-269.0625)">
    <path
       style="fill:none;fill-opacity:1;stroke-width:0.26458332"
       d="m 0,247.10715 h 199.19344 v 58.96428 H 0 Z"
       id="rect2484"
       inkscape:connector-curvature="0" />
    <text
       xml:space="preserve"
       style="font-style:normal;font-weight:normal;font-size:1.68436992px;line-height:1.25;font-family:sans-serif;letter-spacing:0px;word-spacing:0px;fill:#000000;fill-opacity:1;stroke:none;stroke-width:0.04210925"
       x="4.969727"
       y="284.935"
       id="text2616"
       transform="scale(1.0478921,0.95429671)"><tspan
         sodipodi:role="line"
         id="tspan2614"
         x="4.969727"
         y="284.935"
         style="font-style:normal;font-variant:normal;font-weight:300;font-stretch:normal;font-size:2.43635106px;font-family:'YS Display';-inkscape-font-specification:'YS Display Light';stroke-width:0.04210925">SOURCE</tspan></text>
    <path
       style="fill:#000000;stroke-width:0.00722793"
       d="m 1.652103,272.40165 c -0.3665324,-0.17093 -0.67400476,-0.31731 -0.68327086,-0.32527 l -0.016847,-0.0144 -3.956e-4,-0.59008 -3.956e-4,-0.59009 -0.066597,0.1221 -0.066597,0.12209 -3.957e-4,0.0596 -3.956e-4,0.0596 -0.056283,0.0259 c -0.030957,0.0143 -0.066489,0.026 -0.078963,0.026 -0.031335,0 -0.059554,-0.0274 -0.059054,-0.0573 2.519e-4,-0.0156 0.055886,-0.12555 0.1740936,-0.34394 l 0.1737084,-0.32095 0.51853696,-0.24249 0.518537,-0.24249 v 0.0698 0.0698 l -0.4548838,0.21194 -0.4548835,0.21195 0.6196172,0.28865 0.6196177,0.28864 0.6180922,-0.28793 c 0.3399507,-0.15837 0.6165157,-0.29023 0.6145897,-0.29302 -0.00197,-0.003 -0.2059378,-0.0992 -0.4533581,-0.21434 l -0.4498566,-0.20928 v -0.0646 c 0,-0.0385 0.00301,-0.0646 0.00751,-0.0646 0.014958,0 1.0224036,0.47315 1.0344464,0.48583 0.00677,0.007 0.088736,0.15563 0.1820722,0.32993 0.1750292,0.32683 0.1776295,0.33304 0.1515881,0.36229 -0.00466,0.006 -0.3109941,0.15043 -0.6807805,0.32272 -0.4925292,0.22946 -0.6791745,0.31325 -0.6978974,0.31325 -0.035055,0 -0.043335,-0.0107 -0.1579281,-0.20423 l -0.097343,-0.16439 -0.00193,0.50288 c -0.00103,0.27658 -5.652e-4,0.50412 0.00103,0.50564 0.00165,10e-4 0.2695344,-0.12143 0.5953377,-0.27323 l 0.5923697,-0.27599 v -0.19728 -0.19728 l 0.06376,-0.0294 c 0.035062,-0.0161 0.065551,-0.0294 0.067743,-0.0294 0.00218,0 0.00299,0.11381 0.00175,0.25291 -0.00167,0.19129 -0.00459,0.25677 -0.011935,0.26877 -0.012671,0.0207 -1.3469919,0.64365 -1.3774036,0.64309 -0.011563,-1.8e-4 -0.3131712,-0.13683 -0.6870311,-0.31117 z m 0.6177516,-0.45768 v -0.60876 l -0.5878122,-0.27383 c -0.3232973,-0.15059 -0.5911771,-0.27382 -0.5952883,-0.27382 -0.00492,0 -0.00747,0.20709 -0.00747,0.60527 v 0.60528 l 0.5934161,0.27692 c 0.3263789,0.15231 0.5942586,0.2771 0.5952882,0.27731 0.00103,1.8e-4 0.00189,-0.27355 0.00189,-0.60837 z m 1.6309212,-0.73431 c 0.00189,-10e-4 -0.2357512,-0.44932 -0.2419102,-0.45562 -0.0043,-0.004 -1.2242772,0.56749 -1.2242772,0.57388 0,0.006 0.2235962,0.38542 0.2518692,0.42764 0.010432,0.0156 0.012999,0.0145 0.6112465,-0.26415 0.3304225,-0.15389 0.6018054,-0.28067 0.6030717,-0.28175 z m -1.6309212,-1.06567 v -0.53893 l -0.2059051,0.19175 -0.2059056,0.19176 -0.046755,-0.0436 -0.046755,-0.0436 0.2881922,-0.2686 0.2881922,-0.2686 0.2863662,0.26676 0.2863667,0.26676 -0.046585,0.0438 -0.046585,0.0438 -0.2079228,-0.19364 -0.2079223,-0.19365 v 0.54242 0.54242 h -0.067391 -0.067392 z"
       id="path3821"
       inkscape:connector-curvature="0" />
  </g>
</svg>
