<?xml version="1.0" encoding="utf-8"?>
<!-- Generator: Adobe Illustrator 17.0.0, SVG Export Plug-In . SVG Version: 6.00 Build 0)  -->
<!DOCTYPE svg PUBLIC "-//W3C//DTD SVG 1.1//EN" "http://www.w3.org/Graphics/SVG/1.1/DTD/svg11.dtd">
<svg version="1.1" id="Слой_1" xmlns="http://www.w3.org/2000/svg" xmlns:xlink="http://www.w3.org/1999/xlink" x="0px" y="0px"
	 width="144.665px" height="21.77px" viewBox="0 0 144.665 21.77" enable-background="new 0 0 144.665 21.77" xml:space="preserve">
<g>
	<path fill="#FF0000" d="M5.273,11.022l-3.049,6.848H0l3.349-7.323c-1.575-0.8-2.625-2.25-2.625-4.924C0.725,1.875,3.099,0,5.923,0
		h2.875v17.871H6.873v-6.848H5.273z M6.873,1.625H5.849c-1.55,0-3.049,1.025-3.049,3.999c0,2.875,1.375,3.799,3.049,3.799h1.024
		V1.625z"/>
	<path d="M18.073,5.274v12.597h-1.924v-5.648h-2.899v5.648h-1.95V5.274h1.95v5.349h2.899V5.274H18.073z M28.095,20.345h-1.75v-2.475
		h-5.398v2.475h-1.75v-4.074h0.774c1.15-2.675,1.275-6.573,1.275-9.922V5.274h5.849v10.997h1V20.345z M25.171,6.848h-2.174v0.225
		c0,2.649-0.125,6.523-1.175,9.198h3.349V6.848z M33.469,18.045c-2.6,0-4.199-2.074-4.199-5.948c0-4.049,1.125-6.999,3.799-6.999
		c2.099,0,3.474,1.575,3.474,5.849v1.075h-5.249c0,2.85,0.8,4.349,2.35,4.349c1.1,0,1.975-0.5,2.475-0.85l0.45,1.5
		C35.769,17.646,34.719,18.045,33.469,18.045z M31.32,10.422h3.224c0-2.149-0.35-3.724-1.475-3.724
		C31.87,6.698,31.444,8.173,31.32,10.422z M40.492,11.597v6.273h-1.949V5.274h1.949v5.823l3.024-5.823h1.975l-3.125,5.923
		l3.574,6.673h-2.125L40.492,11.597z M46.191,11.572c0-3.949,1.525-6.474,4.474-6.474c1.125,0,1.774,0.3,2.324,0.65l-0.275,1.85
		c-0.525-0.45-1.275-0.875-2.075-0.875c-1.399,0-2.399,1.575-2.399,4.749c0,3.149,0.75,4.949,2.325,4.949
		c0.95,0,1.674-0.375,2.125-0.775l0.45,1.45c-0.675,0.574-1.475,0.949-2.624,0.949C47.815,18.045,46.191,15.871,46.191,11.572z"/>
	<path d="M60.224,5.648l-0.525,12.222h-1.025L59.449,0h1.375l2.674,11.022c0.225,0.875,0.35,1.724,0.425,2.474h0.05
		c0.075-0.75,0.225-1.6,0.45-2.474L67.172,0h1.399l0.775,17.871h-1.2L67.622,5.549c-0.075-1.4-0.05-2.475-0.05-3.574h-0.075
		c-0.15,1.125-0.325,2.174-0.6,3.224l-2.5,9.873h-0.975l-2.475-9.873c-0.25-0.975-0.45-1.975-0.575-3.199h-0.075
		C60.299,2.974,60.274,4.424,60.224,5.648z"/>
	<path d="M71.299,11.647c0-4.199,1.674-6.623,3.849-6.623c2.174,0,3.849,2.149,3.849,6.473c0,4.174-1.675,6.624-3.849,6.624
		C72.974,18.121,71.299,15.946,71.299,11.647z M77.822,11.572c0-3.949-1.199-5.574-2.674-5.574c-1.475,0-2.675,1.75-2.675,5.574
		c0,3.924,1.2,5.598,2.675,5.598C76.623,17.17,77.822,15.372,77.822,11.572z"/>
	<path d="M82.323,16.996v4.774h-1.175V5.274h1.025l0.1,2.074c0.55-1.2,1.475-2.324,2.874-2.324c2.1,0,3.324,2.524,3.324,6.173
		c0,4.624-1.55,6.898-3.898,6.898C83.623,18.095,82.798,17.621,82.323,16.996z M87.297,11.297c0-3.299-0.899-5.249-2.349-5.249
		c-1.125,0-2.075,1.2-2.625,2.549v7.048c0.5,1.025,1.2,1.524,2.324,1.524C86.247,17.17,87.297,15.271,87.297,11.297z"/>
	<path d="M90.074,11.647c0-4.199,1.675-6.623,3.849-6.623c2.175,0,3.85,2.149,3.85,6.473c0,4.174-1.675,6.624-3.85,6.624
		C91.749,18.121,90.074,15.946,90.074,11.647z M96.598,11.572c0-3.949-1.2-5.574-2.675-5.574s-2.674,1.75-2.674,5.574
		c0,3.924,1.199,5.598,2.674,5.598S96.598,15.372,96.598,11.572z"/>
	<path d="M99.774,17.871H98.55l3.948-6.673l-3.749-5.923h1.175l3.749,5.923V5.274h1.175v5.923l3.749-5.923h1.125l-3.699,5.823
		l3.999,6.773h-1.274l-3.899-6.523v6.523h-1.175v-6.523L99.774,17.871z"/>
	<path d="M114.598,17.096c1.675,0,2.55-1.35,2.55-1.35l0.375,0.949c0,0-0.95,1.425-2.95,1.425c-2.674,0-3.898-2.425-3.898-6.548
		c0-4.124,1.55-6.548,3.674-6.548c2.175,0,3.574,2.274,3.175,6.748h-5.699C111.873,15.221,112.773,17.096,114.598,17.096z
		 M111.849,10.847h4.573c0.2-3.349-0.8-4.849-2.074-4.849C113.023,5.999,111.948,7.698,111.849,10.847z"/>
	<path d="M125.222,11.797h-4.299v6.074h-1.175V5.274h1.175v5.573h4.299V5.274h1.175v12.597h-1.175V11.797z"/>
	<path d="M128.549,11.647c0-4.199,1.675-6.623,3.849-6.623c2.175,0,3.85,2.149,3.85,6.473c0,4.174-1.675,6.624-3.85,6.624
		C130.224,18.121,128.549,15.946,128.549,11.647z M135.072,11.572c0-3.949-1.2-5.574-2.675-5.574s-2.674,1.75-2.674,5.574
		c0,3.924,1.199,5.598,2.674,5.598S135.072,15.372,135.072,11.572z"/>
	<path d="M141.672,17.096c1.675,0,2.55-1.35,2.55-1.35l0.375,0.949c0,0-0.95,1.425-2.95,1.425c-2.674,0-3.898-2.425-3.898-6.548
		c0-4.124,1.55-6.548,3.674-6.548c2.175,0,3.574,2.274,3.175,6.748h-5.699C138.947,15.221,139.848,17.096,141.672,17.096z
		 M138.923,10.847h4.573c0.2-3.349-0.8-4.849-2.074-4.849C140.098,5.999,139.022,7.698,138.923,10.847z"/>
</g>
<g>
</g>
<g>
</g>
<g>
</g>
<g>
</g>
<g>
</g>
<g>
</g>
</svg>
