<svg xmlns="http://www.w3.org/2000/svg" viewBox="0 0 42 42"><defs><style>.a{fill:#d33833;}.a,.d,.e,.f,.g,.h,.j,.k,.n,.o,.p,.q{fill-rule:evenodd;}.b,.n{fill:#ef3d3a;}.c,.o{fill:#231f20;}.d{fill:#f0d6b7;}.e{fill:#335061;}.f{fill:#6d6b6d;}.g{fill:#dcd9d8;}.h,.i{fill:#f7e4cd;}.j{fill:#49728b;}.k,.l{fill:#fff;}.m,.r{fill:none;}.m{stroke:#d33833;stroke-width:0.27px;}.p{fill:#81b0c4;}.q{fill:#1d1919;}</style></defs><title>Jenkins42</title><path class="a" d="M35.05,20.24A14.82,14.82,0,0,1,20.5,35.31,14.82,14.82,0,0,1,6,20.24,14.82,14.82,0,0,1,20.5,5.17,14.82,14.82,0,0,1,35.05,20.24"/><path class="b" d="M6.54,24S5.49,8.26,19.79,7.81l-1-1.68L11,8.76,8.82,11.34,6.88,15.1,5.77,19.48,6.1,22.4"/><path class="c" d="M10.54,10A14.8,14.8,0,0,0,6.4,20.29h0a14.83,14.83,0,0,0,4.14,10.34h0a13.8,13.8,0,0,0,10,4.27h0a13.8,13.8,0,0,0,10-4.27h0A14.83,14.83,0,0,0,34.6,20.29h0A14.8,14.8,0,0,0,30.46,10h0a13.8,13.8,0,0,0-10-4.27h0a13.8,13.8,0,0,0-10,4.27ZM9.89,31.27a15.77,15.77,0,0,1-4.39-11h0a15.76,15.76,0,0,1,4.39-11h0A14.71,14.71,0,0,1,20.5,4.77h0A14.71,14.71,0,0,1,31.11,9.32h0a15.76,15.76,0,0,1,4.39,11h0a15.77,15.77,0,0,1-4.39,11h0A14.71,14.71,0,0,1,20.5,35.82h0A14.71,14.71,0,0,1,9.89,31.27h0"/><path class="d" d="M26.62,20.32l-2.21.34-3,.34-1.94.05L17.59,21l-1.44-.45-1.28-1.41-1-2.86-.22-.62-1.33-.44-.78-1.29L11,12.07l.6-1.62,1.45-.51,1.16.56.55,1.24.67-.12.22-.28-.22-1.29-.06-1.62.34-2.25,0-1.28,1-1.64L18.48,2,21.58.63l3.44.5,3,2.19L29.4,5.56l.88,1.63.22,4-.66,3.48L28.62,17.8l-1.16,1.62"/><path class="e" d="M24.74,30l-7.93.34v1.34l.67,4.72-.33.39L11.6,34.91l-.38-.67-.56-6.34L9.39,24.08l-.28-.9,4.43-3.08,1.39-.56,1.22,1.51,1.05,1,1.22.39.56.17.66,2.91.5.62,1.27-.45-.88,1.74,4.82,2.3-.61.34"/><path class="f" d="M11.6,10.45l1.45-.51,1.16.56.55,1.24.67-.12L15.6,11l-.34-1.29.34-3.09-.28-1.68,1-1.18L18.48,2l-.61-.84L14.82,2.65l-1.28,1-.72,1.57-1.1,1.51-.34,1.8.22,1.91"/><path class="g" d="M13.88,5.17S14.71,3.09,18,2.08s.17-.72.17-.72l-3.6,1.4-1.39,1.4L12.6,5.28l1.28-.11"/><path class="g" d="M12.21,10.05s-1.16-3.93,3.27-4.49l-.16-.67-3.05.73-.89,2.92.22,1.91.61-.4"/><path class="h" d="M14,15.27l.72-.71a.48.48,0,0,1,.39.43c.05.39.22,3.93,2.6,5.84.22.17-1.77-.28-1.77-.28l-1.78-2.81"/><path class="h" d="M24.19,14.21s.12-1.71.58-1.57a.62.62,0,0,1,.45.58s-1.1.72-1,1"/><path class="i" d="M28.79,8s-.92.19-1,1,1,.17,1.16.11"/><path class="i" d="M22.08,8s-1.22.17-1.22,1,1.39.73,1.77.39"/><path class="h" d="M14.54,11.68s-2.1-1.29-2.33-.06-.72,2.14.34,3.43l-.72-.23-.67-1.74-.22-1.68,1.27-1.35,1.45.12.83.67,0,.84"/><path class="h" d="M15.54,8.15s.94-4.94,5.71-5.9c3.92-.78,6,.17,6.76,1.07,0,0-3.49-4.21-6.82-2.92s-5.76,3.65-5.71,5.16a24.58,24.58,0,0,1,.06,2.59"/><path class="h" d="M28.4,3.88s-1.61-.06-1.67,1.4a1,1,0,0,0,.12.45s1.27-1.46,2-.67"/><path class="h" d="M21.36,5.88S21.08,3.64,19.2,5c-1.22.84-1.11,2-.89,2.24s.16.68.33.37.11-1.32.72-1.6,1.61-.6,2-.08"/><path class="j" d="M16.15,21.05l-5.21,2.36S13.1,32.11,12,34.8l-.77-.28-.06-3.31L9.72,24.92l-.61-1.74,5.43-3.7,1.61,1.57"/><path class="j" d="M16.68,25.86l.74.92v3.36h-.88s-.11-2.35-.11-2.63.11-1.3.11-1.3"/><path class="j" d="M16.7,30.65l-2.49.11.72.5,1.77.29"/><path class="e" d="M25.24,30.09,27.29,30l.5,5.16-2.11.28-.44-5.38"/><path class="e" d="M25.79,30.09l3.11-.17s1.27-3.26,1.27-3.43,1.11-4.71,1.11-4.71l-2.49-2.64-.5-.45L27,20v5.22l-1.17,4.83"/><path class="j" d="M27.18,29.69l-1.94.4.28,1.57c.72.33,1.94-.56,1.94-.56"/><path class="j" d="M27.23,19.87l3.88,2.92.11-1.35-2.93-2.75-1.06,1.18"/><path class="k" d="M18.63,41.14l-1.15-4.71L16.91,33l-.1-2.58,5.2-.28h3.23L24.94,36l.5,4.54-.05.85-4.21.33-2.55-.56"/><path class="g" d="M24.52,30a50.21,50.21,0,0,0,.55,10A10.44,10.44,0,0,1,21,41.37l4.66-.17.55-.34-.66-9.2-.17-2"/><path class="k" d="M27.88,34.74,30,34.13l4.1-.23L34.75,32l-1.1-3.31-1.28-.16-1.77.56-1.7.84L28,29.75l-.7.28"/><path class="g" d="M27.84,33.62A8.3,8.3,0,0,1,29.51,33l-.61-3.08.72-.28s.5,2.92.5,3.25c0,0,3.1.17,3.38.17a5.22,5.22,0,0,0,.5-2.64l.6,1.8.06,1-.89,1.35-1,.22-1.67-.06L30.56,34l-1.94.29-.61.22"/><path class="l" d="M25.67,29.64,24.45,26.5l-1.28-1.86s.28-.78.67-.78h1.27l1.22.45-.11,2.07-.55,3.26"/><path class="g" d="M25.9,28.57a26.28,26.28,0,0,1-1.55-3.48s.28-.67.67-.5,1.22.61,1.22.61V24.14l-1.89-.39-1.27.16,2.16,5.17.44.05"/><path class="l" d="M19.13,21.16,17.59,21l-1.44-.45v.5l.7.79,2.22,1"/><path class="g" d="M16.65,21.33a6,6,0,0,0,2.27.56l.06.68-1.56-.34-.94-.67.17-.23"/><path class="a" d="M27.88,24.05a10.74,10.74,0,0,1-2.54-.35c.05-.31,0-.62,0-.84a1.93,1.93,0,0,1,.87-.18,1.44,1.44,0,0,0-1-.11,1.59,1.59,0,0,0-.16-.52c.53-.19,1.78-1.44,2.48-1,.33.2.47,1.33.5,1.88a2,2,0,0,1-.22,1.15"/><path class="m" d="M27.88,24.05a10.74,10.74,0,0,1-2.54-.35c.05-.31,0-.62,0-.84a1.93,1.93,0,0,1,.87-.18,1.44,1.44,0,0,0-1-.11,1.59,1.59,0,0,0-.16-.52c.53-.19,1.78-1.44,2.48-1,.33.2.47,1.33.5,1.88A2,2,0,0,1,27.88,24.05Z"/><path class="a" d="M23.38,22.49c0,.07,0,.15,0,.22-.29.2-.77.19-1.09.36a2.65,2.65,0,0,1,1.17.3c0,.18,0,.36,0,.54a20.69,20.69,0,0,1-1.66,1.28,4.38,4.38,0,0,1-1.67.52c-.18-.05-.2-.27-.27-.49a6.94,6.94,0,0,1-.54-1.87c0-.87-.12-2.33.8-2.15a8.43,8.43,0,0,1,2.2.81,2.15,2.15,0,0,0,1.09.48"/><path class="m" d="M23.38,22.49c0,.07,0,.15,0,.22-.29.2-.77.19-1.09.36a2.65,2.65,0,0,1,1.17.3c0,.18,0,.36,0,.54a20.69,20.69,0,0,1-1.66,1.28,4.38,4.38,0,0,1-1.67.52c-.18-.05-.2-.27-.27-.49a6.94,6.94,0,0,1-.54-1.87c0-.87-.12-2.33.8-2.15a8.43,8.43,0,0,1,2.2.81A2.15,2.15,0,0,0,23.38,22.49Z"/><path class="a" d="M23.91,23.53a3.51,3.51,0,0,1-.14-1c1.25-.84,1.49,1.44.14,1"/><path class="m" d="M23.91,23.53a3.51,3.51,0,0,1-.14-1C25,21.67,25.26,24,23.91,23.53Z"/><path class="n" d="M25.72,23.91s-.39-.56-.11-.73.55,0,.72-.28,0-.44.06-.78.33-.39.61-.45,1.05-.17,1.16.11l-.33-1-.67-.22-2.1,1.23-.12.62v1.23"/><path class="n" d="M19.9,25.77l-.21-2.63c-.12-1.31.31-1.08,1.42-1.08a2.89,2.89,0,0,1,1.12.34c.3.62-.51.49.35,1s2-.24,1.7-1.13c-.16-.2-.85-.06-1.1-.19l-1.29-.68c-.55-.29-1.83-.71-2.42-.31-1.48,1,.1,3.59.63,4.66"/><path class="o" d="M21.36,5.88c-1.51-.35-2.26.64-2.72,1.68-.41-.1-.25-.67-.14-.95A2.55,2.55,0,0,1,20.75,5c.38.06.9.41.61.89"/><path class="o" d="M28.72,7.63h.07a15.44,15.44,0,0,0,1.07,2.11c-.29.68-2.19,1.28-2.16.06.41-.18,1.12,0,1.49-.27a4,4,0,0,1-.47-1.9"/><path class="o" d="M22.13,7.64A6.44,6.44,0,0,0,23,9.33c.21.21.61.46.41,1a1.21,1.21,0,0,1-.58.5c-.72.21-2.4,0-1.83-.87.59,0,1.39.39,1.84,0-.34-.56-.95-1.65-.73-2.3"/><path class="o" d="M28.45,13.75a5.91,5.91,0,0,1-4.07,1.3,1.23,1.23,0,0,1-.15-1.57c.19.33.07.95.6,1,1,.18,2.18-.62,2.91-.9.45-.77,0-1-.45-1.55-.83-1-1.94-2.26-1.9-3.78.34-.24.37.38.42.49A13.85,13.85,0,0,0,28.12,12c.2.21.52.42.55.56.11.42-.26.92-.22,1.19"/><path class="o" d="M14.16,13c-.34-.19-.42-1.06-.82-1.08-.57,0-.46,1.12-.46,1.8a2.16,2.16,0,0,1-.17-2.05c-.33-.16-.48.18-.66.31.23-1.73,2.49-.8,2.11,1"/><path class="o" d="M29.14,14.47a3.15,3.15,0,0,1-2.7,2.08,4.06,4.06,0,0,1,0-1,7.78,7.78,0,0,0,2.7-1.09"/><path class="o" d="M22.05,15.1a9.26,9.26,0,0,0,4,.52,4.39,4.39,0,0,1,.07,1c-1.65.09-3.6-.33-4-1.5"/><path class="o" d="M21.87,16c.65,1.66,2.9,1.47,4.79,1.42a1,1,0,0,1-.49.56,4.76,4.76,0,0,1-3.12,0,4.24,4.24,0,0,1-1.17-1.32c-.14-.18-.85-.65,0-.65"/><path class="p" d="M28.37,25.19A34.09,34.09,0,0,1,26,29.06a18.46,18.46,0,0,0,.6-4.48,1.39,1.39,0,0,1,1.81.61"/><path class="o" d="M32.49,30c-.85.17-1.46,1-2.29,1a2.73,2.73,0,0,1,2.29-1"/><path class="o" d="M32.87,31.33a12.78,12.78,0,0,1-2.23.13c.34-.52,1.63-.34,2.23-.13"/><path class="o" d="M33.11,32.5c-.78,0-1.76,0-2.51-.06.45-.48,2-.18,2.51.06"/><path class="g" d="M26.89,35.71a18.08,18.08,0,0,1,.46,3.1,3.21,3.21,0,0,1-1.27.28c0-.93-.16-2.35-.13-3.24.29,0,.71-.2.94-.14"/><path class="d" d="M25.63,21c-.4.26-.73.59-1.11.87a2.44,2.44,0,0,1-1.92-.55s.07,0,.07-.07c.9.41,2-.17,3-.25"/><path class="p" d="M20.9,27.19c.25-1.08,1.22-1.65,2.1-2.24a17.79,17.79,0,0,1,2.07,4.11,21.21,21.21,0,0,1-4.17-1.87"/><path class="o" d="M26,35.85c0,.89.09,2.31.13,3.24a3.21,3.21,0,0,0,1.27-.28,18.08,18.08,0,0,0-.46-3.1C26.66,35.65,26.24,35.87,26,35.85Zm-9.06-5a46.57,46.57,0,0,0,2,9.74,12.53,12.53,0,0,0,7,.13c-.37-1.79-.21-4-.42-5.87-.16-1.43-.08-2.87-.3-4.33A23.71,23.71,0,0,0,16.89,30.81Zm8.8-.31c0,1.54.07,3,.19,4.59.58-.09,1-.15,1.51-.27a32.15,32.15,0,0,0-.51-4.45A3.46,3.46,0,0,0,25.69,30.5Zm2.95-.25a3.54,3.54,0,0,0-.86,0c.13,1.25.43,2.63.53,3.94a3.52,3.52,0,0,0,1-.25,8,8,0,0,0-.65-3.7Zm4.47,4.14A2,2,0,0,0,34.28,32a11.37,11.37,0,0,0-.76-2.61c-.23-.35-.85-.81-1.34-.49-.81.53-2.23.68-2.82,1.31a20.62,20.62,0,0,1,.51,3.62c1,.06,2.25-.28,3.08.08a11.64,11.64,0,0,0-1.85.47,3.78,3.78,0,0,0,2,0Zm-8-5.33A17.79,17.79,0,0,0,23,25c-.88.59-1.85,1.16-2.1,2.24A21.21,21.21,0,0,0,25.07,29.06Zm1.49-4.48a18.46,18.46,0,0,1-.6,4.48,34.09,34.09,0,0,0,2.41-3.87A1.39,1.39,0,0,0,26.56,24.58ZM24.87,24c-.35,0-.64.4-1.09.21-.1.11-.19.24-.3.35,1,1.21,1.44,2.92,2.2,4.34a19.31,19.31,0,0,0,.46-4.34C25.57,24.56,25.26,24,24.87,24Zm-1.1-1.46a3.51,3.51,0,0,0,.14,1C25.26,24,25,21.67,23.77,22.51ZM22.29,22a8.43,8.43,0,0,0-2.2-.81c-.92-.18-.84,1.28-.8,2.15a6.94,6.94,0,0,0,.54,1.87c.07.22.09.44.27.49a4.38,4.38,0,0,0,1.67-.52,20.69,20.69,0,0,0,1.66-1.28c0-.18,0-.36,0-.54a2.65,2.65,0,0,0-1.17-.3c.32-.17.8-.16,1.09-.36,0-.07,0-.15,0-.22A2.15,2.15,0,0,1,22.29,22Zm-5.53-1c-.48.49,1.35,1.16,1.93,1.2,0-.31.18-.61.14-.83A6,6,0,0,1,16.76,21Zm5.91.23c0,.05-.06,0-.07.07a2.44,2.44,0,0,0,1.92.55c.38-.28.71-.61,1.11-.87C24.72,21.06,23.57,21.64,22.67,21.23ZM28.1,22.9c0-.55-.17-1.68-.5-1.88-.7-.41-2,.84-2.48,1a1.59,1.59,0,0,1,.16.52,1.44,1.44,0,0,1,1,.11,1.93,1.93,0,0,0-.87.18c-.07.22,0,.53,0,.84a10.74,10.74,0,0,0,2.54.35A2,2,0,0,0,28.1,22.9ZM16,21.47c-.16-.1-1.17-1.45-1.31-1.39a22,22,0,0,0-5.11,3.21A28.64,28.64,0,0,1,11.7,34.17c1.69.79,3.16,1.94,5.45,2.06-.27-1.89-.51-3.58-.66-5.36-.57-.25-1.39,0-1.93-.08,0-.65.82-.28.89-.73s-.46-.35-.29-.88c.42.16.64.5,1.09.62.41-.9,0-2.51.05-3.26,0-.14.07-.79.38-.68s0,1.72,0,2.44A3.88,3.88,0,0,0,16.88,30a64.57,64.57,0,0,1,6.84-.57,15.09,15.09,0,0,1-1.83-.83c-.37-.21-1.54-.65-1.65-1-.17-.57.45-.87.56-1.36-1.12.62-1.34-.59-1.6-1.44a11.12,11.12,0,0,1-.43-1.8A18,18,0,0,1,16,21.47Zm11.17-1.23c1.53-.75,1.81,2.82,1.21,4,.09.35.41.48.54.79-.86,1.55-1.81,3-2.68,4.54.65-.41,1.58-.07,2.34-.38.28-.11.48-.76.7-1.28a28.24,28.24,0,0,0,1.46-4.59A5.87,5.87,0,0,0,30.9,22c-.07-.49-.73-.86-1.07-1.16-.62-.57-1-1.07-1.66-1.59-.27.39-.83.65-1,1ZM12.44,6.44c-.73.82-.58,2.35-.49,3.43A2,2,0,0,1,15,11.37c.64,0,.24-.79.13-1.3-.38-1.64.63-3.43,0-4.94a4,4,0,0,0-2.74,1.31Zm5.24-4.73C16,2.18,13.9,3.4,13.22,4.91c.52-.08.89-.35,1.41-.38a3.79,3.79,0,0,0,.68,0c.45-.12.83-1.14,1.17-1.52s.73-.53,1-.87c.18-.08.44-.08.45-.34C17.85,1.74,17.77,1.68,17.68,1.71Zm8.63.44c-1.72-1-4.63-1.72-6.46-.79-1.48.74-3.48,2-4.16,3.54.64,1.51-.19,2.89-.24,4.42,0,.82.38,1.53.41,2.42-.22.36-.88.4-1.34.38-.16-.79-.43-1.67-1.22-1.76a1.87,1.87,0,0,0-2,1.81c-.06,1.17.88,3.09,2.22,3,.51-.05.64-.58,1.2-.57.31.62-.47.81-.55,1.25a3.73,3.73,0,0,0,.12.77,10.53,10.53,0,0,0,1.31,3.1c.68,1,2,1.13,3.44,1.23.25-.56,1.19-.52,1.81-.37a6,6,0,0,1-2-1.64,4.12,4.12,0,0,1-1.34-2.45c1.23,1.72,2.24,3.23,4.48,4,1.69.57,3.66-.26,5-1.19a5.58,5.58,0,0,0,1.24-1.55,13.31,13.31,0,0,0,2-7.95,9.05,9.05,0,0,0-.46-3.18c-.41-.83-1.8-1.58-2.62-.83-.15-.81.68-1.31,1.65-1a9.25,9.25,0,0,0-2.41-2.57ZM29.52,29c1.34-.68,3.85-1.82,4.7,0a15.59,15.59,0,0,1,.83,2.5c.23,1-.24,3-1.24,3.37a5.89,5.89,0,0,1-3,.06,1.88,1.88,0,0,1-.36-.48,4.1,4.1,0,0,0-2.06.35c.06.57-.32.66-.67.78-.26,1,.52,2.43.33,3.39-.13.68-1,.79-1.57.92a5.54,5.54,0,0,0,.06,1,1.51,1.51,0,0,1-1.36.89,16.93,16.93,0,0,1-6.8-.34c-.53-1.3-.94-2.89-1.38-4.38-1.83.2-3.31-.8-4.71-1.45-.49-.23-1.16-.36-1.34-.75a6.83,6.83,0,0,1-.14-1.78,27.05,27.05,0,0,0-.67-5.22c-.2-.81-.56-1.51-.8-2.29a15.6,15.6,0,0,1-.74-2.32c-.16-1.05.83-1.11,1.46-1.57,1-.71,1.74-1.11,2.79-1.75a6.28,6.28,0,0,0,1.36-.89c.22-.44-.36-1-.52-1.4a4.19,4.19,0,0,1-.4-1.54,2.92,2.92,0,0,1-2-1.28,4.93,4.93,0,0,1-.55-4.23c0-.11.27-.33.31-.5A6.58,6.58,0,0,0,11,9c-.06-1.82.3-3.39,1.51-3.94.49-2,2.25-2.64,3.91-3.62a12.56,12.56,0,0,1,2-.87c2.52-.94,6.4-.76,8.5.85a11.53,11.53,0,0,1,2.82,3.16C31.08,7.33,31,11.92,30,15.27a10.73,10.73,0,0,1-.56,1.65c-.18.38-.74,1.13-.67,1.46s1.27,1.26,1.52,1.51c.46.46,1.34,1.05,1.41,1.62a5.52,5.52,0,0,1-.44,2c-.57,1.95-1.13,3.75-1.78,5.49"/><path class="h" d="M20.55,15.53c.07-.1.47-.25,1,0,0,0-.66.11-.61,1.24l-.28-.06s-.28-1-.14-1.2"/><path class="q" d="M25.4,25.18a.3.3,0,0,1-.6,0,.3.3,0,1,1,.6,0"/><path class="q" d="M25.71,26.61a.31.31,0,1,1-.31-.31.31.31,0,0,1,.31.31"/><rect class="r" width="42" height="42"/></svg>