<?xml version="1.0" encoding="UTF-8"?>
<svg width="378px" height="420px" viewBox="0 0 378 420" version="1.1" xmlns="http://www.w3.org/2000/svg" xmlns:xlink="http://www.w3.org/1999/xlink">
    <!-- Generator: Sketch 51.3 (57544) - http://www.bohemiancoding.com/sketch -->
    <title>Group</title>
    <desc>Created with Sketch.</desc>
    <defs>
        <path d="M149.650859,10.6291978 L37.9551813,76.3314074 C14.4395661,90.1647388 0,115.409957 0,142.692264 L0,276.605481 C0,303.889535 14.4395661,329.131259 37.9551813,342.966337 L149.650859,408.668547 C161.597351,415.695278 174.965961,419.238344 188.3468,419.297745 L189.026412,419.297745 C202.405504,419.238344 215.775861,415.695278 227.720605,408.668547 L339.41803,342.966337 C362.933645,329.131259 377.373212,303.889535 377.373212,276.605481 L377.373212,142.692264 C377.373212,115.409957 362.933645,90.1647388 339.41803,76.3314074 L227.720605,10.6291978 C215.67453,3.54306594 202.180131,0 188.685732,0 C175.19308,0 161.698681,3.54306594 149.650859,10.6291978" id="path-1"></path>
        <linearGradient x1="-0.818369606%" y1="52.3969777%" x2="100.818123%" y2="47.6030227%" id="linearGradient-3">
            <stop stop-color="#8200FF" offset="0%"></stop>
            <stop stop-color="#00BCC3" offset="100%"></stop>
        </linearGradient>
    </defs>
    <g id="Page-1" stroke="none" stroke-width="1" fill="none" fill-rule="evenodd">
        <g id="Group">
            <g id="Group-3">
                <mask id="mask-2" fill="white">
                    <use xlink:href="#path-1"></use>
                </mask>
                <g id="Clip-2"></g>
                <path d="M149.650859,10.6291978 L37.9551813,76.3314074 C14.4395661,90.1647388 0,115.409957 0,142.692264 L0,276.605481 C0,303.889535 14.4395661,329.131259 37.9551813,342.966337 L149.650859,408.668547 C161.597351,415.695278 174.965961,419.238344 188.3468,419.297745 L189.026412,419.297745 C202.405504,419.238344 215.775861,415.695278 227.720605,408.668547 L339.41803,342.966337 C362.933645,329.131259 377.373212,303.889535 377.373212,276.605481 L377.373212,142.692264 C377.373212,115.409957 362.933645,90.1647388 339.41803,76.3314074 L227.720605,10.6291978 C215.67453,3.54306594 202.180131,0 188.685732,0 C175.19308,0 161.698681,3.54306594 149.650859,10.6291978" id="Fill-1" fill="url(#linearGradient-3)" mask="url(#mask-2)"></path>
            </g>
            <path d="M337.074855,161.585645 C337.069613,160.719097 336.866953,159.842066 336.403978,159.034917 C334.971378,156.552325 331.803933,155.706742 329.321341,157.134101 L329.321341,157.132354 L235.777761,211.075009 C215.424349,224.585132 201.915974,247.111903 201.898503,268.47687 L201.898503,339.15824 C201.896756,342.71703 203.126696,346.052194 204.784669,348.927878 C208.168751,354.798046 214.500147,358.756916 221.745263,358.765651 C226.205543,358.762157 229.016585,357.967238 233.310892,355.491635 L294.261061,320.32653 C330.989796,299.410561 335.78202,291.823019 336.994489,252.781158 L337.097567,161.599622 L337.074855,161.585645 Z M129.382705,194.318823 L69.3916803,159.653382 C66.3709894,157.908055 63.0742609,157.081689 59.8177151,157.081689 C53.17534,157.081689 46.7129135,160.51993 43.1593651,166.669631 C40.9772698,170.459034 40.274946,173.236882 40.274946,178.097241 L40.274946,252.08757 C40.4479064,289.18319 45.519662,297.16033 76.7189084,316.465497 L154.09856,361.208061 L154.119525,361.195831 C154.860284,361.615129 155.704121,361.875443 156.614347,361.875443 C159.423641,361.875443 161.69309,359.599005 161.698332,356.789711 L161.698332,356.787963 L161.701826,250.91703 C160.197595,227.011817 147.515585,204.796025 129.382705,194.318823 Z M293.616391,133.080387 C296.699976,131.280901 299.110938,128.772103 300.765417,125.878948 C304.140764,119.977333 304.369631,112.48588 300.713005,106.201655 C298.455785,102.337127 296.34532,100.301786 292.026553,97.8314234 L231.214404,62.7868673 C194.511874,41.5267245 185.121352,41.4813006 150.676042,60.1749917 L71.5091339,105.913387 L71.5091339,105.939593 C70.7596392,106.38335 70.1009923,107.001814 69.6380177,107.812457 C68.2089112,110.307278 69.078954,113.481712 71.5702815,114.912565 L165.624007,168.72419 C187.624909,179.53683 213.804812,179.557795 232.329037,168.767866 L293.616391,133.080387 Z" id="Fill-4" fill="#FFFFFF"></path>
        </g>
    </g>
</svg>