<?xml version="1.0" encoding="utf-8"?>
<!-- Generator: Adobe Illustrator 17.0.0, SVG Export Plug-In . SVG Version: 6.00 Build 0)  -->
<!DOCTYPE svg PUBLIC "-//W3C//DTD SVG 1.1//EN" "http://www.w3.org/Graphics/SVG/1.1/DTD/svg11.dtd">
<svg version="1.1" id="Слой_1" xmlns="http://www.w3.org/2000/svg" xmlns:xlink="http://www.w3.org/1999/xlink" x="0px" y="0px"
	 width="385.259px" height="53.725px" viewBox="0 0 385.259 53.725" enable-background="new 0 0 385.259 53.725"
	 xml:space="preserve">
<g>
	<path d="M265.712,31.775h-8.451l-2.3,11.101h-2.2l7.601-35.752h2.6l7.55,35.752h-2.45L265.712,31.775z M257.661,29.724h7.65
		l-3.1-14.751c-0.3-1.55-0.55-3.55-0.6-4.75h-0.1c-0.15,1.2-0.5,3.051-0.8,4.7L257.661,29.724z"/>
	<path d="M287.512,42.875H273.81l-0.3,4.95h-1.851v-6.851h1.051c1.55-0.85,2.5-4.3,3-9.051c0.649-6.2,0.75-14.251,0.75-14.251h10.9
		v23.302h2.3v6.851h-1.85L287.512,42.875z M275.36,40.975h9.601V19.574h-6.4c0,0-0.149,7.051-0.8,12.901
		C277.31,36.675,276.661,39.475,275.36,40.975z"/>
	<path d="M296.71,25.074c-0.45-1.649-0.7-3.1-0.95-4.7h-0.199c0,1.65,0.1,3.251,0,5.4l-0.601,17.102h-2l1-25.202h2.95l3.9,15.001
		c0.45,1.7,0.7,3.351,0.8,4.751h0.15c0.1-1.4,0.399-3.051,0.85-4.751l3.95-15.001h3.001l1,25.202h-2.351l-0.6-17.102
		c-0.101-2.05,0-3.75,0-5.45h-0.2c-0.25,1.75-0.55,3.2-0.95,4.75l-3.851,14.802h-1.95L296.71,25.074z"/>
	<path d="M327.16,25.324c0-1.3,0.1-2.399,0.2-3.45h-0.15c-0.35,1.101-0.8,2.15-1.35,3.251l-8.201,17.751h-2V17.673h2.2v17.501
		c0,1.351-0.1,2.45-0.2,3.551h0.15c0.35-1.15,0.851-2.25,1.351-3.351l8.2-17.701h2.05v25.202h-2.25V25.324z"/>
	<path d="M346.01,30.724h-8.601v12.151h-2.35V17.673h2.35v11.151h8.601V17.673h2.351v25.202h-2.351V30.724z"/>
	<path d="M356.308,42.875h-2.35V17.673h2.35v11.852l8.45-11.852h2.301l-8.301,11.701l8.9,13.501h-2.6l-8.751-13.051V42.875z"/>
	<path d="M380.46,39.475c-1.2,2.4-3,3.9-5.5,3.9c-3.4,0-5.751-2.7-5.751-7.301c0-5.4,2.95-8.2,8.4-8.2h2.751v-3.15
		c0-3.851-1.45-5.5-4.2-5.5c-2.15,0-4.101,1-5.301,2.75l-0.65-2.25c1-1.301,3.101-2.551,5.951-2.551c4.149,0,6.5,2.301,6.5,7.301
		v13.751c0,1.75,0.25,3.7,0.55,4.65h-2.15C380.86,42.225,380.61,41.275,380.46,39.475z M380.36,36.525v-6.95h-2.7
		c-4.15,0-6.15,1.899-6.15,6.3c0,3.551,1.55,5.601,3.95,5.601C377.809,41.475,379.46,39.225,380.36,36.525z"/>
</g>
<g>
	<path fill="#201600" d="M0,43.322C0,31.882,0,20.49,0,9.064c3.254,0,6.491,0,9.799,0c0,4.474,0,8.954,0,13.486
		c0.287,0,0.507-0.021,0.721,0.005c0.342,0.041,0.513-0.1,0.661-0.409c1.038-2.165,2.09-4.323,3.151-6.477
		c0.686-1.391,1.365-2.788,2.102-4.152c0.774-1.433,2.102-2.1,3.641-2.369c0.633-0.111,1.291-0.109,1.938-0.112
		c2.374-0.012,4.748-0.005,7.212-0.005c-0.114,0.205-0.197,0.361-0.288,0.513c-1.775,2.973-3.556,5.942-5.324,8.919
		c-1.253,2.109-2.495,4.225-3.724,6.349c-0.09,0.155-0.113,0.44-0.031,0.589c3.069,5.492,6.154,10.975,9.238,16.458
		c0.03,0.054,0.081,0.096,0.186,0.218c0-7.783,0-15.475,0-23.21c2.882,0,5.719,0,8.614,0c0,3.997,0,7.965,0,11.932
		c0.031,0.009,0.061,0.017,0.092,0.026c0.1-0.147,0.203-0.291,0.299-0.441c1.753-2.746,3.529-5.478,5.246-8.247
		c0.931-1.502,2.279-2.315,3.921-2.825c2.048-0.637,4.13-0.465,6.254-0.483c0,8.183,0,16.321,0,24.493c-2.827,0-5.637,0-8.513,0
		c0-3.984,0-7.966,0-11.947c-0.041-0.013-0.082-0.026-0.123-0.038c-0.094,0.148-0.188,0.297-0.283,0.445
		c-1.804,2.814-3.619,5.622-5.41,8.445c-1.117,1.76-2.778,2.678-4.767,2.916c-1.67,0.2-3.369,0.199-5.056,0.218
		c-2.665,0.029-5.33-0.001-7.995-0.003c-2.251-0.002-3.922-0.963-4.986-2.967c-1.702-3.207-3.444-6.394-5.104-9.623
		c-0.38-0.739-0.806-1.024-1.651-0.763c0,4.394,0,8.84,0,13.319C6.517,43.322,3.282,43.322,0,43.322z"/>
	<path fill="#201600" d="M139.216,9.058c0,11.425,0,22.827,0,34.263c-3.248,0-6.468,0-9.744,0c0-8.963,0-17.922,0-26.923
		c-3.273,0-6.491,0-9.764,0c0,8.971,0,17.93,0,26.923c-3.277,0-6.498,0-9.765,0c0-11.407,0-22.821,0-34.262
		C119.695,9.058,129.44,9.058,139.216,9.058z"/>
	<path fill="#201600" d="M192.927,43.327c-2.848,0-5.658,0-8.518,0c0-3.995,0-7.965,0-11.935c-0.037-0.015-0.074-0.031-0.111-0.046
		c-0.094,0.146-0.187,0.292-0.281,0.438c-1.795,2.8-3.602,5.593-5.38,8.404c-1.091,1.724-2.7,2.675-4.648,2.932
		c-1.782,0.236-3.597,0.226-5.442,0.327c0-8.272,0-16.41,0-24.587c2.84,0,5.665,0,8.548,0c0,3.998,0,7.984,0,11.971
		c0.037,0.013,0.074,0.025,0.112,0.038c0.176-0.279,0.35-0.559,0.528-0.837c1.651-2.589,3.337-5.157,4.941-7.775
		c1.048-1.71,2.588-2.565,4.461-3.067c1.865-0.5,3.747-0.328,5.627-0.357c0.046-0.001,0.093,0.029,0.165,0.053
		C192.927,27.026,192.927,35.163,192.927,43.327z"/>
	<path fill="#201600" d="M64.723,18.822c0,2.888,0,5.749,0,8.622c2.47,0,4.872,0,7.329,0c0-2.886,0-5.746,0-8.63
		c2.865,0,5.674,0,8.519,0c0,8.17,0,16.31,0,24.496c-2.816,0-5.624,0-8.499,0c0-2.801,0-5.624,0-8.473c-2.47,0-4.872,0-7.34,0
		c0,2.825,0,5.634,0,8.48c-2.875,0-5.685,0-8.539,0c0-8.148,0-16.303,0-24.495C58.994,18.822,61.804,18.822,64.723,18.822z"/>
	<path fill="#201600" d="M108.697,31.151c0,7.476-6.013,13.436-13.553,13.435c-7.338-0.002-13.335-6.081-13.339-13.51
		c-0.004-7.433,6.361-13.54,13.543-13.502C102.375,17.61,108.803,23.7,108.697,31.151z M95.192,37.238
		c3.403-0.002,6.185-2.732,6.18-6.061c-0.006-3.362-2.785-6.153-6.117-6.144c-3.359,0.01-6.086,2.769-6.085,6.158
		C89.169,34.582,91.817,37.24,95.192,37.238z"/>
	<path fill="#201600" d="M167.335,31.138c-0.038,7.413-5.897,13.341-13.195,13.431c-7.638,0.094-13.692-5.913-13.713-13.432
		c-0.02-7.528,6.379-13.502,13.33-13.565C160.941,17.508,167.381,23.636,167.335,31.138z M153.79,37.238
		c3.402,0.007,6.189-2.703,6.209-6.038c0.02-3.342-2.762-6.157-6.096-6.167c-3.348-0.011-6.102,2.754-6.109,6.133
		C147.786,34.567,150.416,37.231,153.79,37.238z"/>
	<path fill="#201600" d="M241.688,43.274c-2.456,0-4.866,0.089-7.267-0.029c-1.809-0.089-3.22-1.009-4.068-2.688
		c-1.083-2.145-2.208-4.269-3.274-6.423c-0.254-0.514-0.556-0.671-1.128-0.484c0,3.2,0,6.418,0,9.67c-2.865,0-5.675,0-8.533,0
		c0-8.158,0-16.31,0-24.499c2.813,0,5.624,0,8.49,0c0,3.249,0,6.502,0,9.738c0.749,0.222,0.832,0.18,1.157-0.452
		c1.091-2.122,2.2-4.235,3.277-6.364c0.694-1.373,1.821-2.138,3.257-2.594c0.942-0.299,1.884-0.37,2.852-0.366
		c1.741,0.009,3.482,0.003,5.339,0.003c-0.136,0.271-0.222,0.481-0.34,0.671c-2.253,3.64-4.504,7.281-6.773,10.912
		c-0.208,0.333-0.219,0.563-0.015,0.908c2.274,3.846,4.527,7.703,6.785,11.558C241.534,42.978,241.609,43.127,241.688,43.274z"/>
	<path fill="#201600" d="M214.883,28.655c-1.295-0.805-2.583-1.543-3.805-2.378c-3.757-2.568-8.848-0.443-9.507,4.06
		c-0.373,2.552,0.561,4.667,2.767,6.06c2.182,1.377,4.429,1.3,6.608-0.077c1.311-0.829,2.595-1.7,3.949-2.59
		c0.02,0.182,0.045,0.306,0.045,0.43c0.002,2.597-0.004,5.194,0.009,7.791c0.001,0.313-0.098,0.496-0.364,0.657
		c-7.946,4.82-18.212,0.437-20.108-8.711c-1.26-6.076,1.529-11.775,6.957-14.728c3.831-2.084,7.711-2.026,11.648-0.408
		c0.603,0.248,1.144,0.65,1.698,1.004c0.1,0.064,0.18,0.243,0.181,0.369c0.004,2.785-0.004,5.569-0.011,8.354
		C214.95,28.518,214.927,28.547,214.883,28.655z"/>
</g>
<g>
</g>
<g>
</g>
<g>
</g>
<g>
</g>
<g>
</g>
<g>
</g>
</svg>
