<?xml version="1.0" encoding="utf-8"?>
<!-- Generator: Adobe Illustrator 17.0.0, SVG Export Plug-In . SVG Version: 6.00 Build 0)  -->
<!DOCTYPE svg PUBLIC "-//W3C//DTD SVG 1.1//EN" "http://www.w3.org/Graphics/SVG/1.1/DTD/svg11.dtd">
<svg version="1.1" id="Слой_1" xmlns="http://www.w3.org/2000/svg" xmlns:xlink="http://www.w3.org/1999/xlink" x="0px" y="0px"
	 width="53.139px" height="20.345px" viewBox="0 0 53.139 20.345" enable-background="new 0 0 53.139 20.345" xml:space="preserve">
<g>
	<path fill="#FF0000" d="M5.273,11.022l-3.049,6.848H0l3.349-7.323c-1.575-0.8-2.625-2.25-2.625-4.924C0.725,1.875,3.099,0,5.923,0
		h2.875v17.871H6.873v-6.848H5.273z M6.873,1.625H5.849c-1.55,0-3.049,1.025-3.049,3.999c0,2.875,1.375,3.799,3.049,3.799h1.024
		V1.625z"/>
	<path d="M18.073,5.274v12.597h-1.924v-5.648h-2.899v5.648h-1.95V5.274h1.95v5.349h2.899V5.274H18.073z M28.095,20.345h-1.75v-2.475
		h-5.398v2.475h-1.75v-4.074h0.774c1.15-2.674,1.275-6.573,1.275-9.922V5.274h5.849v10.997h1V20.345z M25.171,6.848h-2.174v0.225
		c0,2.649-0.125,6.523-1.175,9.198h3.349V6.848z M33.469,18.045c-2.6,0-4.199-2.074-4.199-5.948c0-4.049,1.125-6.999,3.799-6.999
		c2.099,0,3.474,1.575,3.474,5.849v1.075h-5.249c0,2.85,0.8,4.349,2.35,4.349c1.1,0,1.975-0.5,2.475-0.85l0.45,1.5
		C35.769,17.646,34.719,18.045,33.469,18.045z M31.32,10.422h3.224c0-2.149-0.35-3.724-1.475-3.724
		C31.87,6.698,31.445,8.173,31.32,10.422z M40.492,11.597v6.273h-1.949V5.274h1.949v5.823l3.024-5.823h1.975l-3.125,5.923
		l3.574,6.673h-2.125L40.492,11.597z M46.191,11.572c0-3.949,1.525-6.474,4.474-6.474c1.125,0,1.774,0.3,2.324,0.65l-0.275,1.85
		c-0.525-0.45-1.274-0.875-2.074-0.875c-1.4,0-2.399,1.575-2.399,4.749c0,3.149,0.75,4.949,2.324,4.949
		c0.95,0,1.675-0.375,2.125-0.775l0.45,1.45c-0.675,0.575-1.475,0.95-2.624,0.95C47.815,18.045,46.191,15.871,46.191,11.572z"/>
</g>
<g>
</g>
<g>
</g>
<g>
</g>
<g>
</g>
<g>
</g>
<g>
</g>
</svg>
