<svg id="Layer_2" data-name="Layer 2" xmlns="http://www.w3.org/2000/svg" viewBox="0 0 39 43"><defs><style>.cls-1{fill:#2ba9e0;}</style></defs><title>Drupal</title><path class="cls-1" d="M18.9,26a6.63,6.63,0,1,0,6.63,6.63A6.63,6.63,0,0,0,18.9,26Z"/><path class="cls-1" d="M27.15,24.73A11.42,11.42,0,0,1,25.42,42a19.21,19.21,0,0,0,12-10.78c2.8-6.89.18-12.07-4.19-16.77a8.33,8.33,0,0,1,.21,1.88A8.75,8.75,0,0,1,27.15,24.73Z"/><path class="cls-1" d="M19.65,16.35a5.08,5.08,0,1,0,5.08-5.07A5.07,5.07,0,0,0,19.65,16.35Z"/><path class="cls-1" d="M10.16,40A11.42,11.42,0,0,1,17.54,21.3,8.72,8.72,0,0,1,25.9,7.7a67.78,67.78,0,0,1-8-7.7C19.09,12,7,7.62,2.58,18.66A17.45,17.45,0,0,0,10.16,40Z"/></svg>