<?xml version="1.0" encoding="utf-8"?>
<!-- Generator: Adobe Illustrator 23.0.3, SVG Export Plug-In . SVG Version: 6.00 Build 0)  -->
<svg version="1.1" id="Layer_1" xmlns="http://www.w3.org/2000/svg" xmlns:xlink="http://www.w3.org/1999/xlink" x="0px" y="0px"
	 width="38px" height="39px" viewBox="0 0 38 39" enable-background="new 0 0 38 39" xml:space="preserve">
<linearGradient id="SVGID_1_" gradientUnits="userSpaceOnUse" x1="2.9677" y1="35.558" x2="34.0649" y2="4.4608">
	<stop  offset="0" style="stop-color:#52CCCB"/>
	<stop  offset="1" style="stop-color:#1A8FFC"/>
</linearGradient>
<path fill-rule="evenodd" clip-rule="evenodd" fill="url(#SVGID_1_)" d="M37.996,10.419C37.778,4.765,33.017,0.101,27.366,0.002
	c-0.982-0.018-1.926,0.105-2.816,0.348L10.241,3.534C5.744,4.596,2.395,8.299,1.818,12.97v-0.002L0.077,26.935
	c-0.067,0.534-0.091,1.085-0.068,1.648C0.227,34.238,4.986,38.901,10.637,39c0.864,0.016,2.486-0.264,2.486-0.264l14.359-3.172
	l0.003-0.004c4.576-0.956,8.029-4.618,8.691-9.284l1.767-14.354C37.944,11.922,38.017,10.93,37.996,10.419z"/>
<g>
	<polygon fill-rule="evenodd" clip-rule="evenodd" fill="#FFFFFF" points="29,15.054 20,18.966 20,29.5 29,25.588 	"/>
	<polygon fill-rule="evenodd" clip-rule="evenodd" fill="#FFFFFF" points="9,15.054 18,18.966 18,29.5 9,25.588 	"/>
	<polygon fill-rule="evenodd" clip-rule="evenodd" fill="#FFFFFF" points="28.203,13 19,9 9.797,13 19,17 	"/>
</g>
</svg>
