<svg xmlns="http://www.w3.org/2000/svg" xmlns:xlink="http://www.w3.org/1999/xlink" viewBox="0 0 38 39"><defs><style>.a{fill-rule:evenodd;opacity:0.96;fill:url(#a);}.b{isolation:isolate;}.c{fill:#fff;}</style><linearGradient id="a" x1="2.97" y1="35.56" x2="34.07" y2="4.46" gradientUnits="userSpaceOnUse"><stop offset="0" stop-color="#feba29"/><stop offset="1" stop-color="#f8a23b"/></linearGradient></defs><title>LAMP</title><path class="a" d="M38,10.42A11,11,0,0,0,27.37,0a10,10,0,0,0-2.82.35L10.24,3.53A11,11,0,0,0,1.82,13h0l-1.74,14A9.86,9.86,0,0,0,0,28.58,11,11,0,0,0,10.64,39a17.7,17.7,0,0,0,2.48-.26l14.36-3.18h0a11,11,0,0,0,8.69-9.28l1.76-14.36S38,10.93,38,10.42Z"/><g class="b"><path class="c" d="M9.78,23.42H4.68v-8H6.25v6.67H9.68v1.3Z"/></g><g class="b"><path class="c" d="M13.11,15.45h2l2.78,8H16.27l-.65-2H12.37l-.65,2H10.33Zm2,4.72L14,16.84l-1.2,3.33Z"/><path class="c" d="M25.44,17.76,23.5,22.12H22.11l-1.86-4.45v5.65H18.86V15.45h2l2,5,2.22-5h1.95v8H25.54V17.76Z"/><path class="c" d="M28.59,15.45h2.69a4.41,4.41,0,0,1,2.41.55A2.16,2.16,0,0,1,34.53,18a4.79,4.79,0,0,1-.19,1.2,2,2,0,0,1-.65.84,3.41,3.41,0,0,1-1,.46,5.56,5.56,0,0,1-1.29.19h-1v2.78H28.59Zm1.58,1.29v2.51h1A2.16,2.16,0,0,0,32.4,19a1.23,1.23,0,0,0,.46-1,1,1,0,0,0-.37-.93,2.16,2.16,0,0,0-1.21-.28Z"/></g></svg>