<svg id="Layer_2" data-name="Layer 2" xmlns="http://www.w3.org/2000/svg" viewBox="0 0 34 34"><defs><style>.cls-1{fill:#f9a541;}.cls-2{fill:#7ac143;}.cls-3{fill:#5091cd;}.cls-4{fill:#f44321;}</style></defs><title>Joomla</title><path class="cls-1" d="M24.82,9.18a3.13,3.13,0,0,1,.31,4l3,3A7.36,7.36,0,0,0,29.56,9,4.51,4.51,0,1,0,25,4.43,7.34,7.34,0,0,0,17.4,6.19l-7.16,7.15,3,3,7.15-7.16A3.14,3.14,0,0,1,24.82,9.18Z"/><path class="cls-2" d="M9.36,9.18a3.11,3.11,0,0,1,4-.31l3-3A7.36,7.36,0,0,0,9.18,4.44,4.51,4.51,0,1,0,4.6,9,7.34,7.34,0,0,0,6.36,16.6l7.15,7.16,3-3L9.36,13.61A3.14,3.14,0,0,1,9.36,9.18Z"/><path class="cls-3" d="M9.36,24.64a3.12,3.12,0,0,1-.32-4l-3-3a7.36,7.36,0,0,0-1.41,7.22A4.51,4.51,0,1,0,9.18,29.4a7.36,7.36,0,0,0,7.6-1.76l7.15-7.15-3-3-7.15,7.15A3.13,3.13,0,0,1,9.36,24.64Z"/><path class="cls-4" d="M24.82,24.64a3.13,3.13,0,0,1-4,.32l-3,3A7.36,7.36,0,0,0,25,29.39a4.51,4.51,0,1,0,4.58-4.57,7.36,7.36,0,0,0-1.76-7.6l-7.15-7.15-3,3,7.16,7.15A3.13,3.13,0,0,1,24.82,24.64Z"/></svg>