<svg xmlns="http://www.w3.org/2000/svg" xmlns:xlink="http://www.w3.org/1999/xlink" viewBox="0 0 38 39"><defs><style>.a{fill-rule:evenodd;fill:url(#a);}</style><linearGradient id="a" x1="2.97" y1="35.56" x2="34.07" y2="4.46" gradientUnits="userSpaceOnUse"><stop offset="0" stop-color="#52aaff"/><stop offset="1" stop-color="#1a86fc"/></linearGradient></defs><title>Asset 5</title><path class="a" d="M17,28v3.35L7.74,26,17,20.65V24H36.46l1.48-12.08s.08-1,.06-1.5A11,11,0,0,0,27.37,0a10,10,0,0,0-2.82.35L10.24,3.53a11,11,0,0,0-8,7.47H21V7.65L30.26,13,21,18.35V15H1.56L.08,26.94A9.86,9.86,0,0,0,0,28.58,11,11,0,0,0,10.64,39a17.7,17.7,0,0,0,2.48-.26l14.36-3.18h0A11,11,0,0,0,35.79,28Z"/></svg>