<svg width="28" height="36" viewBox="0 0 28 36" fill="none" xmlns="http://www.w3.org/2000/svg">
<path d="M13.9629 5.27451C9.5515 5.27451 5.96335 8.86288 5.96335 13.2736C5.96335 17.6843 9.55153 21.2726 13.9629 21.2726C18.373 21.2726 21.9616 17.6843 21.9616 13.2736C21.9616 8.86288 18.373 5.27451 13.9629 5.27451Z" fill="#3C6EB4"/>
<path d="M13.9629 6.00867C12.6766 6.00867 11.5855 8.06613 11.1915 10.926C11.1788 11.0181 11.1668 11.1109 11.1559 11.2048C11.1021 11.6549 11.0657 12.1229 11.0474 12.6047C11.0387 12.8251 11.0344 13.048 11.0344 13.2736C11.0344 13.499 11.0387 13.7222 11.0474 13.9424C11.0657 14.4241 11.1021 14.8922 11.1559 15.3424C11.7591 15.4203 12.404 15.4735 13.0766 15.4986C13.3674 15.5094 13.6625 15.516 13.9629 15.516C14.2623 15.516 14.5582 15.5094 14.8482 15.4986C15.5217 15.4734 16.1661 15.4203 16.7697 15.3424C16.8362 15.3337 16.9017 15.3244 16.9677 15.3151C19.4799 14.9621 21.2275 14.1811 21.2275 13.2737C21.2276 9.26108 17.9746 6.00867 13.9629 6.00867Z" fill="#DE4284"/>
<path d="M16.9677 11.232C16.8948 11.1256 16.8167 11.0238 16.7334 10.926C16.0668 10.1403 15.0738 9.64099 13.9629 9.64099C13.6027 9.64099 13.282 10.1924 13.0767 11.0484C12.9951 11.3897 12.9318 11.7792 12.891 12.202C12.8589 12.5407 12.8415 12.9009 12.8415 13.2737C12.8415 13.6465 12.8589 14.0066 12.891 14.3452C13.2299 14.3773 13.5896 14.3946 13.9629 14.3946C14.3356 14.3946 14.6954 14.3772 15.0344 14.3452C15.7795 14.2744 16.4227 14.1312 16.8784 13.9424C17.3284 13.756 17.5948 13.5245 17.5948 13.2736C17.5948 12.5167 17.3635 11.8139 16.9677 11.232V11.232Z" fill="white"/>
<path d="M4.96472 32.7141C4.60305 32.7141 4.27551 32.6356 3.98208 32.4786C3.69207 32.3183 3.46347 32.0982 3.29629 31.8184C3.13252 31.5387 3.05063 31.2231 3.05063 30.8717C3.05063 30.5202 3.13422 30.2046 3.30141 29.9249C3.46859 29.6451 3.69719 29.4267 3.9872 29.2698C4.28063 29.1094 4.60817 29.0292 4.96983 29.0292C5.26326 29.0292 5.5311 29.0804 5.77334 29.1828C6.01559 29.2851 6.2203 29.4335 6.38749 29.628L5.95758 30.0323C5.69828 29.7526 5.37927 29.6127 5.00054 29.6127C4.75489 29.6127 4.53481 29.6673 4.34033 29.7764C4.14586 29.8822 3.99402 30.0306 3.88484 30.2217C3.77566 30.4128 3.72107 30.6294 3.72107 30.8717C3.72107 31.1139 3.77566 31.3305 3.88484 31.5216C3.99402 31.7127 4.14586 31.8628 4.34033 31.972C4.53481 32.0777 4.75489 32.1306 5.00054 32.1306C5.37927 32.1306 5.69828 31.989 5.95758 31.7059L6.38749 32.1153C6.2203 32.3098 6.01388 32.4582 5.76823 32.5605C5.52598 32.6629 5.25814 32.7141 4.96472 32.7141V32.7141Z" fill="#294172"/>
<path d="M8.61855 32.7141C8.25348 32.7141 7.92423 32.6356 7.6308 32.4786C7.33738 32.3183 7.10708 32.0982 6.93989 31.8184C6.77271 31.5353 6.68912 31.2197 6.68912 30.8717C6.68912 30.5236 6.77271 30.2097 6.93989 29.93C7.10708 29.6468 7.33738 29.4267 7.6308 29.2698C7.92423 29.1094 8.25348 29.0292 8.61855 29.0292C8.98363 29.0292 9.31288 29.1094 9.6063 29.2698C9.89973 29.4267 10.13 29.6451 10.2972 29.9249C10.4644 30.2046 10.548 30.5202 10.548 30.8717C10.548 31.2231 10.4644 31.5387 10.2972 31.8184C10.13 32.0982 9.89973 32.3183 9.6063 32.4786C9.31288 32.6356 8.98363 32.7141 8.61855 32.7141ZM8.61855 32.1306C8.85739 32.1306 9.07234 32.0777 9.26341 31.972C9.45447 31.8628 9.6046 31.7127 9.71378 31.5216C9.82296 31.3271 9.87755 31.1105 9.87755 30.8717C9.87755 30.6328 9.82296 30.4179 9.71378 30.2268C9.6046 30.0323 9.45447 29.8822 9.26341 29.7764C9.07234 29.6673 8.85739 29.6127 8.61855 29.6127C8.37972 29.6127 8.16477 29.6673 7.9737 29.7764C7.78264 29.8822 7.63251 30.0323 7.52333 30.2268C7.41415 30.4179 7.35956 30.6328 7.35956 30.8717C7.35956 31.1105 7.41415 31.3271 7.52333 31.5216C7.63251 31.7127 7.78264 31.8628 7.9737 31.972C8.16477 32.0777 8.37972 32.1306 8.61855 32.1306Z" fill="#294172"/>
<path d="M13.5972 32.6629L12.8653 31.6137C12.8346 31.6172 12.7886 31.6189 12.7272 31.6189H11.9185V32.6629H11.2532V29.0804H12.7272C13.0376 29.0804 13.3072 29.1316 13.5358 29.2339C13.7678 29.3363 13.9452 29.483 14.0681 29.6741C14.1909 29.8651 14.2523 30.092 14.2523 30.3547C14.2523 30.6243 14.1858 30.8563 14.0527 31.0508C13.923 31.2453 13.7354 31.3903 13.4897 31.4858L14.3137 32.6629H13.5972ZM13.5818 30.3547C13.5818 30.1261 13.5068 29.9504 13.3567 29.8276C13.2065 29.7048 12.9865 29.6434 12.6965 29.6434H11.9185V31.0712H12.6965C12.9865 31.0712 13.2065 31.0098 13.3567 30.887C13.5068 30.7608 13.5818 30.5833 13.5818 30.3547Z" fill="#294172"/>
<path d="M17.6785 32.1051V32.6629H14.9917V29.0804H17.6069V29.6382H15.657V30.5697H17.3868V31.1173H15.657V32.1051H17.6785Z" fill="#294172"/>
<path d="M20.0938 32.7039C19.7321 32.7039 19.4063 32.6254 19.1163 32.4684C18.8263 32.3081 18.5977 32.088 18.4305 31.8082C18.2667 31.5284 18.1848 31.2163 18.1848 30.8717C18.1848 30.527 18.2667 30.2149 18.4305 29.9351C18.5977 29.6553 18.8263 29.4369 19.1163 29.28C19.4063 29.1196 19.7321 29.0394 20.0938 29.0394C20.452 29.0394 20.7762 29.1196 21.0662 29.28C21.3562 29.4369 21.5831 29.6553 21.7469 29.9351C21.9106 30.2114 21.9925 30.5236 21.9925 30.8717C21.9925 31.2197 21.9106 31.5336 21.7469 31.8133C21.5831 32.0897 21.3562 32.3081 21.0662 32.4684C20.7762 32.6254 20.452 32.7039 20.0938 32.7039ZM20.0938 32.2484C20.3565 32.2484 20.5919 32.1887 20.8001 32.0692C21.0116 31.9498 21.1771 31.7861 21.2965 31.5779C21.4193 31.3664 21.4807 31.131 21.4807 30.8717C21.4807 30.6123 21.4193 30.3786 21.2965 30.1705C21.1771 29.959 21.0116 29.7935 20.8001 29.6741C20.5919 29.5546 20.3565 29.4949 20.0938 29.4949C19.8311 29.4949 19.5922 29.5546 19.3773 29.6741C19.1657 29.7935 18.9986 29.959 18.8757 30.1705C18.7563 30.3786 18.6966 30.6123 18.6966 30.8717C18.6966 31.131 18.7563 31.3664 18.8757 31.5779C18.9986 31.7861 19.1657 31.9498 19.3773 32.0692C19.5922 32.1887 19.8311 32.2484 20.0938 32.2484Z" fill="#294172"/>
<path d="M23.8188 32.7039C23.5492 32.7039 23.2882 32.6629 23.0358 32.581C22.7867 32.4957 22.5905 32.3866 22.4472 32.2535L22.6366 31.8543C22.773 31.9771 22.947 32.0778 23.1586 32.1562C23.3735 32.2313 23.5936 32.2688 23.8188 32.2688C24.1156 32.2688 24.3374 32.2194 24.4841 32.1204C24.6308 32.0181 24.7042 31.8833 24.7042 31.7161C24.7042 31.5933 24.6632 31.4943 24.5813 31.4193C24.5029 31.3408 24.4039 31.2811 24.2845 31.2401C24.1685 31.1992 24.003 31.1531 23.7881 31.102C23.5185 31.0371 23.3002 30.9723 23.133 30.9075C22.9692 30.8427 22.8276 30.7437 22.7082 30.6106C22.5922 30.4742 22.5342 30.2916 22.5342 30.063C22.5342 29.872 22.5837 29.6997 22.6826 29.5461C22.785 29.3926 22.9385 29.2697 23.1432 29.1776C23.3479 29.0855 23.6021 29.0394 23.9058 29.0394C24.1173 29.0394 24.3255 29.0667 24.5302 29.1213C24.7349 29.1759 24.9106 29.2544 25.0573 29.3568L24.8884 29.7662C24.7383 29.6707 24.5779 29.599 24.4073 29.5512C24.2367 29.5001 24.0696 29.4745 23.9058 29.4745C23.6158 29.4745 23.3974 29.5274 23.2507 29.6331C23.1074 29.7389 23.0358 29.8754 23.0358 30.0426C23.0358 30.1654 23.0767 30.266 23.1586 30.3445C23.2405 30.4196 23.3411 30.4793 23.4605 30.5236C23.5834 30.5646 23.7488 30.6089 23.957 30.6567C24.2265 30.7215 24.4432 30.7864 24.6069 30.8512C24.7707 30.916 24.9106 31.015 25.0266 31.148C25.146 31.2811 25.2057 31.4602 25.2057 31.6854C25.2057 31.8731 25.1546 32.0454 25.0522 32.2023C24.9498 32.3558 24.7946 32.4787 24.5865 32.5708C24.3783 32.6595 24.1224 32.7039 23.8188 32.7039V32.7039Z" fill="#294172"/>
<path d="M12.7835 27.8627V27.9368C12.7835 27.9417 12.7805 27.9447 12.7744 27.9458H12.7738C12.7687 27.9458 12.7656 27.9426 12.7644 27.9363V27.8189C12.7652 27.8121 12.768 27.8087 12.7731 27.8087H12.7744C12.7795 27.8087 12.7829 27.8123 12.7846 27.8195L12.8268 27.9138C12.8274 27.9116 12.8366 27.8901 12.8546 27.8492L12.8719 27.812C12.8739 27.8098 12.8762 27.8087 12.8787 27.8087H12.88C12.8851 27.8087 12.8879 27.8121 12.8887 27.8189V27.9363C12.8875 27.9426 12.8844 27.9458 12.8793 27.9458H12.8787C12.8726 27.9447 12.8696 27.9417 12.8696 27.9368V27.8626C12.8469 27.9142 12.8349 27.9408 12.8339 27.9425C12.8314 27.9447 12.8289 27.9458 12.8265 27.9458C12.8212 27.9458 12.8167 27.9403 12.8132 27.9294L12.7835 27.8627H12.7835ZM12.6584 27.8083H12.7444C12.7502 27.8094 12.7531 27.8124 12.7531 27.8173V27.8187C12.7531 27.8237 12.7497 27.8266 12.7429 27.8273H12.7109V27.9368C12.7109 27.9417 12.7079 27.9447 12.7018 27.9458H12.7013C12.6962 27.9458 12.6931 27.9426 12.6919 27.9363V27.8273H12.6592C12.6529 27.8261 12.6497 27.8228 12.6497 27.8174C12.6511 27.8113 12.654 27.8083 12.6584 27.8083" fill="#3C6EB4"/>
<path d="M5.73884 27.3444C5.73884 27.3444 5.73884 27.3444 4.65627 27.3444C4.67379 27.579 4.86297 27.7542 5.1152 27.7542C5.29387 27.7542 5.44804 27.6807 5.57065 27.5616C5.59519 27.537 5.62322 27.53 5.65473 27.53C5.69678 27.53 5.73884 27.551 5.76684 27.5861C5.78438 27.6106 5.79489 27.6386 5.79489 27.6666C5.79489 27.7052 5.77736 27.7472 5.74581 27.7788C5.59866 27.9364 5.34993 28.0415 5.10466 28.0415C4.65973 28.0415 4.3024 27.6842 4.3024 27.2392C4.3024 26.7943 4.64923 26.437 5.09416 26.437C5.5356 26.437 5.86491 26.7803 5.86491 27.2322C5.86495 27.2988 5.80539 27.3444 5.73884 27.3444V27.3444ZM5.09417 26.7242C4.85945 26.7242 4.6983 26.8784 4.66328 27.1025C5.19227 27.1025 5.5251 27.1025 5.5251 27.1025C5.49357 26.8889 5.3254 26.7242 5.09417 26.7242V26.7242Z" fill="#3C6EB4"/>
<path d="M8.83221 28.0415C8.38729 28.0415 8.02997 27.6842 8.02997 27.2392C8.02997 26.7943 8.38729 26.437 8.83221 26.437C9.27718 26.437 9.63449 26.7943 9.63449 27.2392C9.63451 27.6842 9.27719 28.0415 8.83221 28.0415ZM8.83221 26.7417C8.55196 26.7417 8.36975 26.966 8.36975 27.2392C8.36975 27.5124 8.55196 27.7367 8.83221 27.7367C9.11249 27.7367 9.29471 27.5124 9.29471 27.2392C9.29471 26.966 9.11249 26.7417 8.83221 26.7417Z" fill="#3C6EB4"/>
<path d="M10.7929 26.437C10.5578 26.437 10.4023 26.5065 10.2651 26.681L10.2524 26.5998C10.2417 26.5151 10.1695 26.4497 10.0819 26.4497C9.987 26.4497 9.91 26.5265 9.91 26.6215C9.91 26.6217 9.91 26.6218 9.91 26.6219V26.6221V27.8558C9.91 27.9504 9.98706 28.0275 10.0817 28.0275C10.1763 28.0275 10.2533 27.9504 10.2533 27.8558V27.1937C10.2533 26.8924 10.5161 26.7417 10.7929 26.7417C10.877 26.7417 10.9435 26.6717 10.9435 26.5876C10.9435 26.5035 10.877 26.437 10.7929 26.437V26.437Z" fill="#3C6EB4"/>
<path d="M12.6041 27.2392C12.6076 26.8083 12.2993 26.437 11.8018 26.437C11.3569 26.437 10.996 26.7943 10.996 27.2392C10.996 27.6842 11.3464 28.0415 11.7703 28.0415C11.9819 28.0415 12.1723 27.9326 12.2572 27.8188L12.2991 27.925C12.3215 27.9846 12.379 28.0271 12.4465 28.0271C12.5335 28.0271 12.604 27.9566 12.6041 27.8697V27.4582V27.2392ZM11.8018 27.7367C11.5215 27.7367 11.3394 27.5125 11.3394 27.2392C11.3394 26.966 11.5215 26.7418 11.8018 26.7418C12.0821 26.7418 12.2643 26.966 12.2643 27.2392C12.2643 27.5125 12.0821 27.7367 11.8018 27.7367Z" fill="#3C6EB4"/>
<path d="M7.75444 25.8028C7.75444 25.7082 7.67738 25.6346 7.58281 25.6346C7.48822 25.6346 7.4111 25.7082 7.4111 25.8028V26.7067C7.32354 26.5455 7.13436 26.4369 6.91012 26.4369C6.45469 26.4369 6.1499 26.7803 6.1499 27.2392C6.1499 27.6982 6.46521 28.0415 6.91012 28.0415C7.10859 28.0415 7.28067 27.9596 7.38373 27.8172L7.42185 27.9139C7.44546 27.9803 7.50877 28.0277 7.58316 28.0277C7.67732 28.0277 7.75445 27.9511 7.75445 27.8565C7.75445 27.8563 7.75445 27.8561 7.75445 27.8558V25.8028H7.75444V25.8028ZM6.95215 27.7367C6.67191 27.7367 6.49323 27.5124 6.49323 27.2392C6.49323 26.966 6.67189 26.7417 6.95215 26.7417C7.23245 26.7417 7.4111 26.9554 7.4111 27.2392C7.4111 27.5229 7.23245 27.7367 6.95215 27.7367Z" fill="#3C6EB4"/>
<path d="M4.18087 25.645C4.14955 25.6404 4.11764 25.638 4.08594 25.638C3.73116 25.638 3.44251 25.9267 3.44251 26.2815V26.4825H3.23228C3.15521 26.4825 3.09212 26.5456 3.09212 26.6226C3.09212 26.6997 3.15521 26.7774 3.23228 26.7774H3.44249V27.8558C3.44249 27.9504 3.51958 28.0275 3.61414 28.0275C3.70876 28.0275 3.78583 27.9504 3.78583 27.8558V26.7774H4.01826C4.09531 26.7774 4.15837 26.6997 4.15837 26.6226C4.15837 26.5456 4.09533 26.4825 4.01826 26.4825H3.78594V26.2815C3.78594 26.1161 3.92051 25.9592 4.08594 25.9592C4.10084 25.9592 4.11585 25.9603 4.13057 25.9625C4.2244 25.9764 4.31168 25.9339 4.3256 25.84C4.33946 25.7462 4.27469 25.6589 4.18087 25.645V25.645Z" fill="#3C6EB4"/>
</svg>
