<svg width="36" height="36" viewBox="0 0 36 36" fill="none" xmlns="http://www.w3.org/2000/svg">
<path d="M1.54806 34.8703L17.8266 18.1824C17.8769 18.1328 17.908 18.067 17.9147 17.9967C17.9213 17.9264 17.9031 17.8559 17.863 17.7977C16.8731 16.4156 15.0464 16.1759 14.3695 15.2472C12.3644 12.4962 11.8556 10.939 10.994 11.0355C10.9338 11.0441 10.8785 11.0733 10.8374 11.1181L4.95713 17.1468C1.57402 20.6123 1.08779 28.2507 1 34.6474C0.999718 34.711 1.01846 34.7733 1.05386 34.8262C1.08927 34.8791 1.13972 34.9202 1.19867 34.9441C1.25762 34.9681 1.32237 34.9739 1.38464 34.9607C1.44691 34.9476 1.50384 34.9161 1.54806 34.8703V34.8703Z" fill="#017CEE"/>
<path d="M34.8646 34.453L18.1784 18.1717C18.1287 18.1213 18.0629 18.09 17.9924 18.0834C17.922 18.0767 17.8514 18.0951 17.7932 18.1353C16.4112 19.1258 16.1715 20.9521 15.2428 21.6291C12.4921 23.6344 10.9351 24.1432 11.0316 25.005C11.0404 25.0649 11.0695 25.12 11.1141 25.1609L17.1423 31.0418C20.6074 34.4252 28.2451 34.9116 34.6412 34.9993C34.7045 34.9994 34.7664 34.9806 34.819 34.9453C34.8716 34.91 34.9124 34.8598 34.9364 34.8012C34.9604 34.7426 34.9664 34.6782 34.9536 34.6162C34.9408 34.5541 34.9099 34.4973 34.8646 34.453Z" fill="#00AD46"/>
<path d="M17.1397 31.0473C15.2454 29.1991 14.3676 25.543 17.9979 18.0039C12.0962 20.6417 10.028 24.1089 11.0451 25.1017L17.1397 31.0473Z" fill="#04D659"/>
<path d="M34.4535 1.14003L18.1755 17.8279C18.1252 17.8775 18.0939 17.9433 18.0873 18.0136C18.0806 18.084 18.099 18.1544 18.1392 18.2126C19.1296 19.5947 20.9551 19.8344 21.6325 20.7631C23.6377 23.5141 24.1471 25.0713 25.0081 24.9748C25.0683 24.9663 25.1236 24.9371 25.1646 24.8922L31.045 18.8635C34.4281 15.398 34.9144 7.75961 35.0022 1.36296C35.0023 1.29932 34.9834 1.2371 34.9479 1.18427C34.9124 1.13144 34.862 1.09041 34.803 1.06646C34.744 1.0425 34.6793 1.03671 34.617 1.04982C34.5548 1.06292 34.4978 1.09434 34.4535 1.14003V1.14003Z" fill="#00C7D4"/>
<path d="M31.0408 18.8622C29.1927 20.7566 25.537 21.6345 17.998 18.0039C20.6356 23.9062 24.1024 25.9744 25.0952 24.9573L31.0408 18.8622Z" fill="#11E1EE"/>
<path d="M1.13698 1.54871L17.8232 17.8282C17.8729 17.8785 17.9387 17.9097 18.009 17.9163C18.0793 17.923 18.1497 17.9047 18.2079 17.8647C19.5899 16.8741 19.8296 15.0478 20.7582 14.3709C23.509 12.3656 25.0659 11.8567 24.9695 10.9949C24.9607 10.9349 24.9316 10.8796 24.8869 10.8384L18.8588 4.95755C15.3937 1.57411 7.75593 1.0878 1.35989 1.00001C1.29613 0.9996 1.2337 1.01833 1.18069 1.05377C1.12768 1.08921 1.08654 1.13971 1.06253 1.19879C1.03853 1.25787 1.03276 1.3228 1.04604 1.38517C1.05931 1.44755 1.091 1.50452 1.13698 1.54871V1.54871Z" fill="#E43921"/>
<path fill-rule="evenodd" clip-rule="evenodd" d="M18.8563 4.95312C20.7506 6.80137 21.6283 10.4574 17.998 17.9971C23.8997 15.3593 25.9679 11.8915 24.9509 10.8993L18.8563 4.95312Z" fill="#FF7557"/>
<path d="M4.95508 17.1441C6.80314 15.2497 10.4588 14.3718 17.9978 18.0024C15.3603 12.1002 11.8934 10.0319 10.9007 11.049L4.95508 17.1441Z" fill="#0CB6FF"/>
<path d="M18.0011 18.725C18.403 18.725 18.7288 18.3992 18.7288 17.9973C18.7288 17.5954 18.403 17.2695 18.0011 17.2695C17.5992 17.2695 17.2734 17.5954 17.2734 17.9973C17.2734 18.3992 17.5992 18.725 18.0011 18.725Z" fill="#4A4848"/>
</svg>
