<svg xmlns="http://www.w3.org/2000/svg" viewBox="0 0 36 36"><defs><style>.cls-1{fill:none;}.cls-2{fill:#00b6c8;}</style></defs><title>Liberica_36x36</title><g id="Layer_2" data-name="Layer 2"><g id="NEW_Logos" data-name="NEW Logos"><rect class="cls-1" width="36" height="36"/><path class="cls-2" d="M.18744,15.93185h1.0994v5.2948h1.4785v.75821H.18744Zm2.94437,0H4.21857v6.053H3.13181Zm1.81969,0H6.44264a2.08674,2.08674,0,0,1,1.31422.35383,1.43162,1.43162,0,0,1,.45492,1.20049,1.418,1.418,0,0,1-.22746.8593.99234.99234,0,0,1-.64447.3791c.695.139,1.04885.63184,1.04885,1.49114a1.79085,1.79085,0,0,1-.42965,1.31422,1.68738,1.68738,0,0,1-1.26368.44229H4.9515ZM6.43,18.40866a.853.853,0,0,0,.65711-.21483,1.09428,1.09428,0,0,0,.17691-.695.75229.75229,0,0,0-.22746-.63184,1.29684,1.29684,0,0,0-.7582-.16428H6.0509v1.706ZM6.48055,21.214a.822.822,0,0,0,.66974-.22746,1.1901,1.1901,0,0,0,.18956-.7582,1.22849,1.22849,0,0,0-.20219-.79612.86142.86142,0,0,0-.695-.25273H6.0509V21.214Zm2.3378-5.28216h2.54v.78348H9.91774V18.4592h1.13731V19.23H9.91774v2.00925H11.371v.7582H8.81835Zm2.94436,0h1.45323a2.35229,2.35229,0,0,1,1.428.36647,1.46447,1.46447,0,0,1,.46756,1.2384,2.21535,2.21535,0,0,1-.16428.93512,1.04909,1.04909,0,0,1-.58129.53074l.84666,2.98228h-1.112l-.7203-2.76745H12.8621v2.76745H11.76271v-6.053ZM13.2033,18.535a.90494.90494,0,0,0,.66975-.21482,1.05066,1.05066,0,0,0,.20219-.70766,1.11942,1.11942,0,0,0-.17692-.695.79074.79074,0,0,0-.63183-.21483h-.417V18.535Zm2.45153-2.60317h1.08676v6.053H15.65483Zm2.0977,5.61072a2.43464,2.43464,0,0,1-.39174-1.49114V17.89055a2.42544,2.42544,0,0,1,.39174-1.50377,1.577,1.577,0,0,1,1.3395-.51811,1.59384,1.59384,0,0,1,1.26367.44228,1.96,1.96,0,0,1,.37911,1.289v.50547H19.67332v-.5181a4.93157,4.93157,0,0,0-.02527-.50547.57667.57667,0,0,0-.15164-.30329.566.566,0,0,0-.37911-.11373.55538.55538,0,0,0-.40437.12637.59763.59763,0,0,0-.17692.32856,3.05582,3.05582,0,0,0-.03791.53074V20.2789a1.5549,1.5549,0,0,0,.139.74556.51264.51264,0,0,0,.48019.22747.566.566,0,0,0,.37911-.11374.47031.47031,0,0,0,.15164-.31591,2.86174,2.86174,0,0,0,.03791-.53075v-.54338h1.06148v.4802a2.20662,2.20662,0,0,1-.36646,1.35213,1.51782,1.51782,0,0,1-1.27631.4802A1.5205,1.5205,0,0,1,17.75253,21.54257Zm4.347-5.61072h1.17522l1.21313,6.053H23.46434l-.24009-1.40268H22.17539l-.25273,1.40268H20.88645Zm1.01094,3.95531-.417-2.54-.417,2.54Z"/><path d="M26.23179,21.36566a1.718,1.718,0,0,0,.50547-.05055.3511.3511,0,0,0,.22746-.21483,1.18408,1.18408,0,0,0,.06319-.48019v-4.6756H28.1273v4.70087a2.66647,2.66647,0,0,1-.11373.8593.82508.82508,0,0,1-.417.4802,1.87494,1.87494,0,0,1-.834.16427h-.53074Zm2.4389-5.43381h1.42795a2.6058,2.6058,0,0,1,1.14994.20219,1.11686,1.11686,0,0,1,.59393.60656,2.7968,2.7968,0,0,1,.17692,1.07413v2.19879a3.01034,3.01034,0,0,1-.17692,1.112,1.30988,1.30988,0,0,1-.58129.64447,2.48494,2.48494,0,0,1-1.112.21483h-1.4785v-6.053Zm1.44059,5.2948a.86577.86577,0,0,0,.53074-.12637.60306.60306,0,0,0,.21483-.35383,4.17964,4.17964,0,0,0,.05054-.68238V17.75154a2.50911,2.50911,0,0,0-.05054-.60656.57015.57015,0,0,0-.21483-.31592,1.12452,1.12452,0,0,0-.53074-.10109h-.32856v4.49868Zm2.42625-5.2948h1.0994v2.66636l1.20049-2.66636h1.04885l-1.16258,2.69163L36,21.98486H34.9006L33.88966,19.23l-.25273.46756v2.29989h-1.0994Z"/></g></g></svg>