<svg xmlns="http://www.w3.org/2000/svg" viewBox="0 0 36 36"><defs><style>.cls-2{fill:#049fd9}</style></defs><g id="Layer_2" data-name="Layer 2"><g id="V_134_36x36"><g id="CISCO"><path fill="none" d="M0 0h36v36H0z"/><path id="path10" class="cls-2" d="M17.74 19.607a6.676 6.676 0 0 0-1.527-.197c-1.444 0-2.313.779-2.313 1.94 0 1.027.727 1.54 1.6 1.815l.334.108c.388.122.698.304.698.618 0 .352-.358.58-1.137.58a5.869 5.869 0 0 1-1.479-.23v1.427a9.355 9.355 0 0 0 1.69.17c1.199 0 2.57-.524 2.57-2.083a1.867 1.867 0 0 0-1.48-1.775l-.432-.138c-.257-.081-.718-.213-.718-.59 0-.299.341-.51.97-.51a5.372 5.372 0 0 1 1.223.19zm13.234 3.017a1.62 1.62 0 1 1-1.62-1.632 1.605 1.605 0 0 1 1.62 1.632m-1.62-3.212a3.214 3.214 0 1 0 3.28 3.212 3.185 3.185 0 0 0-3.28-3.212M11.8 25.727h-1.566v-6.205H11.8"/><path id="path12" class="cls-2" d="M8.082 19.634a4.766 4.766 0 0 0-1.428-.222 3.214 3.214 0 1 0 0 6.426 4.968 4.968 0 0 0 1.428-.221V23.95a2.746 2.746 0 0 1-1.316.33 1.657 1.657 0 1 1 0-3.313 2.719 2.719 0 0 1 1.316.332"/><path class="cls-2" d="M24.427 19.634A4.766 4.766 0 0 0 23 19.412a3.214 3.214 0 1 0 0 6.426 4.968 4.968 0 0 0 1.427-.221V23.95a2.746 2.746 0 0 1-1.315.33 1.657 1.657 0 1 1 0-3.313 2.719 2.719 0 0 1 1.315.332"/><g id="g22"><path id="path16" class="cls-2" d="M10.23 8.094a.778.778 0 0 0-1.555 0v8.24a.778.778 0 0 0 1.555 0zM5.959 11.02a.777.777 0 0 0-1.555 0v3.767a.777.777 0 0 0 1.555 0zm-4.27 2.138a.777.777 0 0 0-1.555 0v1.629a.777.777 0 0 0 1.555 0"/><path class="cls-2" d="M8.675 8.094a.778.778 0 0 1 1.555 0v8.24a.778.778 0 0 1-1.555 0zm4.27 2.926a.777.777 0 0 1 1.555 0v3.767a.777.777 0 0 1-1.555 0zm4.27 2.138a.777.777 0 0 1 1.556 0v1.629a.777.777 0 0 1-1.555 0" id="use18"/></g><g id="use20"><path class="cls-2" d="M25.752 8.094a.778.778 0 0 1 1.555 0v8.24a.778.778 0 0 1-1.555 0zm4.27 2.926a.777.777 0 0 1 1.555 0v3.767a.777.777 0 0 1-1.555 0zm4.27 2.138a.777.777 0 0 1 1.556 0v1.629a.777.777 0 0 1-1.555 0"/><path class="cls-2" d="M27.307 8.094a.778.778 0 0 0-1.555 0v8.24a.778.778 0 0 0 1.555 0zm-4.27 2.926a.777.777 0 0 0-1.556 0v3.767a.777.777 0 0 0 1.555 0zm-4.271 2.138a.777.777 0 0 0-1.555 0v1.629a.777.777 0 0 0 1.555 0"/></g></g></g></g></svg>