<?xml version="1.0" encoding="UTF-8" standalone="no"?>
<svg
   xmlns:dc="http://purl.org/dc/elements/1.1/"
   xmlns:cc="http://creativecommons.org/ns#"
   xmlns:rdf="http://www.w3.org/1999/02/22-rdf-syntax-ns#"
   xmlns:svg="http://www.w3.org/2000/svg"
   xmlns="http://www.w3.org/2000/svg"
   xmlns:sodipodi="http://sodipodi.sourceforge.net/DTD/sodipodi-0.dtd"
   xmlns:inkscape="http://www.inkscape.org/namespaces/inkscape"
   sodipodi:docname="icon.svg"
   inkscape:version="1.0 (4035a4f, 2020-05-01)"
   id="svg8"
   version="1.1"
   viewBox="0 0 227.83901 196.19915"
   height="196.19916mm"
   width="227.839mm">
  <defs
     id="defs2" />
  <sodipodi:namedview
     id="base"
     pagecolor="#ffffff"
     bordercolor="#666666"
     borderopacity="1.0"
     inkscape:pageopacity="0.0"
     inkscape:pageshadow="2"
     inkscape:zoom="0.13280957"
     inkscape:cx="1635.5566"
     inkscape:cy="788.21434"
     inkscape:document-units="mm"
     inkscape:current-layer="layer1"
     inkscape:document-rotation="0"
     showgrid="false"
     inkscape:window-width="1440"
     inkscape:window-height="878"
     inkscape:window-x="0"
     inkscape:window-y="0"
     inkscape:window-maximized="1"
     fit-margin-top="0"
     fit-margin-left="0"
     fit-margin-right="0"
     fit-margin-bottom="0" />
  <metadata
     id="metadata5">
    <rdf:RDF>
      <cc:Work
         rdf:about="">
        <dc:format>image/svg+xml</dc:format>
        <dc:type
           rdf:resource="http://purl.org/dc/dcmitype/StillImage" />
        <dc:title></dc:title>
      </cc:Work>
    </rdf:RDF>
  </metadata>
  <g
     inkscape:label="Layer 1"
     inkscape:groupmode="layer"
     id="layer1"
     transform="translate(328.71514,-5.7645603)">
    <path
       id="path69"
       d="m -295.60324,86.572607 c -38.32908,7.236707 -44.89545,84.676233 -11.72751,108.309313 10.82907,7.71602 22.38933,6.69526 34.16273,6.69526 h 48.43971 68.32546 c 10.1285,0 21.42719,1.97936 31.1034,-3.02012 20.32937,-10.504 30.329366,-43.73316 20.7735,-71.26854 -3.04661,-8.77892 -8.13687,-16.8021 -14.14491,-21.82016 -2.62543,-2.19295 -8.56107,-3.35728 -10.18406,-6.951003 -1.30992,-2.900821 -0.89333,-7.925312 -1.17938,-11.230444 -0.618,-7.143134 -1.98246,-14.010568 -3.83693,-20.715123 -8.36273,-30.240476 -26.58781,-51.520604 -49.04598,-58.6537456 -21.88658,-6.95171904 -44.13723,3.4337016 -60.67658,23.8566526 -4.45392,5.500214 -7.50764,17.339975 -12.345,21.376563 -2.58974,2.161517 -10.73985,-1.852933 -14.16988,-1.515759 -12.4898,1.22575 -25.21822,16.762792 -25.49457,34.937106 z"
       style="fill:#4999eb;stroke:none;stroke-width:0.603508" />
    <path
       sodipodi:nodetypes="sssscssscssscssscssscccssscscsscss"
       id="path89"
       d="m -209.24629,183.77692 c -5.96119,-2.17824 -13.84063,-6.26321 -19.26721,-9.98875 -11.20328,-7.69146 -21.31361,-21.41455 -25.60324,-34.75214 -3.83023,-11.90919 -5.04843,-25.51297 -4.78161,-53.396713 l 0.0944,-9.874407 5.5228,-0.316642 c 6.38639,-0.366183 13.76148,-1.625586 19.64712,-3.355054 7.77579,-2.284871 17.98079,-8.096684 24.56949,-13.992462 l 2.91992,-2.612815 2.84603,2.504285 c 6.20927,5.463707 11.6421,8.881145 19.22132,12.09086 7.48089,3.168097 14.71299,4.710041 25.6008,5.458365 l 4.61274,0.317031 0.29553,10.295596 c 0.34135,11.891778 -0.20192,28.392376 -1.20182,36.502586 -2.80693,22.7672 -12.95687,40.06434 -30.46044,51.90951 -5.78266,3.9133 -18.8575,10.15111 -21.13086,10.08121 -0.30201,-0.009 -1.60027,-0.40099 -2.88503,-0.87046 z m 14.96776,-62.04723 8.48032,-8.75189 -3.39829,-3.47086 -3.39828,-3.47085 -8.54605,8.66127 c -4.98751,5.05474 -8.90507,8.66128 -9.40824,8.66128 -0.47421,0 -2.66523,-1.79003 -4.86896,-3.97784 -2.20374,-2.18782 -4.20086,-3.9722 -4.43804,-3.96528 -0.2372,0.008 -1.87481,1.34375 -3.63915,2.97077 l -3.20789,2.9582 1.50276,1.92497 c 0.82651,1.05874 4.42689,4.77186 8.00082,8.25137 l 6.49805,6.32639 3.9713,-3.68281 c 2.18422,-2.02556 7.78747,-7.62118 12.45165,-12.43472 z"
       style="fill:#ffffff;stroke-width:0.464616" />
  </g>
</svg>
