<svg xmlns="http://www.w3.org/2000/svg" viewBox="0 0 42.76 42.76"><defs><style>.a,.f{fill:#932279;}.b{fill:#efa724;}.b,.e,.f,.g,.h{stroke:#fff;stroke-width:0.66px;}.c,.g{fill:#262577;}.d,.e{fill:#9ccd2a;}.h,.i{fill:none;}</style></defs><title>CentOS42</title><path class="a" d="M18,19.9l1.57,1.55L18,23H7v5.15l-6.7-6.7L7,14.86v5Z"/><path class="b" d="M23,18.09l-1.54,1.55-1.55-1.55V7.15H14.68L21.41.47,28,7.15H23Z"/><path class="c" d="M24.78,23.05l-1.56-1.5L24.78,20H35.11V14.8l6.71,6.75-6.71,6.52v-5Z"/><path class="d" d="M19.81,24.86l1.55-1.55,1.55,1.55V35.8h5.17l-6.72,6.67L14.75,35.8h5Z"/><path class="e" d="M6.6,6.75H20V20H6.6Z"/><path class="f" d="M22.81,6.75H36.17V20H22.81Z"/><path class="b" d="M22.81,22.9H36.17V36.2H22.81Z"/><path class="g" d="M6.6,22.9H20V36.2H6.6Z"/><path class="h" d="M.47,21.47l9.45-9.4,9.43,9.4L9.92,30.88Z"/><path class="h" d="M11.94,10.06,21.38.65l9.45,9.41-9.45,9.4Z"/><path class="h" d="M23.41,21.47l9.43-9.4,9.45,9.4-9.45,9.41Z"/><path class="h" d="M11.94,32.89l9.44-9.4,9.45,9.4-9.45,9.4Z"/><rect class="i" x="0.29" y="0.47" width="42" height="42"/></svg>