<svg width="14" height="16" viewBox="0 0 14 16" xmlns="http://www.w3.org/2000/svg"><path d="M4.81 3.243c.093-.392.267-1.123.431-1.243l3.553-.016c.167.136.346.877.443 1.275.054.23.116.484.194.741h-4.82c.083-.269.144-.53.198-.757h.001zM11.582 4H14v2h-2v7.985A2.015 2.015 0 0 1 9.985 16H4c-1.113 0-2-.902-2-2.015V6H0V4h2.458c.144-.117.314-.835.406-1.22C3.111 1.741 3.525 0 5.241 0h3.576c1.688 0 2.094 1.679 2.362 2.79.095.396.253 1.039.404 1.21h-.001zM4 6v8h6V6H4z" fill="#000" fill-rule="evenodd" opacity=".2"/></svg>