<svg width="20" height="20" viewBox="0 0 20 20" xmlns="http://www.w3.org/2000/svg"><path d="M13.672 6.323a1 1 0 0 1 .002 1.414l-1.292 1.295-1.413 1.417-3.288 3.296a1 1 0 1 1-1.416-1.412l1.293-1.296L8.97 9.621l3.288-3.296a.996.996 0 0 1 1.414-.002zm-4.03 6.872l1.431-1.435c1.181 1.37 1.137 3.44-.16 4.74l-2.479 2.476A3.466 3.466 0 0 1 5.966 20c-.933 0-1.81-.364-2.469-1.024L1.02 16.5a3.498 3.498 0 0 1 0-4.938l2.478-2.476c1.26-1.262 3.407-1.304 4.747-.154l-1.41 1.414a1.478 1.478 0 0 0-1.923.154l-2.478 2.476a1.494 1.494 0 0 0 .001 2.11l2.477 2.476c.563.565 1.545.565 2.108 0l2.478-2.476c.516-.517.546-1.31.144-1.89zm9.27-9.633a3.497 3.497 0 0 1 0 4.938l-2.478 2.476a3.455 3.455 0 0 1-4.74.162l1.433-1.435c.574.392 1.392.362 1.893-.14l2.478-2.478a1.493 1.493 0 0 0-.001-2.109L15.02 2.5a1.475 1.475 0 0 0-1.054-.438c-.398 0-.772.156-1.054.438l-2.478 2.476c-.518.52-.547 1.318-.138 1.9L8.866 8.31c-1.19-1.37-1.147-3.446.154-4.748l2.478-2.476c1.317-1.32 3.619-1.32 4.937 0l2.477 2.476z" fill="#000" fill-rule="evenodd"/></svg>