<svg xmlns="http://www.w3.org/2000/svg" width="16" height="16"><g fill-rule="evenodd" opacity=".3"><path d="M8 14.5a6.5 6.5 0 1 1 0-13 6.5 6.5 0 0 1 0 13zm0-1a5.5 5.5 0 1 0 0-11 5.5 5.5 0 0 0 0 11z"/><path d="M7.5 9.6v-.1c0 .03.05-.29.15-.55.08-.2.2-.4.37-.6.12-.14.34-.35.66-.64.32-.28.52-.5.62-.67a1.07 1.07 0 0 0 .14-.54c0-.36-.14-.67-.42-.95A1.42 1.42 0 0 0 8 5.15c-.4 0-.72.12-.98.37s-.44.62-.52 1.15l-.94-.12c.08-.7.33-1.23.75-1.6s.98-.56 1.67-.56c.73 0 1.32.2 1.75.6a1.89 1.89 0 0 1 .43 2.35c-.16.27-.46.6-.9 1-.3.27-.5.47-.59.6-.09.12-.16.26-.2.43-.05.16-.07.43-.08.23h-.88zm-.05 1.95V10.5H8.5v1.05H7.45z"/><path d="M7.5 9.6v-.1c0 .03.05-.29.15-.55.08-.2.2-.4.37-.6.12-.14.34-.35.66-.64.32-.28.52-.5.62-.67a1.07 1.07 0 0 0 .14-.54c0-.36-.14-.67-.42-.95A1.42 1.42 0 0 0 8 5.15c-.4 0-.72.12-.98.37s-.44.62-.52 1.15l-.94-.12c.08-.7.33-1.23.75-1.6s.98-.56 1.67-.56c.73 0 1.32.2 1.75.6a1.89 1.89 0 0 1 .43 2.35c-.16.27-.46.6-.9 1-.3.27-.5.47-.59.6-.09.12-.16.26-.2.43-.05.16-.07.43-.08.23h-.88zm-.05 1.95V10.5H8.5v1.05H7.45z"/></g></svg>