<svg xmlns="http://www.w3.org/2000/svg" xmlns:xlink="http://www.w3.org/1999/xlink" width="268.35900000000004" height="46.8"><path fill="#f00" d="M9.98 37.05L9.98 27.18L17.24 6.28L14.16 6.28L8.50 22.97L3.59 9.16L0.23 9.16L6.90 27.07L6.90 37.05Z"/><path fill="#000" d="M23.32 33.19C22.78 34.05 21.72 34.75 20.67 34.75C19.11 34.75 18.37 33.27 18.37 31.00C18.37 28.47 19.19 26.79 22.97 26.79L23.32 26.79ZM26.32 32.60L26.32 23.36C26.32 18.60 24.41 17.12 20.94 17.12C18.95 17.12 17.16 17.94 16.26 18.68L16.85 21.37C17.86 20.47 19.19 19.66 20.75 19.66C22.46 19.66 23.32 20.75 23.32 23.32L23.32 24.49L22.89 24.49C17.39 24.49 15.25 27.14 15.25 31.36C15.25 35.22 17.16 37.32 19.97 37.32C21.68 37.32 22.78 36.58 23.63 35.49L23.83 35.49C23.87 36.00 23.98 36.62 24.10 37.05L26.68 37.05C26.52 36.11 26.32 34.48 26.32 32.60ZM33.15 21.80C33.85 20.83 34.94 19.85 36.23 19.85C37.40 19.85 38.06 20.36 38.06 21.84L38.06 37.05L41.14 37.05L41.14 21.57C41.14 18.56 39.78 17.12 37.21 17.12C35.37 17.12 33.89 18.33 33.34 19.07L33.15 19.07L33.15 17.35L30.11 17.35L30.11 37.05L33.15 37.05ZM50.11 37.32C51.71 37.32 52.81 36.58 53.66 35.49L53.86 35.49L54.09 37.05L56.35 37.05L56.35 9.16L53.31 9.16L53.31 17.86C52.73 17.43 51.75 17.12 50.82 17.12C46.88 17.12 44.15 20.67 44.15 27.96C44.15 34.05 46.25 37.32 50.11 37.32ZM53.31 33.23C52.81 34.01 51.99 34.75 50.47 34.75C48.24 34.75 47.38 31.94 47.38 27.34C47.38 23.32 48.55 19.62 51.01 19.62C52.03 19.62 52.69 19.93 53.31 20.55ZM70.67 35.72L69.97 33.38C69.19 33.93 67.94 34.71 66.22 34.71C63.80 34.71 62.56 32.37 62.56 27.92L70.75 27.92L70.75 26.25C70.75 19.58 68.60 17.12 65.33 17.12C61.15 17.12 59.40 21.72 59.40 28.04C59.40 34.09 61.89 37.32 65.95 37.32C67.90 37.32 69.42 36.70 70.67 35.72ZM65.33 19.62C67.08 19.62 67.63 22.07 67.63 25.43L62.59 25.43C62.79 21.92 63.45 19.62 65.33 19.62ZM81.00 17.39L78.31 24.53L75.78 17.39L72.62 17.39L76.32 26.87L72.23 37.05L75.23 37.05L78.20 28.94L81.24 37.05L84.40 37.05L80.30 26.60L83.97 17.39ZM99.68 8.77C94.85 8.77 91.96 14.35 91.96 23.13C91.96 31.90 94.73 37.44 99.64 37.44C102.10 37.44 103.82 36.15 104.36 35.53L103.78 34.05C102.96 34.87 101.71 35.84 99.68 35.84C95.86 35.84 93.91 30.81 93.91 23.01C93.91 15.25 96.02 10.37 99.68 10.37C101.32 10.37 102.61 11.31 103.47 12.56L103.97 10.65C103.16 9.71 101.75 8.77 99.68 8.77ZM107.02 9.16L107.02 37.05L108.85 37.05L108.85 9.16ZM118.25 37.44C121.64 37.44 124.25 33.62 124.25 27.10C124.25 20.36 121.64 17.00 118.25 17.00C114.85 17.00 112.24 20.79 112.24 27.34C112.24 34.05 114.85 37.44 118.25 37.44ZM118.25 35.96C115.95 35.96 114.07 33.34 114.07 27.22C114.07 21.25 115.95 18.52 118.25 18.52C120.55 18.52 122.42 21.06 122.42 27.22C122.42 33.15 120.55 35.96 118.25 35.96ZM131.86 35.88C130.10 35.88 129.28 34.52 129.28 31.78L129.28 17.39L127.45 17.39L127.45 32.02C127.45 35.53 128.93 37.44 131.55 37.44C134.24 37.44 135.68 35.22 136.23 33.81L136.31 33.81L136.38 37.05L138.06 37.05L138.06 17.39L136.23 17.39L136.23 31.75C135.25 34.24 133.85 35.88 131.86 35.88ZM147.22 35.80C144.88 35.80 143.40 32.76 143.40 27.61C143.40 21.72 145.16 18.45 147.58 18.45C149.41 18.45 150.34 19.42 151.16 21.29L151.16 32.10C150.31 34.09 148.90 35.80 147.22 35.80ZM151.48 37.05L153.00 37.05L153.00 9.16L151.16 9.16L151.16 19.03C150.42 17.82 149.21 17.00 147.77 17.00C144.10 17.00 141.57 20.86 141.57 27.77C141.57 33.46 143.60 37.40 146.87 37.40C149.02 37.40 150.42 35.76 151.24 33.97ZM168.13 15.25C168.36 13.96 168.64 12.52 168.75 11.58L168.83 11.58C168.87 12.52 169.07 14.08 169.30 15.29L171.72 26.79L165.75 26.79ZM173.86 37.05L175.77 37.05L169.88 9.16L167.86 9.16L161.93 37.05L163.64 37.05L165.44 28.39L172.03 28.39ZM184.90 18.56C186.69 18.56 187.55 19.66 187.55 22.00L187.55 37.05L189.38 37.05L189.38 21.76C189.38 18.64 187.86 17.00 185.25 17.00C182.60 17.00 181.04 19.19 180.49 20.63L180.41 20.63L180.34 17.39L178.66 17.39L178.66 37.05L180.49 37.05L180.49 22.70C181.47 20.20 182.95 18.56 184.90 18.56ZM199.41 36.82L199.02 35.45C198.78 35.57 198.39 35.72 197.81 35.72C196.64 35.72 196.01 34.87 196.01 32.92L196.01 18.84L199.37 18.84L199.37 17.39L196.01 17.39L196.01 13.49L194.38 13.49L194.18 17.39L192.19 17.39L192.19 18.84L194.18 18.84L194.18 33.11C194.18 35.53 195.27 37.24 197.61 37.24C198.43 37.24 198.98 37.05 199.41 36.82ZM203.39 13.53C204.05 13.53 204.63 12.99 204.63 12.28C204.63 11.62 204.05 11.00 203.39 11.00C202.68 11.00 202.14 11.62 202.14 12.28C202.14 12.99 202.68 13.53 203.39 13.53ZM202.45 17.39L202.45 37.05L204.28 37.05L204.28 17.39ZM215.01 18.91L215.01 17.39L211.26 17.39L211.26 14.12C211.26 11.47 212.00 10.57 213.21 10.57C213.95 10.57 214.42 10.84 214.97 11.31L215.36 9.71C214.97 9.40 214.31 9.05 213.17 9.05C211.22 9.05 209.39 10.45 209.39 14.12L209.39 17.39L207.25 17.39L207.25 18.91L209.39 18.91L209.39 37.05L211.26 37.05L211.26 18.91ZM224.29 19.19L224.29 17.28C221.87 17.43 220.27 19.42 219.65 21.33L219.53 21.33L219.45 17.39L217.78 17.39L217.78 37.05L219.61 37.05L219.61 23.40C220.51 20.71 222.14 19.27 224.29 19.19ZM230.96 35.96C229.09 35.96 227.88 34.36 227.88 31.59C227.88 28.16 229.44 26.68 232.67 26.68L234.78 26.68L234.78 32.10C234.08 34.20 232.79 35.96 230.96 35.96ZM235.33 37.05L237.00 37.05C236.77 36.31 236.57 34.79 236.57 33.42L236.57 22.70C236.57 18.80 234.74 17.00 231.50 17.00C229.28 17.00 227.64 17.98 226.86 18.99L227.37 20.75C228.31 19.38 229.83 18.60 231.50 18.60C233.65 18.60 234.78 19.89 234.78 22.89L234.78 25.35L232.64 25.35C228.38 25.35 226.08 27.53 226.08 31.75C226.08 35.33 227.92 37.44 230.57 37.44C232.52 37.44 233.92 36.27 234.86 34.40C234.98 35.80 235.17 36.54 235.33 37.05ZM245.04 35.88C243.28 35.88 242.46 34.52 242.46 31.78L242.46 17.39L240.63 17.39L240.63 32.02C240.63 35.53 242.11 37.44 244.73 37.44C247.42 37.44 248.86 35.22 249.41 33.81L249.48 33.81L249.56 37.05L251.24 37.05L251.24 17.39L249.41 17.39L249.41 31.75C248.43 34.24 247.03 35.88 245.04 35.88ZM260.40 35.80C258.06 35.80 256.58 32.76 256.58 27.61C256.58 21.72 258.34 18.45 260.75 18.45C262.59 18.45 263.52 19.42 264.34 21.29L264.34 32.10C263.48 34.09 262.08 35.80 260.40 35.80ZM264.65 37.05L266.18 37.05L266.18 9.16L264.34 9.16L264.34 19.03C263.60 17.82 262.39 17.00 260.95 17.00C257.28 17.00 254.75 20.86 254.75 27.77C254.75 33.46 256.78 37.40 260.05 37.40C262.20 37.40 263.60 35.76 264.42 33.97Z"/></svg>