<svg id="Layer_2" data-name="Layer 2" xmlns="http://www.w3.org/2000/svg" viewBox="0 0 48 24"><defs><style>.cls-1{fill:#73ba25;}</style></defs><title>OpenSUSE</title><path id="Geeko" class="cls-1" d="M42.93,3.86a2,2,0,0,0-2,1.91A2,2,0,0,0,42.8,7.82a2,2,0,0,0,1.42-.53,2,2,0,0,0-1.29-3.43ZM43.26,6c-.49,0-.88-.26-.88-.58s.39-.59.88-.59.87.26.87.59S43.74,6,43.26,6Zm4.61,2.36s.05,0,0-.06c-.11-.69-1.13-4-1.9-4.81a3.37,3.37,0,0,0-.73-.64C42.48,1.25,35.85.26,35.54.22a.05.05,0,0,0,0,0,.08.08,0,0,0,0,.05s0,1.37,0,1.53a40.93,40.93,0,0,0-10.22-2c-3.91-.14-9.61-.64-17.16,4L7.83,4A17.49,17.49,0,0,0,.54,12.1a9.46,9.46,0,0,0-.4,5.37,8.2,8.2,0,0,0,1.24,2.69,8.06,8.06,0,0,0,5.88,3.35c3.35.3,5.89-1.2,6.79-4a5.53,5.53,0,0,0-2.38-6.24,4.93,4.93,0,0,0-5.22-.12,3.48,3.48,0,0,0-1.62,2.95A3.25,3.25,0,0,0,8,19.3a3.65,3.65,0,0,0,1.18-.2,2.29,2.29,0,0,0,.46-.2l.05,0,0,0h0a1.08,1.08,0,0,0,.47-.88,1,1,0,0,0,0-.29,1.07,1.07,0,0,0-1.22-.76l-.08,0-.09,0L8.56,17A2.84,2.84,0,0,1,8,17.1a1.05,1.05,0,0,1-.9-1.05h0a1.2,1.2,0,0,1,.19-.63A1.87,1.87,0,0,1,9,14.76a2.91,2.91,0,0,1,2.48,1.77,3.07,3.07,0,0,1-.33,3.19,3.85,3.85,0,0,1-3.62,1.11,5.07,5.07,0,0,1-4-7.21c1.7-3.2,4.91-3.17,6.67-2.87a9.6,9.6,0,0,1,6.62,5.63,7.2,7.2,0,0,1,.33,1.11l.11.48,2.95,1.44c.06,0,.08,0,.11,0s0-.08,0-.08a3.88,3.88,0,0,1-.13-1c-.06-.73-.17-2.73.84-3.72a3.39,3.39,0,0,1,1.45-.85c1.93-.47,4.19-.14,6.33,2.33,1.11,1.28,1.65,1.86,1.92,2.12l.09.09.11.08,3.68,1.7a.06.06,0,0,0,.07,0,0,0,0,0,0,0-.07s-2.28-2.94-1.88-5.33c.32-1.91,1.84-1.74,3.94-1.5.68.08,1.46.17,2.27.19a16.71,16.71,0,0,0,6.18-1.06,7.75,7.75,0,0,0,2-1,1.25,1.25,0,0,0,.28-.51l.06-.13a6.46,6.46,0,0,0,.19-.7c0-.08,0-.16,0-.21s-.21,0-.21,0A8.74,8.74,0,0,1,43.64,11C41.73,11,37.87,9,37.47,8.83l-.81-1.91c2.77,1.82,5.06,2.83,6.82,3a6.41,6.41,0,0,0,4.14-1.33l.25-.19ZM40,5.76a2.82,2.82,0,0,1,.9-2,2.84,2.84,0,1,1-.9,2Z"/></svg>