<svg id="Layer_2" data-name="Layer 2" xmlns="http://www.w3.org/2000/svg" viewBox="0 0 36 42"><defs><style>.cls-1{fill:#83cd29;}</style></defs><title>Nodejs</title><path class="cls-1" d="M18,41.28a3,3,0,0,1-1.56-.42l-5-2.93c-.75-.42-.38-.57-.14-.65a9.55,9.55,0,0,0,2.24-1,.38.38,0,0,1,.37,0l3.82,2.26a.47.47,0,0,0,.46,0L33.09,30a.47.47,0,0,0,.23-.4V12.42a.47.47,0,0,0-.23-.41L18.23,3.44a.47.47,0,0,0-.46,0L2.92,12a.46.46,0,0,0-.24.41V29.57a.46.46,0,0,0,.24.4L7,32.32c2.21,1.1,3.56-.2,3.56-1.5V13.88a.43.43,0,0,1,.43-.43h1.89a.43.43,0,0,1,.43.43V30.82c0,2.94-1.61,4.64-4.4,4.64a6.33,6.33,0,0,1-3.43-.94l-3.9-2.24A3.14,3.14,0,0,1,0,29.57V12.42A3.12,3.12,0,0,1,1.57,9.71L16.44,1.12a3.26,3.26,0,0,1,3.12,0L34.42,9.71A3.11,3.11,0,0,1,36,12.42V29.57a3.13,3.13,0,0,1-1.56,2.71L19.56,40.86A3,3,0,0,1,18,41.28Z"/><path class="cls-1" d="M22.59,29.46c-6.51,0-7.87-3-7.87-5.49a.43.43,0,0,1,.43-.43h1.92a.43.43,0,0,1,.43.37c.29,1.95,1.15,2.94,5.09,2.94,3.13,0,4.46-.71,4.46-2.37,0-1-.38-1.67-5.24-2.14-4.07-.4-6.58-1.3-6.58-4.56,0-3,2.52-4.78,6.76-4.78,4.76,0,7.12,1.65,7.42,5.19a.4.4,0,0,1-.12.33.41.41,0,0,1-.31.14H27.05a.43.43,0,0,1-.42-.33C26.17,16.27,25,15.61,22,15.61c-3.42,0-3.81,1.19-3.81,2.08,0,1.08.46,1.4,5.08,2S30,21.16,30,24.37,27.3,29.46,22.59,29.46Z"/></svg>