<svg xmlns="http://www.w3.org/2000/svg" xmlns:xlink="http://www.w3.org/1999/xlink" viewBox="0 0 38 39"><defs><style>.a{fill-rule:evenodd;opacity:0.96;fill:url(#a);}.b{isolation:isolate;}.c{fill:#fff;}</style><linearGradient id="a" x1="2.97" y1="35.56" x2="34.07" y2="4.46" gradientUnits="userSpaceOnUse"><stop offset="0" stop-color="#3995ee"/><stop offset="1" stop-color="#2f79c1"/></linearGradient></defs><title>LEMP</title><path class="a" d="M38,10.42A11,11,0,0,0,27.37,0a10,10,0,0,0-2.82.35L10.24,3.53A11,11,0,0,0,1.82,13h0l-1.74,14A9.86,9.86,0,0,0,0,28.58,11,11,0,0,0,10.64,39a17.7,17.7,0,0,0,2.48-.26l14.36-3.18h0a11,11,0,0,0,8.69-9.28l1.76-14.36S38,10.93,38,10.42Z"/><g class="b"><path class="c" d="M10.19,23.45H5.12V15.38H6.71v6.76h3.48Z"/><path class="c" d="M11.41,15.38h5.34V16.7H13v1.87h3.19v1.32H13V22h3.85v1.32H11.41Z"/><path class="c" d="M24.92,17.82l-2,4.41H21.54l-1.88-4.5v5.72H18.25V15.38h2.07l2.06,5.07,2.26-5.07h2v8.07H25V17.82Z"/><path class="c" d="M28.11,15.38h2.72a4.54,4.54,0,0,1,2.44.56,2.21,2.21,0,0,1,.84,2,4.46,4.46,0,0,1-.19,1.22,2,2,0,0,1-.65.85,3.6,3.6,0,0,1-1,.47,5.83,5.83,0,0,1-1.32.19h-1v2.81h-1.6V15.38ZM29.7,16.7v2.53h1A2.17,2.17,0,0,0,32,19a1.21,1.21,0,0,0,.47-1c0-.46-.09-.75-.37-.93a2.12,2.12,0,0,0-1.22-.28Z"/></g></svg>