<svg xmlns="http://www.w3.org/2000/svg" viewBox="0 0 36 36"><defs><linearGradient id="a" x1="-4271.483" y1="-5841.306" x2="-4259.429" y2="-5848.429" gradientTransform="translate(523.129 711.53) scale(.11874)" gradientUnits="userSpaceOnUse"><stop offset="0" stop-color="#909ca9"/><stop offset="1" stop-color="#ededee"/></linearGradient><linearGradient id="b" x1="-4271.213" y1="-5975.552" x2="-4261.513" y2="-5975.552" gradientTransform="translate(523.129 711.53) scale(.11874)" gradientUnits="userSpaceOnUse"><stop offset="0" stop-color="#939fab"/><stop offset="1" stop-color="#dcdee1"/></linearGradient><radialGradient id="c" cx="-11622.439" cy="-7446.542" r="12.878" gradientTransform="matrix(-.11402 -.01713 .03464 -.22804 -1045.479 -1889.913)" gradientUnits="userSpaceOnUse"><stop offset="0" stop-color="#ee352c"/><stop offset="1" stop-color="#a91d22"/></radialGradient></defs><g data-name="Layer 2"><g data-name="MS SQL"><path fill="none" d="M0 0h36v36H0z"/><path d="M6.513 21.966c-.056 0-.11.005-.165.005A2.466 2.466 0 0 0 4.04 23.48a3.976 3.976 0 0 0 .004 2.871 2.49 2.49 0 0 0 2.096 1.472c.225.036.376.16.812.669l.536.628h.973l-.647-.652a6.906 6.906 0 0 1-.647-.696c0-.027.137-.087.303-.138A2.223 2.223 0 0 0 8.787 26.4a2.59 2.59 0 0 0 .33-1.325c.096-1.922-.917-3.123-2.604-3.11v.001zm.852 5.026a2.289 2.289 0 0 1-1.609.11 2.075 2.075 0 0 1-1.114-1.197 3.4 3.4 0 0 1 .064-2.192 1.85 1.85 0 0 1 1.756-1.151c1.183 0 1.856.724 1.944 2.086a2.265 2.265 0 0 1-1.04 2.343zm16.805-3.384a1.042 1.042 0 0 0-.931.49l-.165.258v-.67h-.706v4.017h.705V26.42c0-1.174.015-1.311.18-1.632a.881.881 0 0 1 .99-.556l.253.074v-.696h-.326v-.001zm-4.15-.037a1.895 1.895 0 0 0-1.875 2.133 2.014 2.014 0 0 0 .527 1.577 2.185 2.185 0 0 0 2.407.343c.16-.068.335-.147.335-.147v-.632l-.335.174a1.588 1.588 0 0 1-1.793-.06 1.81 1.81 0 0 1-.48-1.063h2.847v-.542a1.598 1.598 0 0 0-1.633-1.783zm-1.15 1.761a1.646 1.646 0 0 1 .495-.959 1.065 1.065 0 0 1 .614-.196.982.982 0 0 1 .596.201 1.567 1.567 0 0 1 .418.95h-2.124v.004zm-17.025-.724C1.079 24.144.74 23.81.78 23.415c.119-1.09 1.467-.94 2.214-.527L3 22.154a2.88 2.88 0 0 0-1.004-.188 1.703 1.703 0 0 0-1.77.89c-.403.893-.046 1.567 1.247 2.32.725.421 1.046.788 1.046 1.188 0 .825-.995 1.113-2.022.595a8.116 8.116 0 0 0-.4-.193 6.34 6.34 0 0 0-.018.794 4.388 4.388 0 0 0 .789.224c1.174.234 2.242-.316 2.343-1.21.087-.84-.216-1.28-1.366-1.967zM30.42 23.56a2.138 2.138 0 0 0-.437.051 2.011 2.011 0 0 0-1.44 2.083 2.003 2.003 0 0 0 .528 1.572 2.19 2.19 0 0 0 2.412.344l.334-.146v-.633l-.335.174a1.59 1.59 0 0 1-1.793-.06 1.786 1.786 0 0 1-.481-1.064h2.842v-.541a1.596 1.596 0 0 0-1.632-1.778l.002-.002zm-1.152 1.762a1.672 1.672 0 0 1 .496-.963 1.06 1.06 0 0 1 .613-.198.982.982 0 0 1 .597.202 1.576 1.576 0 0 1 .417.954H29.27l-.001.005zm-12.944-.706c-.765-.463-1.104-.798-1.063-1.193.119-1.091 1.467-.94 2.214-.527l.005-.734a2.866 2.866 0 0 0-1.004-.187 1.704 1.704 0 0 0-1.77.89c-.403.893-.041 1.567 1.247 2.32.725.42 1.046.783 1.046 1.182 0 .826-.995 1.119-2.022.596a6.757 6.757 0 0 0-.4-.192 6.34 6.34 0 0 0-.018.794 4.803 4.803 0 0 0 .784.224c1.174.235 2.243-.315 2.343-1.21.088-.834-.215-1.274-1.362-1.962v-.001zm18.245-1.019a1.038 1.038 0 0 0-.93.491l-.166.257v-.669h-.706v4.016h.705V26.41c0-1.173.015-1.311.18-1.632a.88.88 0 0 1 .99-.555l.253.074v-.698h-.326zm-23.86.996v-2.56h-.712v5.668h2.994v-.67h-2.282v-2.438zm16.464.797l-.587 1.527-.564-1.535-.573-1.702h-.729c.472 1.34.986 2.7 1.504 4.021.225.006.45 0 .674 0l.793-1.99.807-2.03H27.8s-.308.806-.628 1.71zm-14.824-4.9a.39.39 0 0 0 .29-.116.384.384 0 0 0 .118-.284.377.377 0 0 0-.119-.284.396.396 0 0 0-.284-.11.39.39 0 0 0-.289.114.382.382 0 0 0-.114.284.37.37 0 0 0 .114.284.386.386 0 0 0 .284.11v.002zm-.252-.652a.36.36 0 0 1 .615.252.353.353 0 0 1-.105.257.344.344 0 0 1-.253.1.335.335 0 0 1-.252-.1.353.353 0 0 1-.105-.257.34.34 0 0 1 .1-.252zm.17.289h.046c.033 0 .065.031.092.091l.055.124h.087l-.068-.137c-.028-.056-.056-.088-.088-.097a.167.167 0 0 0 .096-.05.126.126 0 0 0 .031-.092.117.117 0 0 0-.04-.097.23.23 0 0 0-.148-.04h-.146v.513h.074v-.215h.009zm0-.239h.064a.164.164 0 0 1 .097.023c.017.014.022.032.022.064 0 .06-.037.088-.106.088h-.078v-.175zm-11.76.193a7.35 7.35 0 0 0-.01-.39H.5a1.173 1.173 0 0 0 .06.207l.683 1.527h.114l.684-1.54a1.39 1.39 0 0 0 .06-.194h.005a4.425 4.425 0 0 0-.019.391v1.348h.234v-2.004H2.03L1.4 20.821a7.543 7.543 0 0 0-.097.247h-.01a1.605 1.605 0 0 0-.09-.238l-.615-1.407H.277v2.003h.225v-1.343h.004zm2.328.004h.202v1.248h-.202zm.101-.458a.142.142 0 0 0 .105-.042.146.146 0 0 0 .046-.105.132.132 0 0 0-.045-.105.147.147 0 0 0-.107-.042.144.144 0 0 0-.105.042.148.148 0 0 0-.046.105.127.127 0 0 0 .046.105.151.151 0 0 0 .105.042zm1.54 1.733v-.22a.581.581 0 0 1-.352.124.457.457 0 0 1-.354-.148.57.57 0 0 1-.133-.394.592.592 0 0 1 .142-.416.462.462 0 0 1 .358-.152.587.587 0 0 1 .34.11v-.233a.699.699 0 0 0-.33-.074.707.707 0 0 0-.542.216.806.806 0 0 0-.201.568.728.728 0 0 0 .183.514.65.65 0 0 0 .495.206.808.808 0 0 0 .395-.101zm.578-.665a.647.647 0 0 1 .106-.39.288.288 0 0 1 .234-.123.269.269 0 0 1 .173.046v-.239a.364.364 0 0 0-.137-.018.349.349 0 0 0-.22.078.483.483 0 0 0-.155.242h-.006V20h-.228v1.43h.229v-.733zm1.317.762a.677.677 0 0 0 .518-.207.902.902 0 0 0 .013-1.096.632.632 0 0 0-.5-.197.718.718 0 0 0-.517.188.78.78 0 0 0-.21.578.745.745 0 0 0 .182.527.666.666 0 0 0 .514.207zm-.326-1.165a.452.452 0 0 1 .343-.138.428.428 0 0 1 .34.138.767.767 0 0 1 .01.82.418.418 0 0 1-.345.148.447.447 0 0 1-.348-.147.58.58 0 0 1-.129-.404.561.561 0 0 1 .129-.417zm2.04 1.04a.376.376 0 0 0 .133-.293.358.358 0 0 0-.105-.261.811.811 0 0 0-.266-.156.833.833 0 0 1-.216-.12.196.196 0 0 1-.06-.146.173.173 0 0 1 .069-.142.283.283 0 0 1 .184-.055.54.54 0 0 1 .326.101v-.229a.672.672 0 0 0-.308-.068.545.545 0 0 0-.362.119.393.393 0 0 0-.051.554.741.741 0 0 0 .257.16.963.963 0 0 1 .234.133.175.175 0 0 1 .06.137c0 .133-.092.202-.271.202a.567.567 0 0 1-.372-.136v.247a.676.676 0 0 0 .352.087.622.622 0 0 0 .395-.133zm1.091-1.375a.718.718 0 0 0-.518.188.784.784 0 0 0-.21.578.748.748 0 0 0 .183.527.746.746 0 0 0 1.032 0 .77.77 0 0 0 .193-.55.784.784 0 0 0-.179-.546.647.647 0 0 0-.5-.198v.001zm.445.752a.615.615 0 0 1-.114.404.418.418 0 0 1-.344.147.447.447 0 0 1-.349-.147.58.58 0 0 1-.128-.404.588.588 0 0 1 .138-.422.452.452 0 0 1 .343-.138.435.435 0 0 1 .339.138.697.697 0 0 1 .115.422zm.62.716h.228v-1.239h.335v-.192h-.335v-.221c0-.2.078-.302.24-.302a.316.316 0 0 1 .15.037v-.207a.42.42 0 0 0-.166-.022.427.427 0 0 0-.307.114.482.482 0 0 0-.147.372V20h-.242v.193h.242v1.233zm.94-.39c0 .28.123.422.375.422a.413.413 0 0 0 .216-.048v-.196a.24.24 0 0 1-.147.046.195.195 0 0 1-.165-.06.336.336 0 0 1-.05-.206v-.807h.362v-.193h-.363v-.421c-.079.027-.156.05-.23.073v.348h-.246v.193h.247v.848zm24.608 2.636a.394.394 0 0 0-.284-.11.394.394 0 0 0-.404.4.375.375 0 0 0 .114.283.404.404 0 0 0 .29.11.394.394 0 0 0 .288-.114.387.387 0 0 0 .119-.284.397.397 0 0 0-.124-.285zm-.037.542a.369.369 0 0 1-.505 0 .357.357 0 0 1-.105-.258.36.36 0 0 1 .61-.253.347.347 0 0 1 .105.253.33.33 0 0 1-.105.257zm-.206-.234a.198.198 0 0 0 .096-.051.127.127 0 0 0 .032-.092.117.117 0 0 0-.041-.097.23.23 0 0 0-.148-.04h-.146v.513h.074v-.216h.046c.031 0 .063.032.091.092l.055.123h.087l-.068-.137c-.024-.06-.051-.088-.08-.097l.002.001zm-.05-.047h-.08v-.173h.065a.16.16 0 0 1 .096.022c.019.014.023.032.023.065 0 .059-.037.086-.105.086zm-12.793-3.998h.064v-.513h.17v-.065h-.404v.065h.17v.513zm.389-.386a.924.924 0 0 0-.004-.114.318.318 0 0 0 .018.06l.197.44h.032l.197-.444c.006-.014.01-.032.019-.056-.004.046-.004.083-.004.11v.39h.068v-.578h-.083l-.178.4c-.005.013-.019.041-.028.073h-.005a.42.42 0 0 0-.026-.069l-.18-.403h-.092v.578h.065v-.386h.004z" fill="#231f1f"/><path d="M24.37 9.368l-3.959 1.293-3.444 1.52-.963.254c-.245.233-.503.47-.781.709-.305.263-.59.503-.808.676a6.025 6.025 0 0 0-.784.778 3.527 3.527 0 0 0-.58.981 1.648 1.648 0 0 0 .233 1.481 5.246 5.246 0 0 0 2.163 1.625 13.743 13.743 0 0 0 1.903.637 25.194 25.194 0 0 0 4.057.578 4.652 4.652 0 0 0 .524 0 7.127 7.127 0 0 0 .386-.733 18.532 18.532 0 0 0 1.403-3.713 17.595 17.595 0 0 0 .359-2.573c.021-.29.03-1.263.012-1.592a11.179 11.179 0 0 0-.15-1.403.324.324 0 0 1-.009-.123 5.169 5.169 0 0 1 .536-.162l-.099-.233zm-.904.53a9.69 9.69 0 0 1 .155 1.499.802.802 0 0 1-.003.203c-.024 0-.505-.284-.85-.5a22.75 22.75 0 0 1-.957-.637c-.03-.02-.027-.024.219-.108.415-.14 1.403-.457 1.436-.457zm-2.017.664a.993.993 0 0 1 .26.14 18.549 18.549 0 0 0 1.814 1.009c.11.048.122.03-.132.203a13.041 13.041 0 0 1-2.056 1.104c-.146.066-.269.117-.272.117a.776.776 0 0 1 .036-.165 8.822 8.822 0 0 0 .32-2.103c.003-.3.003-.3.03-.308-.006.003-.003.003 0 .003zm-.416.158a6.451 6.451 0 0 1-.018.871 7.615 7.615 0 0 1-.275 1.302 1.997 1.997 0 0 1-.069.209 5.265 5.265 0 0 1-.556-.542 4.048 4.048 0 0 1-.55-.801 2.52 2.52 0 0 1-.168-.407c.048-.033 1.624-.644 1.636-.632zm-1.956.77l.009.002a.56.56 0 0 1 .044.108 4.043 4.043 0 0 0 .497.889 5.064 5.064 0 0 0 .691.745c.072.06.138.116.147.125.018.018.024.015-.464.2-.565.216-1.182.432-1.888.659l-.505.165c-.027.009-.018-.006.06-.13a16.825 16.825 0 0 0 1.181-2.38c.051-.132.102-.264.11-.294a.108.108 0 0 1 .067-.078.29.29 0 0 1 .05-.012zm-.599.248a6.69 6.69 0 0 1-.293.619 23.178 23.178 0 0 1-1.182 2.034c-.015.021-.02.015-.069-.077a2.743 2.743 0 0 1-.23-.694 2.793 2.793 0 0 1 .015-.892c.039-.186.036-.183.126-.227.383-.195 1.621-.775 1.633-.763zm5.161.21v.125a16.276 16.276 0 0 1-.176 2.25 3.503 3.503 0 0 1-.036.215l-.189-.054a7.721 7.721 0 0 1-1.376-.59 6.093 6.093 0 0 1-.7-.43c.003-.003.129-.069.275-.147a17.628 17.628 0 0 0 1.637-.96c.182-.123.457-.32.517-.374l.048-.036zm-7.42.885c.012 0 .01.024-.009.131a4.228 4.228 0 0 0-.033.32 2.214 2.214 0 0 0 .264 1.203 2.481 2.481 0 0 1 .104.228c-.02.018-2.001.598-2.624.769l-.359.098c-.02.006-.023.003-.015-.048a3.144 3.144 0 0 1 .871-1.499 3.87 3.87 0 0 1 .984-.754c.306-.173.775-.433.811-.445l.006-.003zm4.668.834a1.207 1.207 0 0 1 .161.087 9.014 9.014 0 0 0 2.292.892l.069.015-.096.054c-.398.221-1.705.765-3.043 1.265-.194.072-.386.144-.422.159a.216.216 0 0 1-.068.02c0-.002.053-.107.122-.236a14.762 14.762 0 0 0 .943-2.145c.024-.057.039-.108.042-.11zm-.476.156a.86.86 0 0 1-.05.138 18.946 18.946 0 0 1-1.04 2.091c-.11.197-.203.356-.206.356s-.092-.054-.2-.12a6.153 6.153 0 0 1-1.565-1.331l-.054-.066.273-.075a19.538 19.538 0 0 0 2.627-.906c.116-.048.212-.087.215-.087zm2.956 1.032c.003.069-.15.685-.275 1.131a32.49 32.49 0 0 1-.497 1.6.198.198 0 0 1-.039-.008 12.505 12.505 0 0 1-2.432-.685 7.02 7.02 0 0 1-.527-.234 3.492 3.492 0 0 1 .401-.188c1.361-.596 2.774-1.272 3.258-1.562a.39.39 0 0 1 .111-.054zm-6.825.234c.006.006-.374.553-.906 1.298-.186.26-.401.566-.482.68s-.203.292-.272.4l-.126.195-.134-.114a4.984 4.984 0 0 1-.557-.568 2.455 2.455 0 0 1-.5-.967c-.032-.143-.032-.215-.003-.224.045-.012.844-.2 1.592-.374a133.115 133.115 0 0 0 1.389-.326zm.383.146l.096.108a5.618 5.618 0 0 0 1.403 1.149.786.786 0 0 1 .162.105c-.021.015-1.85.664-2.696.957-.476.167-.868.302-.87.302a.514.514 0 0 1-.06-.039l-.054-.039.087-.125c.28-.407.634-.853 1.403-1.78l.53-.638zm2.388 1.709c.003-.003.135.044.296.104a9.575 9.575 0 0 0 1.11.344 12.288 12.288 0 0 0 1.679.29c.065.007.101.013.09.022-.022.012-.461.158-.785.26a213.118 213.118 0 0 1-3.817 1.122.237.237 0 0 1-.129-.033 2.169 2.169 0 0 1 .159-.2 17.76 17.76 0 0 0 1.214-1.634c.1-.15.183-.272.183-.275zm-.527.015c.003.003-.21.344-.58.93-.159.248-.335.53-.398.628-.06.096-.15.246-.2.33l-.087.152-.045-.012c-.108-.03-.865-.296-1.065-.377a7.41 7.41 0 0 1-.697-.32 2.912 2.912 0 0 1-.515-.326c.006-.003.416-.114.91-.249a73.998 73.998 0 0 0 2.513-.712 1.197 1.197 0 0 1 .164-.044zm3.725.873h.003c.012.03-.472 1.376-.649 1.801-.039.096-.054.12-.075.117a60.85 60.85 0 0 1-1.181-.165 54.588 54.588 0 0 1-2.31-.403l-.072-.015.446-.102c.957-.216 1.418-.332 1.885-.476a13.323 13.323 0 0 0 1.762-.679 1.446 1.446 0 0 1 .191-.078z" fill="url(#a)"/><path d="M20.288.14a19.017 19.017 0 0 0-1.813.653A11.321 11.321 0 0 0 16.39 1.84a1.581 1.581 0 0 0-.404.404.28.28 0 0 0-.018.102l.4.38.955.305 2.271.407 2.597.446.027-.225c-.009 0-.015-.003-.024-.003l-.34-.053-.07-.123a23.151 23.151 0 0 1-.969-1.915A9.895 9.895 0 0 1 20.378.36c-.05-.203-.057-.215-.09-.218zm-.048.154h.004c.002.003.014.086.026.185a6.25 6.25 0 0 0 .29 1.26c.111.329.111.31-.017.272-.306-.084-1.673-.32-2.663-.458a3.983 3.983 0 0 1-.293-.045c-.012-.012.715-.392 1.035-.541.41-.189 1.535-.658 1.618-.673zm-2.884 1.34l.117.039a17.834 17.834 0 0 0 3.109.592l.185.018a1.383 1.383 0 0 1-.188.099c-.425.212-.892.473-1.215.673a1.24 1.24 0 0 1-.195.108c-.012 0-.074-.012-.14-.021l-.12-.018-.3-.293c-.526-.512-.939-.907-1.097-1.057zm-.12.093l.422.526c.23.29.464.575.515.637a.983.983 0 0 1 .09.117c-.012.01-.61-.108-.928-.18a7.544 7.544 0 0 1-.66-.173L16.51 2.6v-.042c.003-.2.257-.5.688-.804l.039-.027zm3.585.718c.012 0 .027.027.063.107.101.225.419.83.496.946.024.039.066.042-.356-.027-1.014-.165-1.34-.218-1.34-.224a.31.31 0 0 1 .069-.045 5.841 5.841 0 0 0 .912-.632c.07-.056.132-.11.144-.12.003-.005.009-.008.012-.005z" fill="url(#b)"/><path d="M16.007 2.202a.298.298 0 0 0-.003.26 1.182 1.182 0 0 0 .281.333s1.331 1.298 1.493 1.484a4.16 4.16 0 0 1 1.086 2.842 4.602 4.602 0 0 1-.473 2.151 13.973 13.973 0 0 1-3.96 4.521l.295-.099a9.512 9.512 0 0 1 1.062-.63 37.86 37.86 0 0 1 4.94-2.212 61.606 61.606 0 0 1 10.026-2.687l.272-.042-.042-.065a9.224 9.224 0 0 0-.601-.847 7.189 7.189 0 0 0-2.124-1.768 15.754 15.754 0 0 0-4.61-1.547 51.581 51.581 0 0 0-1.805-.308c-1.37-.213-2.256-.36-3.231-.527-.35-.06-.874-.15-1.22-.224a7.752 7.752 0 0 1-.794-.213c-.215-.084-.526-.167-.592-.422zm.772.748a.832.832 0 0 1 .114.036c.113.04.26.084.433.132q.197.054.395.105c.18.044.33.086.332.086.021.021.324.988.425 1.359.04.14.07.26.066.26a.605.605 0 0 1-.075-.117 6.228 6.228 0 0 0-1.544-1.744 1.276 1.276 0 0 1-.146-.117zm1.472.407a1.176 1.176 0 0 1 .161.027c.509.114 1.422.287 2.005.386a.732.732 0 0 1 .177.04.302.302 0 0 1-.081.05c-.099.05-.497.287-.629.377a5.732 5.732 0 0 0-.846.676c-.087.087-.162.159-.162.159s-.018-.051-.033-.114a9.696 9.696 0 0 0-.535-1.466 1.284 1.284 0 0 1-.06-.138c0 .006 0 .003.003.003zm2.59.494a1.151 1.151 0 0 1 .109.332 4.898 4.898 0 0 1 .143 1.37 2.578 2.578 0 0 1-.018.258l-.009.03-.155-.051c-.32-.102-.841-.255-1.287-.38a5.107 5.107 0 0 1-.46-.138 7.072 7.072 0 0 1 .529-.53 13.885 13.885 0 0 1 1.149-.891zm.207.03c.01-.01 1.239.203 1.798.311.416.08 1.02.206 1.057.221.018.006-.045.042-.246.132a12.986 12.986 0 0 0-1.96 1.065 9.415 9.415 0 0 1-.284.186 1.633 1.633 0 0 1-.006-.192 4.179 4.179 0 0 0-.323-1.627.453.453 0 0 1-.036-.096zm3.18.628a2.25 2.25 0 0 1-.065.395 7.5 7.5 0 0 1-.754 1.73 1.972 1.972 0 0 1-.126.203 1.276 1.276 0 0 1-.18-.096 9.743 9.743 0 0 0-1.172-.574c-.12-.051-.224-.093-.227-.099-.021-.018.942-.655 1.45-.96.405-.246 1.063-.61 1.075-.599zm.228.036c.027 0 .572.15.856.233a17.65 17.65 0 0 1 2.037.745l.219.1-.153.035a22.304 22.304 0 0 0-3.45 1.068 2.213 2.213 0 0 1-.17.066.77.77 0 0 1 .063-.153 6.06 6.06 0 0 0 .577-1.992c.003-.057.012-.102.021-.102zM19.035 5.79c.009-.01.425.09.649.152.341.096 1.065.338 1.065.356 0 .003-.08.072-.176.156-.392.326-.77.67-1.221 1.107-.135.129-.248.233-.254.233s-.01-.018-.006-.042a6.745 6.745 0 0 0-.042-1.804c-.01-.084-.018-.155-.015-.158zm8.74.009a5.744 5.744 0 0 1-.318.493c-.18.258-.443.599-1.038 1.347-.314.395-.667.84-.784.99-.12.15-.219.275-.222.275a1.032 1.032 0 0 1-.083-.12 6.182 6.182 0 0 0-1.212-1.337 6.977 6.977 0 0 0-.221-.18.334.334 0 0 1-.06-.05c0-.01.508-.228.894-.383a30.661 30.661 0 0 1 2.29-.817c.361-.114.747-.224.753-.218zm.23.06a.69.69 0 0 1 .17.083 10.148 10.148 0 0 1 2.002 1.502c.158.156.55.563.544.566l-.3.024A29.492 29.492 0 0 0 26 8.77c-.105.024-.197.045-.204.045s.111-.117.258-.258A7.655 7.655 0 0 0 27.87 6.14c.069-.147.129-.272.135-.281zm-6.664.682c.042.009.431.191.725.338.269.134.673.35.694.368.003.003-.141.078-.317.164-.563.282-1.045.548-1.547.853a10.42 10.42 0 0 1-.267.159c-.012 0-.009-.012.072-.159a6.248 6.248 0 0 0 .608-1.649c.012-.044.024-.074.032-.074zm-.389.071a5.709 5.709 0 0 1-.155.578 7.366 7.366 0 0 1-.53 1.215c-.048.083-.12.206-.158.275l-.075.12-.168-.162a2.198 2.198 0 0 0-.556-.41.803.803 0 0 1-.144-.084c0-.024.512-.487.904-.822.281-.243.874-.718.882-.71zm2.38.979l.146.096a11.377 11.377 0 0 1 1.032.763c.17.14.5.436.565.508l.036.04-.242.068c-1.37.38-2.43.718-3.665 1.173-.138.05-.254.092-.263.092-.018 0-.033.015.275-.269a13.136 13.136 0 0 0 2.01-2.31l.105-.161zm-.626.155c.006.006-.404.584-.65.91a40.461 40.461 0 0 1-1.172 1.466c-.15.177-.279.323-.285.326-.009.003-.012-.042-.012-.11a2.508 2.508 0 0 0-.254-1.078c-.069-.137-.08-.17-.066-.185.057-.051.928-.548 1.478-.844.371-.197.952-.49.96-.485zm-3.782.928a1.321 1.321 0 0 1 .156.078 3.285 3.285 0 0 1 .514.347.892.892 0 0 1-.173.143c-.285.204-.715.53-.967.73-.263.21-.272.216-.242.171a5.134 5.134 0 0 0 .652-1.316.507.507 0 0 1 .06-.153zm1.008.79c.015-.003.033.024.114.143a2.158 2.158 0 0 1 .335.871l.006.06-.41.158a37 37 0 0 0-1.867.775c-.128.06-.353.168-.5.24-.146.075-.266.131-.266.128s.093-.071.207-.155A12.064 12.064 0 0 0 19.8 9.61c.063-.074.12-.143.125-.146h.006zm-.463.113a6.322 6.322 0 0 1-.563.635 9.923 9.923 0 0 1-1.858 1.499l-.18.113c-.02.012.007-.018.318-.356.197-.212.347-.392.517-.613a1.011 1.011 0 0 1 .3-.284c.44-.317 1.454-1.005 1.466-.994z" fill="url(#c)"/></g></g></svg>