<svg xmlns="http://www.w3.org/2000/svg" xmlns:xlink="http://www.w3.org/1999/xlink" viewBox="0 0 38 39"><defs><style>.a{fill-rule:evenodd;fill:url(#a);}</style><linearGradient id="a" x1="2.97" y1="35.56" x2="34.07" y2="4.46" gradientUnits="userSpaceOnUse"><stop offset="0" stop-color="#52aaff"/><stop offset="1" stop-color="#1a86fc"/></linearGradient></defs><title>Asset 6</title><path class="a" d="M38,10.42A11,11,0,0,0,27.37,0a10,10,0,0,0-2.82.35L10.24,3.53A11,11,0,0,0,1.82,13h0l-1.74,14A9.86,9.86,0,0,0,0,28.58,11,11,0,0,0,10.64,39a17.7,17.7,0,0,0,2.48-.26l14.36-3.18h0a11,11,0,0,0,8.69-9.28l1.76-14.36S38,10.93,38,10.42ZM27,28H11V18h2V15a6,6,0,0,1,12,0v3h2Zm-9-4h2V22H18Zm1-12a3,3,0,0,0-3,3v3h6V15A3,3,0,0,0,19,12Z"/></svg>