<?xml version="1.0" encoding="utf-8"?>
<!-- Generator: Adobe Illustrator 17.0.0, SVG Export Plug-In . SVG Version: 6.00 Build 0)  -->
<!DOCTYPE svg PUBLIC "-//W3C//DTD SVG 1.1//EN" "http://www.w3.org/Graphics/SVG/1.1/DTD/svg11.dtd">
<svg version="1.1" id="Слой_1" xmlns="http://www.w3.org/2000/svg" xmlns:xlink="http://www.w3.org/1999/xlink" x="0px" y="0px"
	 width="313.095px" height="53.725px" viewBox="0 0 313.095 53.725" enable-background="new 0 0 313.095 53.725"
	 xml:space="preserve">
<path fill="#FF0600" d="M11.551,29.174L5.45,42.875H1l6.701-14.651c-3.15-1.6-5.25-4.5-5.25-9.851c0-7.5,4.75-11.25,10.4-11.25h5.75
	v35.752h-3.85V29.174H11.551z M14.751,10.373h-2.05c-3.1,0-6.1,2.05-6.1,8c0,5.75,2.75,7.601,6.1,7.601h2.05V10.373z"/>
<path d="M37.15,17.673v25.202H33.3V31.574h-5.8v11.301h-3.9V17.673h3.9v10.701h5.8V17.673H37.15z M57.202,47.825h-3.5v-4.95H42.901
	v4.95h-3.5v-8.15h1.55c2.3-5.35,2.55-13.151,2.55-19.851v-2.15h11.701v22.001h2V47.825z M51.352,20.824h-4.351v0.45
	c0,5.301-0.25,13.051-2.35,18.401h6.701V20.824z M67.953,43.225c-5.201,0-8.401-4.149-8.401-11.9c0-8.101,2.25-14.001,7.601-14.001
	c4.2,0,6.951,3.15,6.951,11.701v2.15H63.602c0,5.7,1.6,8.701,4.701,8.701c2.2,0,3.95-1,4.95-1.7l0.9,3
	C72.553,42.425,70.453,43.225,67.953,43.225z M63.652,27.974h6.45c0-4.3-0.7-7.451-2.95-7.451
	C64.752,20.523,63.902,23.474,63.652,27.974z M82.003,30.324v12.551h-3.9V17.673h3.9v11.651l6.05-11.651h3.95l-6.25,11.851
	l7.15,13.351h-4.25L82.003,30.324z M93.404,30.274c0-7.901,3.05-12.951,8.951-12.951c2.25,0,3.55,0.6,4.65,1.3l-0.55,3.7
	c-1.05-0.9-2.55-1.75-4.15-1.75c-2.8,0-4.8,3.15-4.8,9.5c0,6.3,1.5,9.9,4.65,9.9c1.9,0,3.35-0.75,4.25-1.55l0.9,2.9
	c-1.35,1.149-2.95,1.899-5.25,1.899C96.654,43.225,93.404,38.875,93.404,30.274z"/>
<path d="M124.65,42.875h-5.351V7.123h12.251v2.05h-9.751v12.551h3.101c5.15,0,8.8,3.2,8.8,10.25
	C133.7,39.625,129.8,42.875,124.65,42.875z M121.799,23.774v17.051h2.851c4,0,6.55-2.5,6.55-8.751c0-5.6-2.45-8.3-6.3-8.3H121.799z"
	/>
<path d="M148.199,39.475c-1.2,2.4-3,3.9-5.5,3.9c-3.4,0-5.75-2.7-5.75-7.3c0-5.4,2.95-8.201,8.4-8.201h2.75v-3.15
	c0-3.851-1.45-5.5-4.2-5.5c-2.15,0-4.101,1-5.3,2.75l-0.65-2.25c1-1.3,3.101-2.55,5.951-2.55c4.15,0,6.5,2.3,6.5,7.3v13.751
	c0,1.75,0.25,3.7,0.55,4.65h-2.15C148.599,42.225,148.349,41.274,148.199,39.475z M148.099,36.524v-6.95h-2.7
	c-4.15,0-6.15,1.9-6.15,6.3c0,3.55,1.55,5.6,3.95,5.6C145.549,41.475,147.199,39.225,148.099,36.524z"/>
<path d="M153.948,40.575l0.801-1.95c0,0,1.7,2.7,5.15,2.7c2.6,0,4.7-1.851,4.7-5.5c0-3.15-1.551-5.3-5.301-5.3h-2.1v-1.9h1.85
	c2.9,0,4.95-1.75,4.95-5.2c0-2.55-1.35-4.2-3.8-4.2c-2.301,0-3.95,1.3-5.051,2.85l-0.6-2.25c1.1-1.45,2.95-2.65,5.65-2.65
	c3.95,0,6.05,2.5,6.05,6.201c0,2.45-1,4.7-3.75,6.05c3.15,1.15,4.5,3.6,4.5,6.35c0,4.9-3.2,7.601-7.05,7.601
	C155.898,43.375,153.948,40.575,153.948,40.575z"/>
<path d="M171.148,17.673h2.351v9.351h1.85c4.801,0,7.9,2.6,7.9,7.851c0,5.35-3.3,8-8.05,8h-4.051V17.673z M173.499,28.874v12.15h1.5
	c3.55,0,5.95-1.75,5.95-6.1c0-4.25-2.101-6.05-5.7-6.05H173.499z M188.25,42.875h-2.301V17.673h2.301V42.875z"/>
<path d="M215.147,42.875h-13.7l-0.3,4.95h-1.851v-6.851h1.05c1.551-0.85,2.5-4.3,3-9.05c0.65-6.2,0.751-14.251,0.751-14.251h10.9
	v23.301h2.3v6.851h-1.85L215.147,42.875z M202.997,40.975h9.601V19.574h-6.4c0,0-0.15,7.05-0.8,12.901
	C204.947,36.675,204.297,39.475,202.997,40.975z"/>
<path d="M231.048,39.475c-1.2,2.4-3,3.9-5.501,3.9c-3.399,0-5.75-2.7-5.75-7.3c0-5.4,2.95-8.201,8.4-8.201h2.75v-3.15
	c0-3.851-1.45-5.5-4.2-5.5c-2.149,0-4.1,1-5.3,2.75l-0.65-2.25c1-1.3,3.101-2.55,5.95-2.55c4.15,0,6.501,2.3,6.501,7.3v13.751
	c0,1.75,0.25,3.7,0.55,4.65h-2.15C231.447,42.225,231.197,41.274,231.048,39.475z M230.947,36.524v-6.95h-2.7
	c-4.149,0-6.15,1.9-6.15,6.3c0,3.55,1.551,5.6,3.95,5.6C228.397,41.475,230.048,39.225,230.947,36.524z"/>
<path d="M249.598,30.724h-8.601v12.151h-2.351V17.673h2.351v11.151h8.601V17.673h2.35v25.202h-2.35V30.724z"/>
<path d="M268.497,30.724h-8.601v12.151h-2.351V17.673h2.351v11.151h8.601V17.673h2.35v25.202h-2.35V30.724z"/>
<path d="M276.396,17.673h2.351v9.351h1.85c4.801,0,7.9,2.6,7.9,7.851c0,5.35-3.3,8-8.05,8h-4.051V17.673z M278.746,28.874v12.15h1.5
	c3.55,0,5.95-1.75,5.95-6.1c0-4.25-2.101-6.05-5.7-6.05H278.746z M293.497,42.875h-2.301V17.673h2.301V42.875z"/>
<path d="M304.495,31.625l-5,11.25h-2.15l5.851-13.101l-5.5-12.101h2.5l4.65,10.451l4.6-10.451h2.2l-5.55,12.251l5.95,12.951h-2.5
	L304.495,31.625z"/>
<g>
</g>
<g>
</g>
<g>
</g>
<g>
</g>
<g>
</g>
<g>
</g>
</svg>
