<?xml version="1.0" encoding="utf-8"?>
<!-- Generator: Adobe Illustrator 17.0.0, SVG Export Plug-In . SVG Version: 6.00 Build 0)  -->
<!DOCTYPE svg PUBLIC "-//W3C//DTD SVG 1.1//EN" "http://www.w3.org/Graphics/SVG/1.1/DTD/svg11.dtd">
<svg version="1.1" id="Слой_1" xmlns="http://www.w3.org/2000/svg" xmlns:xlink="http://www.w3.org/1999/xlink" x="0px" y="0px"
	 width="324.332px" height="51.576px" viewBox="0 0 324.332 51.576" enable-background="new 0 0 324.332 51.576"
	 xml:space="preserve">
<g>
	<path fill="#FF0000" d="M11.089,28.007L5.232,41.16H0.96l6.433-14.065c-3.024-1.536-5.041-4.32-5.041-9.457
		c0-7.201,4.561-10.801,9.985-10.801h5.521V41.16h-3.696V28.007H11.089z M14.161,9.958h-1.968c-2.976,0-5.856,1.968-5.856,7.681
		c0,5.521,2.64,7.296,5.856,7.296h1.968V9.958z"/>
	<path d="M35.665,16.966V41.16h-3.696V30.311H26.4V41.16h-3.744V16.966H26.4v10.273h5.568V16.966H35.665z M54.915,45.912h-3.36
		V41.16H41.186v4.752h-3.36v-7.824h1.488c2.208-5.136,2.448-12.625,2.448-19.058v-2.064h11.233v21.122h1.92V45.912z M49.298,19.99
		h-4.176v0.432c0,5.088-0.24,12.529-2.256,17.666h6.433V19.99z M65.236,41.496c-4.993,0-8.065-3.984-8.065-11.425
		c0-7.777,2.16-13.441,7.297-13.441c4.032,0,6.672,3.024,6.672,11.233v2.064H61.06c0,5.472,1.536,8.353,4.512,8.353
		c2.112,0,3.792-0.96,4.752-1.632l0.864,2.88C69.652,40.729,67.636,41.496,65.236,41.496z M61.107,26.855H67.3
		c0-4.128-0.672-7.153-2.832-7.153C62.164,19.702,61.347,22.535,61.107,26.855z M78.725,29.111V41.16H74.98V16.966h3.745v11.185
		l5.808-11.185h3.792l-6,11.377L89.19,41.16h-4.081L78.725,29.111z M89.67,29.063c0-7.584,2.928-12.433,8.593-12.433
		c2.16,0,3.408,0.576,4.464,1.248l-0.528,3.553c-1.008-0.864-2.448-1.68-3.984-1.68c-2.688,0-4.608,3.024-4.608,9.121
		c0,6.048,1.44,9.505,4.465,9.505c1.824,0,3.216-0.72,4.08-1.488l0.864,2.784c-1.296,1.104-2.833,1.824-5.041,1.824
		C92.79,41.496,89.67,37.32,89.67,29.063z"/>
	<path d="M112.991,24.022c0-11.233,3.744-17.666,9.169-17.666c5.472,0,9.217,6.241,9.217,17.426c0,11.425-3.745,17.858-9.217,17.858
		C116.735,41.641,112.991,35.543,112.991,24.022z M128.977,23.927c0-10.321-2.88-15.602-6.816-15.602
		c-3.889,0-6.769,5.281-6.769,15.602c0,10.513,2.88,15.745,6.769,15.745C126.096,39.672,128.977,34.439,128.977,23.927z"/>
	<path d="M134.735,27.479c0-14.017,2.4-20.114,9.697-20.306c2.16-0.048,3.072-0.48,3.984-1.2l0.576,1.872
		c-0.864,0.912-2.304,1.296-4.513,1.344c-4.752,0.144-6.913,3.84-7.584,12.673c1.2-3.264,3.12-5.088,6-5.088
		c4.225,0,7.057,4.225,7.057,12.097c0,7.969-3.216,12.77-7.537,12.77C137.999,41.641,134.735,37.272,134.735,27.479z
		 M147.696,29.063c0-6.864-2.112-10.465-4.944-10.465c-2.448,0-4.752,2.352-5.76,5.953v3.456c0,7.969,2.304,11.81,5.376,11.81
		C145.392,39.816,147.696,35.736,147.696,29.063z"/>
	<path d="M152.83,29.207c0-8.064,3.216-12.721,7.393-12.721c4.176,0,7.393,4.128,7.393,12.433c0,8.017-3.216,12.722-7.393,12.722
		C156.046,41.641,152.83,37.464,152.83,29.207z M165.359,29.063c0-7.584-2.304-10.705-5.136-10.705
		c-2.833,0-5.137,3.36-5.137,10.705c0,7.537,2.304,10.753,5.137,10.753C163.055,39.816,165.359,36.36,165.359,29.063z"/>
	<path d="M173.999,39.48v9.168h-2.256V16.966h1.968l0.192,3.984c1.056-2.304,2.832-4.464,5.521-4.464
		c4.032,0,6.384,4.849,6.384,11.857c0,8.88-2.976,13.249-7.489,13.249C176.495,41.592,174.911,40.68,173.999,39.48z M183.551,28.535
		c0-6.336-1.728-10.081-4.512-10.081c-2.16,0-3.984,2.304-5.041,4.896v13.537c0.96,1.968,2.304,2.929,4.464,2.929
		C181.535,39.816,183.551,36.168,183.551,28.535z"/>
	<path d="M188.926,48.745l-0.24-2.112c0.384,0.096,0.864,0.191,1.488,0.191c1.632,0,2.784-1.584,3.504-4.271l0.192-0.721l-6-24.866
		h2.256l3.84,15.793c0.432,1.824,0.768,3.601,1.008,5.473h0.144c0.336-1.92,0.72-3.696,1.152-5.473l3.744-15.793h2.016
		l-6.192,25.442c-0.816,3.265-2.256,6.433-5.665,6.433C189.646,48.841,189.262,48.793,188.926,48.745z"/>
	<path d="M217.008,41.16h-13.153l-0.288,4.752h-1.776v-6.576h1.008c1.488-0.816,2.4-4.128,2.88-8.688
		c0.624-5.953,0.72-13.682,0.72-13.682h10.465v22.37h2.208v6.576h-1.776L217.008,41.16z M205.343,39.336h9.217V18.79h-6.145
		c0,0-0.144,6.769-0.768,12.385C207.215,35.208,206.591,37.896,205.343,39.336z"/>
	<path d="M221.47,29.207c0-8.064,3.216-12.721,7.393-12.721c4.176,0,7.393,4.128,7.393,12.433c0,8.017-3.216,12.722-7.393,12.722
		C224.686,41.641,221.47,37.464,221.47,29.207z M233.999,29.063c0-7.584-2.304-10.705-5.136-10.705
		c-2.833,0-5.137,3.36-5.137,10.705c0,7.537,2.304,10.753,5.137,10.753C231.695,39.816,233.999,36.36,233.999,29.063z"/>
	<path d="M240.382,41.16V16.966h5.088c4.272,0,6.576,2.017,6.576,5.857c0,2.448-1.056,4.464-3.408,5.521
		c3.121,0.912,4.513,2.928,4.513,5.856c0,4.752-3.024,6.96-7.585,6.96H240.382z M242.59,18.742v8.977h2.784
		c2.64,0,4.512-1.44,4.512-4.8c0-3.072-1.728-4.176-4.512-4.176H242.59z M242.59,29.399v10.033h2.976
		c3.121,0,5.329-1.344,5.329-5.088c0-3.504-1.872-4.945-5.376-4.945H242.59z"/>
	<path d="M266.734,37.896c-1.152,2.304-2.88,3.745-5.281,3.745c-3.264,0-5.521-2.593-5.521-7.009c0-5.185,2.833-7.873,8.065-7.873
		h2.64v-3.024c0-3.697-1.392-5.281-4.032-5.281c-2.064,0-3.937,0.96-5.088,2.64l-0.624-2.16c0.96-1.248,2.976-2.448,5.712-2.448
		c3.984,0,6.24,2.208,6.24,7.009v13.201c0,1.68,0.24,3.552,0.528,4.464h-2.064C267.118,40.536,266.878,39.624,266.734,37.896z
		 M266.638,35.063v-6.672h-2.592c-3.984,0-5.904,1.824-5.904,6.048c0,3.408,1.488,5.377,3.792,5.377
		C264.19,39.816,265.774,37.656,266.638,35.063z"/>
	<path d="M284.542,29.495h-8.257V41.16h-2.256V16.966h2.256v10.705h8.257V16.966h2.256V41.16h-2.256V29.495z"/>
	<path d="M303.262,24.311c0-1.248,0.096-2.304,0.191-3.312h-0.144c-0.336,1.056-0.768,2.064-1.296,3.12l-7.873,17.042h-1.92V16.966
		h2.112v16.802c0,1.296-0.096,2.352-0.192,3.408h0.144c0.336-1.104,0.816-2.16,1.296-3.216l7.872-16.994h1.969V41.16h-2.16V24.311z"
		/>
	<path d="M317.132,39.672c3.217,0,4.896-2.592,4.896-2.592l0.721,1.824c0,0-1.824,2.737-5.665,2.737
		c-5.137,0-7.488-4.657-7.488-12.578c0-7.92,2.976-12.577,7.057-12.577c4.176,0,6.864,4.369,6.097,12.961h-10.945
		C311.9,36.072,313.628,39.672,317.132,39.672z M311.852,27.671h8.785c0.384-6.433-1.536-9.312-3.984-9.312
		C314.108,18.358,312.044,21.623,311.852,27.671z"/>
</g>
<g>
</g>
<g>
</g>
<g>
</g>
<g>
</g>
<g>
</g>
<g>
</g>
<g>
</g>
<g>
</g>
<g>
</g>
<g>
</g>
<g>
</g>
<g>
</g>
<g>
</g>
<g>
</g>
<g>
</g>
</svg>
