<svg id="Layer_2" data-name="Layer 2" xmlns="http://www.w3.org/2000/svg" viewBox="0 0 40 40"><defs><style>.cls-1{fill:#294172;}.cls-2,.cls-3{fill:none;stroke:#3c6eb4;}.cls-2{stroke-width:4.41px;}.cls-3{stroke-width:4.39px;}.cls-4{fill:#fff;}</style></defs><title>Fedora</title><path id="voice" class="cls-1" d="M40,20A20,20,0,0,0,0,20V35.46A4.55,4.55,0,0,0,4.55,40H20A20,20,0,0,0,40,20"/><path id="in" class="cls-2" d="M11.56,21.19h7.22v7.22a7.22,7.22,0,1,1-7.22-7.22Z"/><g id="finity"><path id="in-2" data-name="in" class="cls-3" d="M26,21.11H18.84V13.92A7.19,7.19,0,1,1,26,21.11Z"/></g><path class="cls-4" d="M28.1,4.82A7.39,7.39,0,0,0,26,4.54a9.39,9.39,0,0,0-9.39,9.39V19H12.59a2.2,2.2,0,1,0,0,4.39h3.27a.7.7,0,0,1,.7.7V28.4a5,5,0,0,1-5,5c-.93,0-1.16-.12-1.79-.12a2.08,2.08,0,0,0-2.23,2.12,2.43,2.43,0,0,0,1.94,2.17,7.52,7.52,0,0,0,2.08.28A9.43,9.43,0,0,0,21,28.39v-5.1h4a2.19,2.19,0,1,0,0-4.37H21.77a.69.69,0,0,1-.69-.7v-4.3A5,5,0,0,1,26,9c.93,0,1.15.12,1.79.12A2.07,2.07,0,0,0,30,7,2.43,2.43,0,0,0,28.1,4.82Z"/></svg>