<svg id="Layer_2" data-name="Layer 2" xmlns="http://www.w3.org/2000/svg" viewBox="0 0 42 42"><defs><style>.cls-1{fill:#2a7a15;}.cls-2{fill:#99b592;}.cls-3{fill:#fff;}.cls-4{fill:#e01b1b;stroke:#e01b1b;stroke-width:0.01px;}</style></defs><title>Yandex_Tank</title><circle class="cls-1" cx="21" cy="21" r="21"/><path id="rect3799-1" class="cls-2" d="M15.43,11.78A5.25,5.25,0,0,0,10.17,17v5.77H9.92A4.14,4.14,0,0,0,5.76,27v.25a4.14,4.14,0,0,0,4.16,4.15H30.05a4.15,4.15,0,0,0,4.16-4.15V27a4.15,4.15,0,0,0-4.16-4.15H25.36V18.26h9.35a.58.58,0,0,0,.56.45h.49a.57.57,0,0,0,.57-.59V16.28a.56.56,0,0,0-.57-.57h-.49a.58.58,0,0,0-.58.51h-9.4a5.24,5.24,0,0,0-5.19-4.44ZM10.1,24.48a2.65,2.65,0,1,1-2.65,2.65A2.65,2.65,0,0,1,10.1,24.48Zm6.6,0a2.65,2.65,0,1,1-2.65,2.65A2.65,2.65,0,0,1,16.7,24.48Zm6.59,0a2.65,2.65,0,1,1-2.64,2.65A2.65,2.65,0,0,1,23.29,24.48Zm6.6,0a2.65,2.65,0,1,1-2.64,2.65A2.65,2.65,0,0,1,29.89,24.48Z"/><path id="rect3799" class="cls-3" d="M15.34,10.64a5.25,5.25,0,0,0-5.26,5.26v5.76H9.83a4.14,4.14,0,0,0-4.16,4.16v.25a4.14,4.14,0,0,0,4.16,4.15H30a4.15,4.15,0,0,0,4.16-4.15v-.25A4.15,4.15,0,0,0,30,21.66H25.27V17.11h9.35a.57.57,0,0,0,.56.45h.49a.57.57,0,0,0,.57-.58V15.14a.57.57,0,0,0-.57-.58h-.49a.58.58,0,0,0-.58.51H25.2A5.24,5.24,0,0,0,20,10.64ZM10,23.33A2.65,2.65,0,1,1,7.36,26,2.65,2.65,0,0,1,10,23.33Zm6.59,0A2.65,2.65,0,1,1,14,26,2.65,2.65,0,0,1,16.6,23.33Zm6.6,0A2.65,2.65,0,1,1,20.56,26,2.65,2.65,0,0,1,23.2,23.33Zm6.6,0A2.65,2.65,0,1,1,27.16,26,2.65,2.65,0,0,1,29.8,23.33Z"/><path id="path3883" class="cls-4" d="M17.54,13.09l.74,2.54,2.51,0-2.05,1.54.81,2.52-2-1.59-2,1.59.8-2.52-2-1.54,2.5,0Z"/></svg>