<svg width="36" height="36" viewBox="0 0 36 36" fill="none" xmlns="http://www.w3.org/2000/svg">
<g clip-path="url(#clip0)">
<path d="M24.013 19.6953C26.3767 19.6953 29.7994 19.2036 29.7994 16.3917C29.8071 16.1746 29.7881 15.9574 29.7427 15.745L28.3339 9.62762C28.0086 8.28122 27.7231 7.67043 25.3593 6.48856C23.527 5.55062 19.5275 4 18.3456 4C17.2489 4 16.9274 5.41825 15.615 5.41825C14.3518 5.41825 13.4139 4.35929 12.2301 4.35929C11.0955 4.35929 10.358 5.1346 9.78696 6.72304C9.78696 6.72304 8.19852 11.2085 7.99051 11.859C7.95933 11.9786 7.94657 12.1024 7.95269 12.2258C7.95269 13.9694 14.817 19.6858 24.013 19.6858V19.6953ZM30.1644 17.5339C30.4915 19.0845 30.4915 19.2452 30.4915 19.4495C30.4915 22.0969 27.5151 23.5662 23.6026 23.5662C14.7603 23.5718 7.01476 18.3905 7.01476 14.9678C7.01339 14.4906 7.10993 14.0182 7.29841 13.5798C4.12531 13.7386 0.00292969 14.306 0.00292969 17.9405C0.00292969 23.8933 14.1098 31.2304 25.2761 31.2304C33.8386 31.2304 35.9981 27.3576 35.9981 24.2999C35.9981 21.8945 33.918 19.1639 30.1682 17.5339" fill="#EE0000"/>
<path d="M30.1642 17.5335C30.4913 19.0842 30.4913 19.2449 30.4913 19.4491C30.4913 22.0965 27.5149 23.5658 23.6024 23.5658C14.7602 23.5715 7.01466 18.3902 7.01466 14.9675C7.0133 14.4903 7.10984 14.0179 7.29831 13.5795L7.9923 11.8662C7.9606 11.9832 7.94658 12.1043 7.9507 12.2255C7.9507 13.969 14.815 19.6855 24.0128 19.6855C26.3765 19.6855 29.7992 19.1976 29.7992 16.3838C29.8071 16.1661 29.788 15.9482 29.7425 15.7352L30.1642 17.5335Z" fill="black"/>
</g>
<defs>
<clipPath id="clip0">
<rect width="36" height="27.2304" fill="white" transform="translate(0 4)"/>
</clipPath>
</defs>
</svg>
