<svg id="Layer_2" data-name="Layer 2" xmlns="http://www.w3.org/2000/svg" viewBox="0 0 42 42"><defs><style>.cls-1{fill:#53a3da;}.cls-2{fill:#f1606d;}.cls-3{fill:#fff;}</style></defs><title>CoreOS</title><path class="cls-1" d="M21,0A21,21,0,1,0,42,21,21,21,0,0,0,21,0Z"/><path class="cls-2" d="M21,1.93c-3.38,0-6.24,5.4-7.27,12.91,0,.24-.07.48-.1.73-.14,1.18-.23,2.41-.28,3.67,0,.58,0,1.17,0,1.76s0,1.18,0,1.76c.05,1.26.14,2.49.28,3.67,1.59.21,3.28.35,5,.41.77,0,1.54.05,2.33.05s1.56,0,2.33-.05c1.76-.06,3.46-.2,5-.41l.52-.07c6.6-.93,11.18-3,11.18-5.36A19.07,19.07,0,0,0,21,1.93Z"/><path class="cls-3" d="M28.89,15.64a9.9,9.9,0,0,0-.61-.8A9.5,9.5,0,0,0,21,11.46c-.94,0-1.79,1.45-2.33,3.7a21.9,21.9,0,0,0-.48,3A28,28,0,0,0,18.06,21a28,28,0,0,0,.13,2.81,28,28,0,0,0,2.81.13,28,28,0,0,0,2.81-.13,17.6,17.6,0,0,0,4.85-1c1.18-.49,1.88-1.1,1.88-1.76A9.49,9.49,0,0,0,28.89,15.64Z"/></svg>