<svg width="36" height="36" viewBox="0 0 36 36" fill="none" xmlns="http://www.w3.org/2000/svg">
<path d="M18 35.8C27.8307 35.8 35.8 27.8307 35.8 18C35.8 8.16933 27.8307 0.200001 18 0.200001C8.16933 0.200001 0.199997 8.16933 0.199997 18C0.199997 27.8307 8.16933 35.8 18 35.8Z" fill="#0075DA"/>
<path fill-rule="evenodd" clip-rule="evenodd" d="M9 20H16V21C16 22.9 16.7 24.6 17.8 26H12C11 26 11 24.7 12 24.7H15V21.3H9.2C8.4 21.3 7.7 20.6 7.7 19.8V10.2C7.7 9.4 8.4 8.7 9.2 8.7H25.7C26.5 8.7 27.2 9.4 27.2 10.2V12.5V13V13.7C26.6445 13.4 26 13.3 26 13.3V12L26 10H9V20Z" fill="white"/>
<path d="M24 14C20.1 14 17 17.1 17 21C17 24.9 20.1 28 24 28C27.9 28 31 24.9 31 21C31 17.1 27.9 14 24 14ZM24 27C20.7 27 18 24.3 18 21C18 17.7 20.7 15 24 15C27.3 15 30 17.7 30 21C30 24.3 27.3 27 24 27Z" fill="white"/>
<path d="M21.1 20.9L22.8 22.5L21.1 24.1L21.9 24.9L24.2 22.5L21.9 20.1L21.1 20.9Z" fill="white"/>
<path d="M26.1 17.1L23.8 19.5L26.1 21.9L26.9 21.1L25.2 19.5L26.9 17.9L26.1 17.1Z" fill="white"/>
</svg>
