<svg id="Layer_2" data-name="Layer 2" xmlns="http://www.w3.org/2000/svg" viewBox="0 0 42 42"><defs><style>.cls-1{fill:#32373c;}</style></defs><title>WordPress</title><g id="W_Mark" data-name="W Mark"><path class="cls-1" d="M21,1.26a19.55,19.55,0,0,1,7.68,1.55A20.58,20.58,0,0,1,32,4.63,19.87,19.87,0,0,1,37.37,10a20.58,20.58,0,0,1,1.82,3.36,19.8,19.8,0,0,1,0,15.36A20.58,20.58,0,0,1,37.37,32,19.87,19.87,0,0,1,32,37.37a20.58,20.58,0,0,1-3.36,1.82,19.8,19.8,0,0,1-15.36,0A20.58,20.58,0,0,1,10,37.37,19.87,19.87,0,0,1,4.63,32a20.58,20.58,0,0,1-1.82-3.36,19.8,19.8,0,0,1,0-15.36A20.58,20.58,0,0,1,4.63,10,19.87,19.87,0,0,1,10,4.63a20.58,20.58,0,0,1,3.36-1.82A19.55,19.55,0,0,1,21,1.26M21,0A21,21,0,1,0,42,21,21,21,0,0,0,21,0Z"/><path class="cls-1" d="M3.5,21a17.51,17.51,0,0,0,9.86,15.75L5,13.88A17.25,17.25,0,0,0,3.5,21Zm29.31-.88a9.19,9.19,0,0,0-1.44-4.83c-.89-1.44-1.72-2.66-1.72-4.1a3,3,0,0,1,2.94-3.11h.23a17.5,17.5,0,0,0-26.44,3.3l1.12,0c1.83,0,4.67-.22,4.67-.22a.72.72,0,0,1,.11,1.44s-.95.11-2,.16l6.37,19,3.83-11.49-2.73-7.47c-.94,0-1.83-.16-1.83-.16A.72.72,0,0,1,16,11.19s2.89.22,4.61.22,4.66-.22,4.66-.22a.72.72,0,0,1,.11,1.44s-.94.11-2,.16l6.33,18.82,1.8-5.72A20.29,20.29,0,0,0,32.81,20.12Zm-11.5,2.41L16.06,37.79a17.54,17.54,0,0,0,10.75-.28,1.34,1.34,0,0,1-.12-.24ZM36.36,12.6a14.5,14.5,0,0,1,.11,1.8,16.49,16.49,0,0,1-1.33,6.27L29.8,36.13A17.52,17.52,0,0,0,36.36,12.6Z"/></g></svg>