<?xml version="1.0" encoding="UTF-8" standalone="no"?>
<svg
   xmlns:dc="http://purl.org/dc/elements/1.1/"
   xmlns:cc="http://creativecommons.org/ns#"
   xmlns:rdf="http://www.w3.org/1999/02/22-rdf-syntax-ns#"
   xmlns:svg="http://www.w3.org/2000/svg"
   xmlns="http://www.w3.org/2000/svg"
   xmlns:sodipodi="http://sodipodi.sourceforge.net/DTD/sodipodi-0.dtd"
   xmlns:inkscape="http://www.inkscape.org/namespaces/inkscape"
   id="svg60"
   version="1.1"
   height="38.040001"
   width="176"
   sodipodi:docname="logo-light.svg"
   inkscape:version="0.92.5 (2060ec1f9f, 2020-04-08)">
  <sodipodi:namedview
     pagecolor="#ffffff"
     bordercolor="#666666"
     borderopacity="1"
     objecttolerance="10"
     gridtolerance="10"
     guidetolerance="10"
     inkscape:pageopacity="0"
     inkscape:pageshadow="2"
     inkscape:window-width="1916"
     inkscape:window-height="1043"
     id="namedview19"
     showgrid="false"
     inkscape:zoom="4.5733333"
     inkscape:cx="20.677156"
     inkscape:cy="1.5272885"
     inkscape:window-x="0"
     inkscape:window-y="18"
     inkscape:window-maximized="0"
     inkscape:current-layer="svg60" />
  <metadata
     id="metadata66">
    <rdf:RDF>
      <cc:Work
         rdf:about="">
        <dc:format>image/svg+xml</dc:format>
        <dc:type
           rdf:resource="http://purl.org/dc/dcmitype/StillImage" />
        <dc:title></dc:title>
      </cc:Work>
    </rdf:RDF>
  </metadata>
  <defs
     id="defs64" />
  <text
     id="text78"
     y="19.198704"
     x="11.413479"
     style="font-style:normal;font-variant:normal;font-weight:300;font-stretch:normal;font-size:40px;line-height:1.25;font-family:'Yandex Sans Logotype';-inkscape-font-specification:'Yandex Sans Logotype, Light';font-variant-ligatures:normal;font-variant-caps:normal;font-variant-numeric:normal;font-feature-settings:normal;text-align:start;letter-spacing:0px;word-spacing:0px;writing-mode:lr-tb;text-anchor:start;fill:#000000;fill-opacity:1;stroke:none"
     xml:space="preserve"><tspan
       y="55.865372"
       x="11.413479"
       id="tspan80" /></text>
  <text
     id="text84"
     y="15.756533"
     x="39.675426"
     style="font-style:normal;font-variant:normal;font-weight:300;font-stretch:normal;font-size:40px;line-height:1.25;font-family:'Yandex Sans Display';-inkscape-font-specification:'Yandex Sans Display, Light';font-variant-ligatures:normal;font-variant-caps:normal;font-variant-numeric:normal;text-align:start;letter-spacing:0px;word-spacing:0px;writing-mode:lr-tb;text-anchor:start;fill:#000000;fill-opacity:1;stroke:none"
     xml:space="preserve"><tspan
       y="52.42321"
       x="39.675426"
       id="tspan82" /></text>
  <g
     aria-label="MDB Control Center"
     transform="scale(1.0119193,0.9882211)"
     style="font-style:normal;font-variant:normal;font-weight:300;font-stretch:normal;font-size:40.47677231px;line-height:1.25;font-family:'Yandex Sans Display';-inkscape-font-specification:'Yandex Sans Display, Light';font-variant-ligatures:normal;font-variant-caps:normal;font-variant-numeric:normal;text-align:start;letter-spacing:0px;word-spacing:0px;writing-mode:lr-tb;text-anchor:start;fill:#000000;fill-opacity:1;stroke:none;stroke-width:1.01191926"
     id="text88">
    <path
       d="M 3.9360248,11.070195 Q 3.6877672,10.201294 3.5015741,9.4565213 3.3464131,8.6807165 3.1912522,7.9049117 h -0.093097 q 0.093097,1.5826417 0.093097,3.2894123 V 26.741451 H 1.8258358 V 4.5534352 h 1.7998671 l 3.754895,14.1817108 q 0.1241287,0.434451 0.2482575,1.210256 0.155161,0.744772 0.2172253,1.365416 h 0.093097 q 0.093097,-0.620644 0.2482575,-1.365416 0.155161,-0.775805 0.2792897,-1.210256 L 12.252652,4.5534352 h 1.737802 V 26.741451 H 12.500909 V 11.194324 q 0,-0.806837 0.03103,-1.613674 0.03103,-0.8378691 0.0931,-1.6757383 H 12.500909 Q 12.283684,8.8358774 12.097491,9.5496178 11.94233,10.263358 11.756137,10.977099 L 8.4356924,23.32791 H 7.2254369 Z"
       style="font-style:normal;font-variant:normal;font-weight:normal;font-stretch:normal;font-size:31.03219032px;font-family:'Yandex Sans Logotype';-inkscape-font-specification:'Yandex Sans Logotype, Light';font-variant-ligatures:normal;font-variant-caps:normal;font-variant-numeric:normal;font-feature-settings:normal;text-align:start;writing-mode:lr-tb;text-anchor:start;stroke-width:1.01191926"
       id="path1003" />
    <path
       d="m 17.528081,4.5534352 h 2.606704 q 1.644706,0 3.072186,0.5275472 1.427481,0.5275473 2.482576,1.7378027 1.086126,1.1792232 1.70677,3.1652834 0.620644,1.9550275 0.620644,4.8410215 0,2.823929 -0.589612,5.027215 -0.589611,2.203286 -1.675738,3.754895 -1.086127,1.520577 -2.606704,2.327414 -1.520577,0.806837 -3.351477,0.806837 H 17.528081 Z M 19.07969,5.825755 v 19.643376 h 0.744773 q 1.489545,0 2.6998,-0.682708 1.210256,-0.682708 2.079157,-2.017092 0.868901,-1.334384 1.334384,-3.289412 0.496515,-1.98606 0.496515,-4.5307 0,-2.575672 -0.496515,-4.313475 Q 25.441289,8.8979418 24.572388,7.8428474 23.734519,6.7567207 22.586328,6.2912378 21.438137,5.825755 20.134785,5.825755 Z"
       style="font-style:normal;font-variant:normal;font-weight:normal;font-stretch:normal;font-size:31.03219032px;font-family:'Yandex Sans Logotype';-inkscape-font-specification:'Yandex Sans Logotype, Light';font-variant-ligatures:normal;font-variant-caps:normal;font-variant-numeric:normal;font-feature-settings:normal;text-align:start;writing-mode:lr-tb;text-anchor:start;stroke-width:1.01191926"
       id="path1005" />
    <path
       d="M 30.871872,26.741451 V 4.5534352 h 3.227347 q 2.637737,0 3.910056,1.3964485 1.303352,1.3964486 1.303352,3.8479916 0,1.9550277 -0.775804,3.2273477 -0.744773,1.241288 -2.172254,1.861932 1.923996,0.496515 2.82393,1.955028 0.899933,1.458512 0.899933,3.537669 0,1.675739 -0.496515,2.885994 -0.465483,1.179223 -1.334384,1.955028 -0.837869,0.775805 -2.017092,1.148191 -1.148192,0.372386 -2.513608,0.372386 z M 32.423481,5.7947228 v 8.5648842 h 1.55161 q 1.70677,0 2.761865,-1.055094 1.055094,-1.055095 1.055094,-3.3825089 0,-1.9860602 -0.899933,-3.0411546 -0.899934,-1.0861267 -2.854962,-1.0861267 z m 0,9.7751402 v 9.930301 h 1.086127 q 1.117159,0 2.048124,-0.248258 0.930966,-0.248257 1.582642,-0.837869 0.682708,-0.589612 1.024062,-1.520577 0.372387,-0.930966 0.372387,-2.296382 0,-2.327415 -1.024063,-3.661799 -0.99303,-1.365416 -3.072187,-1.365416 z"
       style="font-style:normal;font-variant:normal;font-weight:normal;font-stretch:normal;font-size:31.03219032px;font-family:'Yandex Sans Logotype';-inkscape-font-specification:'Yandex Sans Logotype, Light';font-variant-ligatures:normal;font-variant-caps:normal;font-variant-numeric:normal;font-feature-settings:normal;text-align:start;writing-mode:lr-tb;text-anchor:start;stroke-width:1.01191926"
       id="path1007" />
    <path
       d="m 52.966769,4.2431133 q 1.241288,0 2.079157,0.4654828 0.837869,0.4654829 1.334384,1.0240623 l -0.403418,1.5205773 q -0.527548,-0.7447725 -1.27232,-1.2412876 -0.744773,-0.496515 -1.737803,-0.496515 -1.086126,0 -1.955028,0.7137404 -0.837869,0.6827081 -1.427481,1.9860601 -0.589611,1.303352 -0.899933,3.1652834 -0.310322,1.861931 -0.310322,4.189346 0,2.327414 0.27929,4.220378 0.310322,1.892963 0.868901,3.227347 0.589612,1.303352 1.427481,2.048125 0.868901,0.71374 2.017092,0.71374 1.210256,0 1.98606,-0.465482 0.775805,-0.465483 1.27232,-0.961998 l 0.465483,1.179223 q -0.155161,0.186193 -0.496515,0.465483 -0.341354,0.248257 -0.837869,0.496515 -0.465483,0.217225 -1.086127,0.372386 -0.589611,0.186193 -1.334384,0.186193 -1.458513,0 -2.606704,-0.775805 -1.148191,-0.806837 -1.923996,-2.296382 -0.775805,-1.489545 -1.179223,-3.599734 -0.403418,-2.110189 -0.403418,-4.716893 0,-2.606704 0.403418,-4.716893 0.434451,-2.1101886 1.210255,-3.5997337 0.806837,-1.4895451 1.923996,-2.2963821 1.148191,-0.8068369 2.606704,-0.8068369 z"
       style="font-style:normal;font-variant:normal;font-weight:normal;font-stretch:normal;font-size:31.03219032px;font-family:'Yandex Sans Logotype';-inkscape-font-specification:'Yandex Sans Logotype, Light';font-variant-ligatures:normal;font-variant-caps:normal;font-variant-numeric:normal;font-feature-settings:normal;text-align:start;writing-mode:lr-tb;text-anchor:start;stroke-width:1.01191926"
       id="path1009" />
    <path
       d="m 62.586668,27.051773 q -1.024062,0 -1.892964,-0.496515 -0.868901,-0.527547 -1.520577,-1.520577 -0.620644,-0.99303 -0.99303,-2.482575 -0.372386,-1.520578 -0.372386,-3.53767 0,-1.955028 0.372386,-3.475605 0.372386,-1.55161 0.99303,-2.575672 0.651676,-1.055095 1.520577,-1.613674 0.868902,-0.55858 1.892964,-0.55858 1.024062,0 1.892964,0.496515 0.868901,0.496516 1.489545,1.520578 0.651676,0.99303 1.024062,2.513607 0.372386,1.489545 0.372386,3.506638 0,1.955028 -0.372386,3.475605 -0.372386,1.520577 -1.024062,2.575672 -0.620644,1.055094 -1.489545,1.613674 -0.868902,0.558579 -1.892964,0.558579 z m 0,-1.179223 q 1.365416,0 2.327414,-1.706771 0.99303,-1.70677 0.99303,-5.24444 0,-1.830899 -0.279289,-3.134251 -0.248258,-1.334384 -0.713741,-2.172253 -0.43445,-0.837869 -1.055094,-1.210256 -0.589612,-0.403418 -1.27232,-0.403418 -1.365416,0 -2.358446,1.675738 -0.961998,1.675738 -0.961998,5.24444 0,1.8309 0.248257,3.165284 0.27929,1.303352 0.713741,2.141221 0.465482,0.837869 1.055094,1.241287 0.620644,0.403419 1.303352,0.403419 z"
       style="font-style:normal;font-variant:normal;font-weight:normal;font-stretch:normal;font-size:31.03219032px;font-family:'Yandex Sans Logotype';-inkscape-font-specification:'Yandex Sans Logotype, Light';font-variant-ligatures:normal;font-variant-caps:normal;font-variant-numeric:normal;font-feature-settings:normal;text-align:start;writing-mode:lr-tb;text-anchor:start;stroke-width:1.01191926"
       id="path1011" />
    <path
       d="m 74.999487,12.032193 q -1.179224,0 -2.048125,0.899934 -0.868901,0.899933 -1.458513,2.389478 V 26.741451 H 70.034336 V 11.101227 h 1.334384 l 0.06207,2.575672 h 0.06206 q 0.155161,-0.434451 0.465483,-0.930966 0.341354,-0.496515 0.806837,-0.930965 0.465483,-0.434451 1.086127,-0.713741 0.620643,-0.310322 1.42748,-0.310322 1.582642,0 2.420511,0.961998 0.868901,0.961998 0.868901,2.82393 V 26.741451 H 77.109675 V 14.763026 q 0,-2.730833 -2.110188,-2.730833 z"
       style="font-style:normal;font-variant:normal;font-weight:normal;font-stretch:normal;font-size:31.03219032px;font-family:'Yandex Sans Logotype';-inkscape-font-specification:'Yandex Sans Logotype, Light';font-variant-ligatures:normal;font-variant-caps:normal;font-variant-numeric:normal;font-feature-settings:normal;text-align:start;writing-mode:lr-tb;text-anchor:start;stroke-width:1.01191926"
       id="path1013" />
    <path
       d="m 86.54344,26.555258 q -0.248258,0.155161 -0.589612,0.248258 -0.341354,0.0931 -0.837869,0.0931 -1.396449,0 -2.079157,-0.899933 Q 82.385126,25.065713 82.385126,23.6072 V 12.249418 h -1.582641 v -1.148191 h 1.582641 l 0.155161,-3.1032187 h 1.303352 v 3.1032187 h 2.668769 v 1.148191 h -2.668769 v 11.202621 q 0,1.179223 0.341354,1.706771 0.372387,0.527547 1.086127,0.527547 0.341354,0 0.558579,-0.06207 0.248258,-0.0931 0.403419,-0.155161 z"
       style="font-style:normal;font-variant:normal;font-weight:normal;font-stretch:normal;font-size:31.03219032px;font-family:'Yandex Sans Logotype';-inkscape-font-specification:'Yandex Sans Logotype, Light';font-variant-ligatures:normal;font-variant-caps:normal;font-variant-numeric:normal;font-feature-settings:normal;text-align:start;writing-mode:lr-tb;text-anchor:start;stroke-width:1.01191926"
       id="path1015" />
    <path
       d="m 94.146308,12.528708 q -2.637736,0.0931 -3.723863,3.351477 V 26.741451 H 88.963932 V 11.101227 h 1.334384 l 0.06207,3.134252 h 0.0931 q 0.186193,-0.55858 0.496515,-1.117159 0.341354,-0.55858 0.806837,-0.99303 0.465483,-0.465483 1.055095,-0.744773 0.620643,-0.310322 1.334384,-0.372386 z"
       style="font-style:normal;font-variant:normal;font-weight:normal;font-stretch:normal;font-size:31.03219032px;font-family:'Yandex Sans Logotype';-inkscape-font-specification:'Yandex Sans Logotype, Light';font-variant-ligatures:normal;font-variant-caps:normal;font-variant-numeric:normal;font-feature-settings:normal;text-align:start;writing-mode:lr-tb;text-anchor:start;stroke-width:1.01191926"
       id="path1017" />
    <path
       d="m 100.04237,27.051773 q -1.024064,0 -1.892966,-0.496515 -0.868901,-0.527547 -1.520577,-1.520577 -0.620644,-0.99303 -0.99303,-2.482575 -0.372386,-1.520578 -0.372386,-3.53767 0,-1.955028 0.372386,-3.475605 0.372386,-1.55161 0.99303,-2.575672 0.651676,-1.055095 1.520577,-1.613674 0.868902,-0.55858 1.892966,-0.55858 1.02406,0 1.89296,0.496515 0.8689,0.496516 1.48955,1.520578 0.65167,0.99303 1.02406,2.513607 0.37239,1.489545 0.37239,3.506638 0,1.955028 -0.37239,3.475605 -0.37239,1.520577 -1.02406,2.575672 -0.62065,1.055094 -1.48955,1.613674 -0.8689,0.558579 -1.89296,0.558579 z m 0,-1.179223 q 1.36541,0 2.32741,-1.706771 0.99303,-1.70677 0.99303,-5.24444 0,-1.830899 -0.27929,-3.134251 -0.24825,-1.334384 -0.71374,-2.172253 -0.43445,-0.837869 -1.05509,-1.210256 -0.58961,-0.403418 -1.27232,-0.403418 -1.365418,0 -2.358448,1.675738 -0.961998,1.675738 -0.961998,5.24444 0,1.8309 0.248257,3.165284 0.27929,1.303352 0.713741,2.141221 0.465482,0.837869 1.055094,1.241287 0.620644,0.403419 1.303354,0.403419 z"
       style="font-style:normal;font-variant:normal;font-weight:normal;font-stretch:normal;font-size:31.03219032px;font-family:'Yandex Sans Logotype';-inkscape-font-specification:'Yandex Sans Logotype, Light';font-variant-ligatures:normal;font-variant-caps:normal;font-variant-numeric:normal;font-feature-settings:normal;text-align:start;writing-mode:lr-tb;text-anchor:start;stroke-width:1.01191926"
       id="path1019" />
    <path
       d="M 108.97958,4.5534352 V 26.741451 h -1.45852 V 4.5534352 Z"
       style="font-style:normal;font-variant:normal;font-weight:normal;font-stretch:normal;font-size:31.03219032px;font-family:'Yandex Sans Logotype';-inkscape-font-specification:'Yandex Sans Logotype, Light';font-variant-ligatures:normal;font-variant-caps:normal;font-variant-numeric:normal;font-feature-settings:normal;text-align:start;writing-mode:lr-tb;text-anchor:start;stroke-width:1.01191926"
       id="path1021" />
    <path
       d="m 122.63371,4.2431133 q 1.24129,0 2.07915,0.4654828 0.83787,0.4654829 1.33439,1.0240623 l -0.40342,1.5205773 q -0.52755,-0.7447725 -1.27232,-1.2412876 -0.74477,-0.496515 -1.7378,-0.496515 -1.08613,0 -1.95503,0.7137404 -0.83787,0.6827081 -1.42748,1.9860601 -0.58961,1.303352 -0.89993,3.1652834 -0.31033,1.861931 -0.31033,4.189346 0,2.327414 0.27929,4.220378 0.31033,1.892963 0.8689,3.227347 0.58962,1.303352 1.42749,2.048125 0.8689,0.71374 2.01709,0.71374 1.21025,0 1.98606,-0.465482 0.7758,-0.465483 1.27232,-0.961998 l 0.46548,1.179223 q -0.15516,0.186193 -0.49651,0.465483 -0.34136,0.248257 -0.83787,0.496515 -0.46549,0.217225 -1.08613,0.372386 -0.58961,0.186193 -1.33438,0.186193 -1.45852,0 -2.60671,-0.775805 -1.14819,-0.806837 -1.92399,-2.296382 -0.77581,-1.489545 -1.17923,-3.599734 -0.40342,-2.110189 -0.40342,-4.716893 0,-2.606704 0.40342,-4.716893 0.43445,-2.1101886 1.21026,-3.5997337 0.80684,-1.4895451 1.92399,-2.2963821 1.1482,-0.8068369 2.60671,-0.8068369 z"
       style="font-style:normal;font-variant:normal;font-weight:normal;font-stretch:normal;font-size:31.03219032px;font-family:'Yandex Sans Logotype';-inkscape-font-specification:'Yandex Sans Logotype, Light';font-variant-ligatures:normal;font-variant-caps:normal;font-variant-numeric:normal;font-feature-settings:normal;text-align:start;writing-mode:lr-tb;text-anchor:start;stroke-width:1.01191926"
       id="path1023" />
    <path
       d="m 128.90213,19.169597 q 0.0621,3.227348 0.89993,4.934118 0.83787,1.675738 2.54464,1.675738 0.7758,0 1.36542,-0.248257 0.58961,-0.248258 0.99303,-0.589612 0.46548,-0.341354 0.80683,-0.837869 l 0.46549,1.179223 q -0.37239,0.527548 -0.89994,0.899934 -0.46548,0.341354 -1.14819,0.589611 -0.68271,0.27929 -1.61367,0.27929 -2.48258,0 -3.6618,-2.141221 -1.17922,-2.141221 -1.17922,-5.989213 0,-1.923995 0.34135,-3.413541 0.34135,-1.520577 0.93097,-2.575671 0.62064,-1.055095 1.45851,-1.582642 0.83787,-0.55858 1.8309,-0.55858 1.02406,0 1.8309,0.527548 0.80683,0.527547 1.33438,1.582641 0.52755,1.055095 0.74477,2.637737 0.21723,1.551609 0.031,3.630766 z m 3.13425,-7.168436 q -1.24129,0 -2.14122,1.551609 -0.8689,1.520578 -0.962,4.468636 h 5.67889 q 0.18619,-3.134251 -0.62064,-4.561732 -0.77581,-1.458513 -1.95503,-1.458513 z"
       style="font-style:normal;font-variant:normal;font-weight:normal;font-stretch:normal;font-size:31.03219032px;font-family:'Yandex Sans Logotype';-inkscape-font-specification:'Yandex Sans Logotype, Light';font-variant-ligatures:normal;font-variant-caps:normal;font-variant-numeric:normal;font-feature-settings:normal;text-align:start;writing-mode:lr-tb;text-anchor:start;stroke-width:1.01191926"
       id="path1025" />
    <path
       d="m 143.70447,12.032193 q -1.17922,0 -2.04812,0.899934 -0.8689,0.899933 -1.45851,2.389478 v 11.419846 h -1.45852 V 11.101227 h 1.33439 l 0.0621,2.575672 h 0.0621 q 0.15516,-0.434451 0.46548,-0.930966 0.34135,-0.496515 0.80684,-0.930965 0.46548,-0.434451 1.08612,-0.713741 0.62065,-0.310322 1.42748,-0.310322 1.58264,0 2.42051,0.961998 0.86891,0.961998 0.86891,2.82393 v 12.164618 h -1.45852 V 14.763026 q 0,-2.730833 -2.11019,-2.730833 z"
       style="font-style:normal;font-variant:normal;font-weight:normal;font-stretch:normal;font-size:31.03219032px;font-family:'Yandex Sans Logotype';-inkscape-font-specification:'Yandex Sans Logotype, Light';font-variant-ligatures:normal;font-variant-caps:normal;font-variant-numeric:normal;font-feature-settings:normal;text-align:start;writing-mode:lr-tb;text-anchor:start;stroke-width:1.01191926"
       id="path1027" />
    <path
       d="m 155.24843,26.555258 q -0.24825,0.155161 -0.58961,0.248258 -0.34135,0.0931 -0.83787,0.0931 -1.39645,0 -2.07915,-0.899933 -0.65168,-0.930966 -0.65168,-2.389479 V 12.249418 h -1.58264 v -1.148191 h 1.58264 l 0.15516,-3.1032187 h 1.30335 v 3.1032187 h 2.66877 v 1.148191 h -2.66877 v 11.202621 q 0,1.179223 0.34136,1.706771 0.37238,0.527547 1.08612,0.527547 0.34136,0 0.55858,-0.06207 0.24826,-0.0931 0.40342,-0.155161 z"
       style="font-style:normal;font-variant:normal;font-weight:normal;font-stretch:normal;font-size:31.03219032px;font-family:'Yandex Sans Logotype';-inkscape-font-specification:'Yandex Sans Logotype, Light';font-variant-ligatures:normal;font-variant-caps:normal;font-variant-numeric:normal;font-feature-settings:normal;text-align:start;writing-mode:lr-tb;text-anchor:start;stroke-width:1.01191926"
       id="path1029" />
    <path
       d="m 158.28956,19.169597 q 0.0621,3.227348 0.89994,4.934118 0.83787,1.675738 2.54464,1.675738 0.7758,0 1.36541,-0.248257 0.58961,-0.248258 0.99303,-0.589612 0.46548,-0.341354 0.80684,-0.837869 l 0.46548,1.179223 q -0.37238,0.527548 -0.89993,0.899934 -0.46548,0.341354 -1.14819,0.589611 -0.68271,0.27929 -1.61368,0.27929 -2.48257,0 -3.6618,-2.141221 -1.17922,-2.141221 -1.17922,-5.989213 0,-1.923995 0.34136,-3.413541 0.34135,-1.520577 0.93096,-2.575671 0.62065,-1.055095 1.45851,-1.582642 0.83787,-0.55858 1.8309,-0.55858 1.02407,0 1.8309,0.527548 0.80684,0.527547 1.33439,1.582641 0.52754,1.055095 0.74477,2.637737 0.21722,1.551609 0.031,3.630766 z m 3.13425,-7.168436 q -1.24128,0 -2.14122,1.551609 -0.8689,1.520578 -0.962,4.468636 h 5.6789 q 0.18619,-3.134251 -0.62065,-4.561732 -0.7758,-1.458513 -1.95503,-1.458513 z"
       style="font-style:normal;font-variant:normal;font-weight:normal;font-stretch:normal;font-size:31.03219032px;font-family:'Yandex Sans Logotype';-inkscape-font-specification:'Yandex Sans Logotype, Light';font-variant-ligatures:normal;font-variant-caps:normal;font-variant-numeric:normal;font-feature-settings:normal;text-align:start;writing-mode:lr-tb;text-anchor:start;stroke-width:1.01191926"
       id="path1031" />
    <path
       d="m 173.30915,12.528708 q -2.63774,0.0931 -3.72386,3.351477 v 10.861266 h -1.45852 V 11.101227 h 1.33439 l 0.0621,3.134252 h 0.0931 q 0.18619,-0.55858 0.49651,-1.117159 0.34136,-0.55858 0.80684,-0.99303 0.46548,-0.465483 1.0551,-0.744773 0.62064,-0.310322 1.33438,-0.372386 z"
       style="font-style:normal;font-variant:normal;font-weight:normal;font-stretch:normal;font-size:31.03219032px;font-family:'Yandex Sans Logotype';-inkscape-font-specification:'Yandex Sans Logotype, Light';font-variant-ligatures:normal;font-variant-caps:normal;font-variant-numeric:normal;font-feature-settings:normal;text-align:start;writing-mode:lr-tb;text-anchor:start;stroke-width:1.01191926"
       id="path1033" />
  </g>
  <text
     id="text917"
     y="13.220204"
     x="94.20649"
     style="font-style:normal;font-variant:normal;font-weight:300;font-stretch:normal;font-size:40px;line-height:1.25;font-family:'Yandex Sans Display';-inkscape-font-specification:'Yandex Sans Display, Light';font-variant-ligatures:normal;font-variant-caps:normal;font-variant-numeric:normal;text-align:start;letter-spacing:0px;word-spacing:0px;writing-mode:lr-tb;text-anchor:start;fill:#000000;fill-opacity:1;stroke:none"
     xml:space="preserve"><tspan
       y="49.886879"
       x="94.20649"
       id="tspan915" /></text>
  <text
     id="text881"
     y="10.502709"
     x="71.560699"
     style="font-style:normal;font-variant:normal;font-weight:300;font-stretch:normal;font-size:40px;line-height:1.25;font-family:'Yandex Sans Display';-inkscape-font-specification:'Yandex Sans Display, Light';font-variant-ligatures:normal;font-variant-caps:normal;font-variant-numeric:normal;text-align:start;letter-spacing:0px;word-spacing:0px;writing-mode:lr-tb;text-anchor:start;fill:#000000;fill-opacity:1;stroke:none"
     xml:space="preserve"><tspan
       y="47.169384"
       x="71.560699"
       id="tspan879" /></text>
  <text
     id="text885"
     y="22.640863"
     x="72.285362"
     style="font-style:normal;font-variant:normal;font-weight:300;font-stretch:normal;font-size:40px;line-height:1.25;font-family:'Yandex Sans Display';-inkscape-font-specification:'Yandex Sans Display, Light';font-variant-ligatures:normal;font-variant-caps:normal;font-variant-numeric:normal;text-align:start;letter-spacing:0px;word-spacing:0px;writing-mode:lr-tb;text-anchor:start;fill:#000000;fill-opacity:1;stroke:none"
     xml:space="preserve"><tspan
       y="59.307529"
       x="72.285362"
       id="tspan883" /></text>
  <text
     id="text5278"
     y="3.7089727"
     x="81.524849"
     style="font-style:normal;font-variant:normal;font-weight:300;font-stretch:normal;font-size:40px;line-height:1.25;font-family:'Yandex Sans Logotype';-inkscape-font-specification:'Yandex Sans Logotype, Light';font-variant-ligatures:normal;font-variant-caps:normal;font-variant-numeric:normal;font-feature-settings:normal;text-align:start;letter-spacing:0px;word-spacing:0px;writing-mode:lr-tb;text-anchor:start;fill:#000000;fill-opacity:1;stroke:none"
     xml:space="preserve"><tspan
       y="40.375648"
       x="81.524849"
       id="tspan5276" /></text>
</svg>
