<svg xmlns="http://www.w3.org/2000/svg" xmlns:xlink="http://www.w3.org/1999/xlink" viewBox="0 0 36.01037 36"><defs><style>.cls-1{fill:none;}.cls-2{fill:url(#linear-gradient);}.cls-3{fill:url(#linear-gradient-2);}</style><linearGradient id="linear-gradient" x1="574.97851" y1="-407.02857" x2="575.33969" y2="-407.02857" gradientTransform="matrix(0, -18.42442, -18.44333, 0, -7488.95096, 10614.76028)" gradientUnits="userSpaceOnUse"><stop offset="0" stop-color="#04b6f0"/><stop offset="1" stop-color="#3ecaf0"/></linearGradient><linearGradient id="linear-gradient-2" x1="575.56807" y1="-407.06696" x2="576.12442" y2="-407.06696" xlink:href="#linear-gradient"/></defs><title>Opencart_36x36</title><g id="Layer_2" data-name="Layer 2"><g id="NEW_Logos" data-name="NEW Logos"><rect class="cls-1" width="36" height="36"/><path class="cls-2" d="M4.68513,18.48338A2.603,2.603,0,0,1,4.05526,20.261a2.16106,2.16106,0,0,1-1.70663.75569A2.15854,2.15854,0,0,1,.642,20.261a2.81722,2.81722,0,0,1,0-3.55516,2.18315,2.18315,0,0,1,1.70666-.7475,2.16911,2.16911,0,0,1,1.70663.7475A2.59651,2.59651,0,0,1,4.68513,18.48338Zm-1.38941,0a1.36849,1.36849,0,0,0-.22926-.80588.82309.82309,0,0,0-.71783-.37033.82347.82347,0,0,0-.718.37033,1.358,1.358,0,0,0-.23092.80588,1.4015,1.4015,0,0,0,.23092.81388.82363.82363,0,0,0,.718.37052.82325.82325,0,0,0,.71783-.37052A1.41251,1.41251,0,0,0,3.29572,18.48338Zm6.41308,0a2.73561,2.73561,0,0,1-.57007,1.72427,1.88957,1.88957,0,0,1-1.57041.809,1.73625,1.73625,0,0,1-1.145-.39032c0,.05967.00664.20424.02.43536.01327.23231.01982.42171.01982.57124q0,1.23879-.73773,1.23773a.64853.64853,0,0,1-.49695-.21271.74014.74014,0,0,1-.19445-.51656V16.77062a.72075.72075,0,0,1,.19944-.50828.6512.6512,0,0,1,.49361-.21252.67788.67788,0,0,1,.6481.44179,1.45693,1.45693,0,0,1,1.19147-.53332,1.89515,1.89515,0,0,1,1.57207.79907A2.75386,2.75386,0,0,1,9.7088,18.48338Zm-1.38941,0a1.369,1.369,0,0,0-.23083-.80588.88112.88112,0,0,0-1.43592,0,1.36836,1.36836,0,0,0-.22928.80588,1.41237,1.41237,0,0,0,.22928.81388.88086.88086,0,0,0,1.43592,0A1.41312,1.41312,0,0,0,8.31939,18.48338ZM14.764,18.334a.59316.59316,0,0,1-.1646.48167.81369.81369,0,0,1-.51176.13278H11.57988a.672.672,0,0,0,.374.61278,1.50219,1.50219,0,0,0,.73781.16814,2.00525,2.00525,0,0,0,.81436-.22265,2.06974,2.06974,0,0,1,.61-.22284.54151.54151,0,0,1,.41035.17782.60082.60082,0,0,1,.16791.42539q0,.5703-.85267.88875a3.80948,3.80948,0,0,1-1.3243.24078,2.28839,2.28839,0,0,1-1.75655-.72078,2.55477,2.55477,0,0,1-.67133-1.81248,2.50819,2.50819,0,0,1,.69785-1.78238,2.27175,2.27175,0,0,1,1.7283-.74271,2.08564,2.08564,0,0,1,1.60374.70267A2.397,2.397,0,0,1,14.764,18.334ZM13.37475,17.985a.81357.81357,0,0,0-.29419-.57991.8798.8798,0,0,0-.60325-.26057.89024.89024,0,0,0-.61319.26057.777.777,0,0,0-.28424.57991Zm6.05721,2.2109a.74039.74039,0,0,1-.19422.51674.64865.64865,0,0,1-.497.2128q-.72788,0-.728-1.15457c0-.14787.01-.38037.02994-.701.02165-.31905.03169-.55321.03169-.70109q0-1.22373-.79106-1.22426-.7903,0-.78939,1.22426c0,.14788.00829.382.02322.70109.01667.32063.025.55313.025.701q0,1.15368-.71783,1.15457a.64232.64232,0,0,1-.49529-.2128.734.734,0,0,1-.19609-.51674v-3.4267A.71238.71238,0,0,1,15.329,16.259a.649.649,0,0,1,.497-.2092.69715.69715,0,0,1,.69286.44179,1.29586,1.29586,0,0,1,1.1899-.53332,1.80317,1.80317,0,0,1,1.25308.41685,1.60713,1.60713,0,0,1,.47018,1.22611Zm4.35889-.1476q0,.47084-.61307.74593a2.47017,2.47017,0,0,1-1.03192.22246,2.15824,2.15824,0,0,1-1.70671-.75569,2.8133,2.8133,0,0,1,.01321-3.56841,2.14342,2.14342,0,0,1,1.6935-.73425,2.7519,2.7519,0,0,1,1.04041.17782.79755.79755,0,0,1,.60458.7475.69939.69939,0,0,1-.1595.45348.50688.50688,0,0,1-.40865.196,1.62725,1.62725,0,0,1-.48868-.1128,1.5924,1.5924,0,0,0-.50662-.11315.92557.92557,0,0,0-.77294.35375,1.2678,1.2678,0,0,0-.25765.82246,1.35372,1.35372,0,0,0,.23122.804.81907.81907,0,0,0,.71934.38037,1.84583,1.84583,0,0,0,.56-.12146,1.90021,1.90021,0,0,1,.5153-.121.517.517,0,0,1,.40053.19595A.64527.64527,0,0,1,23.79085,20.04825Zm5.05029.1476a.7397.7397,0,0,1-.19442.51674.65139.65139,0,0,1-.49869.2128.66636.66636,0,0,1-.648-.442,1.45634,1.45634,0,0,1-1.19141.53323,1.90444,1.90444,0,0,1-1.58213-.809,2.9387,2.9387,0,0,1,0-3.45029,1.922,1.922,0,0,1,1.58213-.79907A1.45676,1.45676,0,0,1,27.5,16.49161a.66584.66584,0,0,1,.648-.44179.65193.65193,0,0,1,.494.21252.71767.71767,0,0,1,.19914.50681Zm-1.38923-1.71247a1.36717,1.36717,0,0,0-.22934-.80588.83909.83909,0,0,0-.71783-.37033.82363.82363,0,0,0-.718.37033,1.35841,1.35841,0,0,0-.23066.80588,1.44873,1.44873,0,0,0,.22216.81388.84448.84448,0,0,0,.72651.37052.82347.82347,0,0,0,.71783-.37052A1.41112,1.41112,0,0,0,27.45191,18.48338Zm4.934-1.80586a.6113.6113,0,0,1-.43375.61287q-.40119.13482-.79937.27579a.971.971,0,0,0-.43546.92382v1.70585a.74267.74267,0,0,1-.19592.51674.69029.69029,0,0,1-.997,0,.73287.73287,0,0,1-.1963-.51674v-3.4267a.71779.71779,0,0,1,.19441-.51013.655.655,0,0,1,.49869-.2092.69757.69757,0,0,1,.69292.44179,1.26072,1.26072,0,0,1,.96056-.53332.683.683,0,0,1,.50341.21252A.70761.70761,0,0,1,32.38592,16.67752Zm3.62445.06318a.54846.54846,0,0,1-.362.58653,2.75958,2.75958,0,0,1-.74331.063v2.80564a.74247.74247,0,0,1-.19574.51674.687.687,0,0,1-.99416,0,.7303.7303,0,0,1-.19914-.51674V17.39021a1.36853,1.36853,0,0,1-.62477-.10782.56506.56506,0,0,1-.268-.54169.54323.54323,0,0,1,.276-.53332,1.3354,1.3354,0,0,1,.61684-.10618v-.59474q0-1.049.69461-1.04813c.46188,0,.69443.34881.69443,1.04813v.59474a2.759,2.759,0,0,1,.74331.063A.542.542,0,0,1,36.01037,16.7407Z"/><path class="cls-3" d="M27.72818,3.89428C27.72147,3.13661,26.32,2.79269,22.692,2.79269,14.1795,2.79269,12.01983,2.42946,9.7088,0c.97227,1.45875,1.50422,4.19485,10.50166,4.05869,9.38742-.14446,3.66053,2.418,1.99421,5.31314,3.00507-2.6793,5.51445-4.44533,5.52351-5.46659Zm-11.9619,7.78021a1.28675,1.28675,0,0,1-2.57349,0v-.001a1.29271,1.29271,0,0,1,1.28742-1.28595h.00067A1.28574,1.28574,0,0,1,15.76628,11.67449Zm5.86214,0a1.28657,1.28657,0,0,1-2.57314,0v-.001a1.29263,1.29263,0,0,1,1.28707-1.28595H20.343A1.28574,1.28574,0,0,1,21.62842,11.67449Z"/></g></g></svg>