<svg id="Layer_2" data-name="Layer 2" xmlns="http://www.w3.org/2000/svg" viewBox="0 0 42 40"><defs><style>.cls-1{fill:#e24329;}.cls-2{fill:#fc6d26;}.cls-3{fill:#fca326;}</style></defs><title>GitLab</title><g id="Page-1"><g id="Fill-1-_-Group-24" data-name="Fill-1-+-Group-24"><g id="Group-24"><g id="Group"><path id="Fill-4" class="cls-1" d="M21,39.34h0l7.73-23.8H13.27L21,39.34Z"/><path id="Fill-8" class="cls-2" d="M21,39.34l-7.73-23.8H2.43Z"/><path id="Fill-12" class="cls-3" d="M2.43,15.54h0L.08,22.78a1.59,1.59,0,0,0,.58,1.79L21,39.34Z"/><path id="Fill-16" class="cls-1" d="M2.43,15.54H13.27L8.61,1.21a.8.8,0,0,0-1.52,0Z"/><path id="Fill-18" class="cls-2" d="M21,39.34l7.73-23.8H39.57Z"/><path id="Fill-20" class="cls-3" d="M39.57,15.54h0l2.35,7.24a1.59,1.59,0,0,1-.58,1.79L21,39.34Z"/><path id="Fill-22" class="cls-1" d="M39.57,15.54H28.73L33.39,1.21a.8.8,0,0,1,1.52,0Z"/></g></g></g></g></svg>