<svg id="Layer_2" data-name="Layer 2" xmlns="http://www.w3.org/2000/svg" viewBox="0 0 42 42"><defs><style>.cls-1{fill:#092e20;}.cls-2{fill:#fff;}</style></defs><title>Django</title><circle class="cls-1" cx="21" cy="21" r="21"/><path class="cls-2" d="M7.18,15.68h2v9.16a13.3,13.3,0,0,1-2.57.27c-2.42,0-3.68-1.09-3.68-3.19a3.17,3.17,0,0,1,3.41-3.33,3.07,3.07,0,0,1,.86.11v-3Zm0,4.61a1.91,1.91,0,0,0-.67-.1,1.49,1.49,0,0,0-1.58,1.69A1.44,1.44,0,0,0,6.5,23.51a4.35,4.35,0,0,0,.68-.05Z"/><path class="cls-2" d="M12.3,18.74v4.58a6.14,6.14,0,0,1-.46,3,3.18,3.18,0,0,1-1.62,1.46l-1.83-.87A2.87,2.87,0,0,0,10,25.58a6.28,6.28,0,0,0,.38-2.94v-3.9Zm-2-3h2v2h-2Z"/><path class="cls-2" d="M13.5,19.19a5.83,5.83,0,0,1,2.62-.6c1,0,1.68.27,2,.8a3.13,3.13,0,0,1,.22,1.5v4a21.64,21.64,0,0,1-2.83.22c-1.66,0-2.4-.57-2.4-1.86s1-2,3.41-2.23V20.6c0-.36-.18-.49-.68-.49a5.27,5.27,0,0,0-2.32.6V19.19Zm3.09,3.14c-1.31.13-1.73.34-1.73.85s.24.57.78.57a5.8,5.8,0,0,0,.95-.09V22.33Z"/><path class="cls-2" d="M19.28,19a12.22,12.22,0,0,1,3.11-.45,3,3,0,0,1,2.18.69,2.33,2.33,0,0,1,.54,1.87V25h-2v-3.8c0-.76-.25-1-1-1a2.84,2.84,0,0,0-.91.14V25h-2V19Z"/><path class="cls-2" d="M25.88,26.11a4.5,4.5,0,0,0,2.12.53c1.3,0,1.85-.53,1.85-1.79v0a2.76,2.76,0,0,1-1.29.27,2.7,2.7,0,0,1-2.83-2.95c0-2.25,1.63-3.52,4.52-3.52a12.62,12.62,0,0,1,2.58.28l-.68,1.43c-.52-.11,0,0-.44-.06v.21l0,.84v1.07c0,.27,0,.54,0,.81v.54a5.53,5.53,0,0,1-.57,3.15A3.51,3.51,0,0,1,28,28.32a5.63,5.63,0,0,1-2.13-.39V26.11Zm3.93-5.91h-.2a2.23,2.23,0,0,0-1.15.28,1.54,1.54,0,0,0-.72,1.45c0,1,.49,1.56,1.36,1.56a2.41,2.41,0,0,0,.75-.13v-.68c0-.23,0-.49,0-.76l0-.91V20.2Z"/><path class="cls-2" d="M35.9,18.57a3,3,0,0,1,3.19,3.26,3.09,3.09,0,0,1-3.27,3.37A3,3,0,0,1,32.62,22,3.1,3.1,0,0,1,35.9,18.57Zm0,5c.76,0,1.21-.62,1.21-1.72s-.44-1.72-1.19-1.72-1.24.63-1.24,1.72S35.09,23.6,35.86,23.6Z"/></svg>