<?xml version="1.0" encoding="utf-8"?>
<!-- Generator: Adobe Illustrator 22.0.1, SVG Export Plug-In . SVG Version: 6.00 Build 0)  -->
<svg version="1.1" id="Layer_1" xmlns="http://www.w3.org/2000/svg" xmlns:xlink="http://www.w3.org/1999/xlink" x="0px" y="0px"
	 viewBox="0 0 38 39" style="enable-background:new 0 0 38 39;" xml:space="preserve">
<style type="text/css">
	.st0{fill:#F9CABB;}
	.st1{opacity:0.96;}
	.st2{fill:url(#SVGID_1_);}
	.st3{fill:url(#SVGID_2_);}
	.st4{fill:url(#SVGID_3_);}
	.st5{fill:url(#SVGID_4_);}
	.st6{fill:url(#SVGID_5_);}
	.st7{fill:url(#SVGID_6_);}
	.st8{fill:url(#SVGID_7_);}
	.st9{fill:url(#SVGID_8_);}
	.st10{fill:#FFFFFF;}
	.st11{fill:url(#SVGID_9_);}
	.st12{fill:url(#SVGID_10_);}
	.st13{fill:url(#SVGID_11_);}
	.st14{fill:url(#SVGID_12_);}
	.st15{fill:#9E1209;}
	.st16{fill:url(#SVGID_13_);}
	.st17{fill:url(#SVGID_14_);}
	.st18{fill:url(#SVGID_15_);}
	.st19{fill:url(#SVGID_16_);}
	.st20{fill:none;}
</style>
<path class="st0" d="M38,10.4C37.7,4.7,33.1,0.2,27.4,0c-1,0-1.9,0.1-2.8,0.3L10.2,3.5C5.7,4.6,2.3,8.4,1.8,13l0,0L0.1,27
	C0,27.5,0,28.1,0,28.6C0.3,34.3,4.9,38.8,10.6,39c0.8,0,1.7-0.1,2.5-0.3l14.4-3.2l0,0c4.6-0.9,8.1-4.7,8.7-9.3l1.8-14.4
	C37.9,11.9,38,10.9,38,10.4z"/>
<title>Ruby</title>
<g class="st1">
	
		<linearGradient id="SVGID_1_" gradientUnits="userSpaceOnUse" x1="28.3915" y1="-1037.7992" x2="22.9215" y2="-1028.1492" gradientTransform="matrix(1 0 0 -1 0 -1004)">
		<stop  offset="0" style="stop-color:#FB7655"/>
		<stop  offset="0.41" style="stop-color:#E42B1E"/>
		<stop  offset="0.99" style="stop-color:#990000"/>
		<stop  offset="1" style="stop-color:#990000"/>
	</linearGradient>
	<polygon class="st2" points="25.7,22.7 11,31.5 30,30.2 31.5,10.9 	"/>
	
		<linearGradient id="SVGID_2_" gradientUnits="userSpaceOnUse" x1="31.0925" y1="-1029.7062" x2="24.0725" y2="-1024.9962" gradientTransform="matrix(1 0 0 -1 0 -1004)">
		<stop  offset="0" style="stop-color:#871101"/>
		<stop  offset="0.99" style="stop-color:#911209"/>
		<stop  offset="1" style="stop-color:#911209"/>
	</linearGradient>
	<polygon class="st3" points="30.1,30.1 28.4,18.8 24,24.7 	"/>
	
		<linearGradient id="SVGID_3_" gradientUnits="userSpaceOnUse" x1="25.4714" y1="-1038.0779" x2="18.4614" y2="-1033.3779" gradientTransform="matrix(1 0 0 -1 0 -1004)">
		<stop  offset="0" style="stop-color:#871101"/>
		<stop  offset="0.99" style="stop-color:#911209"/>
		<stop  offset="1" style="stop-color:#911209"/>
	</linearGradient>
	<polygon class="st4" points="30.1,30.1 18.1,29.2 11,31.4 	"/>
	
		<linearGradient id="SVGID_4_" gradientUnits="userSpaceOnUse" x1="10.7459" y1="-1026.2906" x2="11.8259" y2="-1033.3806" gradientTransform="matrix(1 0 0 -1 0 -1004)">
		<stop  offset="0" style="stop-color:#FFFFFF"/>
		<stop  offset="0.23" style="stop-color:#E57252"/>
		<stop  offset="0.46" style="stop-color:#DE3B20"/>
		<stop  offset="0.99" style="stop-color:#A60003"/>
		<stop  offset="1" style="stop-color:#A60003"/>
	</linearGradient>
	<polygon class="st5" points="11,31.4 14.1,21.6 7.4,23 	"/>
	
		<linearGradient id="SVGID_5_" gradientUnits="userSpaceOnUse" x1="18.2184" y1="-1019.6701" x2="18.6184" y2="-1026.9102" gradientTransform="matrix(1 0 0 -1 0 -1004)">
		<stop  offset="0" style="stop-color:#FFFFFF"/>
		<stop  offset="0.23" style="stop-color:#E4714E"/>
		<stop  offset="0.56" style="stop-color:#BE1A0D"/>
		<stop  offset="0.99" style="stop-color:#A80D00"/>
		<stop  offset="1" style="stop-color:#A80D00"/>
	</linearGradient>
	<polygon class="st6" points="24,24.7 21.2,13.9 13.3,21.3 	"/>
	
		<linearGradient id="SVGID_6_" gradientUnits="userSpaceOnUse" x1="24.8587" y1="-1012.9903" x2="26.0587" y2="-1018.1703" gradientTransform="matrix(1 0 0 -1 0 -1004)">
		<stop  offset="0" style="stop-color:#FFFFFF"/>
		<stop  offset="0.18" style="stop-color:#E46342"/>
		<stop  offset="0.4" style="stop-color:#C82410"/>
		<stop  offset="0.99" style="stop-color:#A80D00"/>
		<stop  offset="1" style="stop-color:#A80D00"/>
	</linearGradient>
	<polygon class="st7" points="30.9,14.1 23.4,7.9 21.3,14.7 	"/>
	
		<linearGradient id="SVGID_7_" gradientUnits="userSpaceOnUse" x1="21.2008" y1="-1011.1617" x2="26.3708" y2="-1008.5816" gradientTransform="matrix(1 0 0 -1 0 -1004)">
		<stop  offset="0" style="stop-color:#FFFFFF"/>
		<stop  offset="0.54" style="stop-color:#C81F11"/>
		<stop  offset="0.99" style="stop-color:#BF0905"/>
		<stop  offset="1" style="stop-color:#BF0905"/>
	</linearGradient>
	<polygon class="st8" points="27.4,5.8 23,8.2 20.2,5.7 	"/>
	
		<linearGradient id="SVGID_8_" gradientUnits="userSpaceOnUse" x1="6.2096" y1="-1024.48" x2="6.6396" y2="-1028.76" gradientTransform="matrix(1 0 0 -1 0 -1004)">
		<stop  offset="0" style="stop-color:#FFFFFF"/>
		<stop  offset="0.31" style="stop-color:#DE4024"/>
		<stop  offset="0.99" style="stop-color:#BF190B"/>
		<stop  offset="1" style="stop-color:#BF190B"/>
	</linearGradient>
	<polygon class="st9" points="5.7,26.3 7.5,22.9 6.1,18.9 	"/>
	<path class="st10" d="M6,18.8l1.5,4.3l6.5-1.5l7.4-6.9L23.5,8l-3.3-2.3l-5.6,2.1c-1.8,1.6-5.2,4.9-5.3,5S7,16.9,6,18.8z"/>
	
		<linearGradient id="SVGID_9_" gradientUnits="userSpaceOnUse" x1="3.2709" y1="-1029.8909" x2="23.3009" y2="-1009.311" gradientTransform="matrix(1 0 0 -1 0 -1004)">
		<stop  offset="0" style="stop-color:#BD0012"/>
		<stop  offset="7.000000e-02" style="stop-color:#FFFFFF"/>
		<stop  offset="0.17" style="stop-color:#FFFFFF"/>
		<stop  offset="0.27" style="stop-color:#C82F1C"/>
		<stop  offset="0.33" style="stop-color:#820C01"/>
		<stop  offset="0.46" style="stop-color:#A31601"/>
		<stop  offset="0.72" style="stop-color:#B31301"/>
		<stop  offset="0.99" style="stop-color:#E82609"/>
		<stop  offset="1" style="stop-color:#E82609"/>
	</linearGradient>
	<path class="st11" d="M11.2,11.1C15.1,7.3,20,5.1,21.9,7s-0.1,6.6-4,10.4s-8.7,6.2-10.6,4.2S7.4,15,11.2,11.1z"/>
	
		<linearGradient id="SVGID_10_" gradientUnits="userSpaceOnUse" x1="18.6083" y1="-1031.9867" x2="12.5883" y2="-1030.5067" gradientTransform="matrix(1 0 0 -1 0 -1004)">
		<stop  offset="0" style="stop-color:#8C0C01"/>
		<stop  offset="0.54" style="stop-color:#990C00"/>
		<stop  offset="0.99" style="stop-color:#A80D0E"/>
		<stop  offset="1" style="stop-color:#A80D0E"/>
	</linearGradient>
	<path class="st12" d="M11,31.4l3-9.9l9.9,3.2C20.3,28.1,16.4,30.9,11,31.4z"/>
	
		<linearGradient id="SVGID_11_" gradientUnits="userSpaceOnUse" x1="28.9574" y1="-1024.7417" x2="23.5974" y2="-1019.9317" gradientTransform="matrix(1 0 0 -1 0 -1004)">
		<stop  offset="0" style="stop-color:#7E110B"/>
		<stop  offset="0.99" style="stop-color:#9E0C00"/>
		<stop  offset="1" style="stop-color:#9E0C00"/>
	</linearGradient>
	<path class="st13" d="M21.4,14.6l2.5,10.1c3-3.1,5.6-6.5,7-10.7L21.4,14.6z"/>
	
		<linearGradient id="SVGID_12_" gradientUnits="userSpaceOnUse" x1="30.9157" y1="-1015.924" x2="28.2557" y2="-1013.064" gradientTransform="matrix(1 0 0 -1 0 -1004)">
		<stop  offset="0" style="stop-color:#79130D"/>
		<stop  offset="0.99" style="stop-color:#9E120B"/>
		<stop  offset="1" style="stop-color:#9E120B"/>
	</linearGradient>
	<path class="st14" d="M30.9,14.1c1-3.1,1.3-7.5-3.5-8.3l-3.9,2.2L30.9,14.1z"/>
	<path class="st15" d="M5.7,26.3c0.1,5.1,3.8,5.1,5.3,5.2l-3.6-8.4L5.7,26.3z"/>
	
		<radialGradient id="SVGID_13_" cx="26.3016" cy="-1016.98" r="6.61" gradientTransform="matrix(0.99 0 0 -1 -1.66 -995.75)" gradientUnits="userSpaceOnUse">
		<stop  offset="0" style="stop-color:#A80D00"/>
		<stop  offset="0.99" style="stop-color:#7E0E08"/>
		<stop  offset="1" style="stop-color:#7E0E08"/>
	</radialGradient>
	<path class="st16" d="M21.4,14.7l7,4.3c1.1-1.5,1.9-3.2,2.4-5L21.4,14.7z"/>
	
		<radialGradient id="SVGID_14_" cx="17.1416" cy="-1025.6899" r="8.79" gradientTransform="matrix(0.99 0 0 -1 -1.66 -995.75)" gradientUnits="userSpaceOnUse">
		<stop  offset="0" style="stop-color:#A30C00"/>
		<stop  offset="0.99" style="stop-color:#800E08"/>
		<stop  offset="1" style="stop-color:#800E08"/>
	</radialGradient>
	<path class="st17" d="M14,21.5l4,7.7c2.2-1.2,4.2-2.7,5.9-4.5L14,21.5z"/>
	
		<linearGradient id="SVGID_15_" gradientUnits="userSpaceOnUse" x1="9.1827" y1="-1035.4193" x2="7.0026" y2="-1028.0293" gradientTransform="matrix(1 0 0 -1 0 -1004)">
		<stop  offset="0" style="stop-color:#8B2114"/>
		<stop  offset="0.43" style="stop-color:#9E100A"/>
		<stop  offset="0.99" style="stop-color:#B3100C"/>
		<stop  offset="1" style="stop-color:#B3100C"/>
	</linearGradient>
	<path class="st18" d="M7.4,23l-0.6,6.7c1.1,1.5,2.5,1.6,4.1,1.5C9.9,28.5,7.6,22.9,7.4,23z"/>
	
		<linearGradient id="SVGID_16_" gradientUnits="userSpaceOnUse" x1="25.84" y1="-1010.9301" x2="30.72" y2="-1013.08" gradientTransform="matrix(1 0 0 -1 0 -1004)">
		<stop  offset="0" style="stop-color:#B31000"/>
		<stop  offset="0.44" style="stop-color:#910F08"/>
		<stop  offset="0.99" style="stop-color:#791C12"/>
		<stop  offset="1" style="stop-color:#791C12"/>
	</linearGradient>
	<path class="st19" d="M23.4,7.9l7.9,1.1c-0.4-1.8-1.7-2.9-3.9-3.3L23.4,7.9z"/>
	<rect x="2.6" y="2.5" class="st20" width="32.8" height="32.8"/>
</g>
</svg>
