<svg id="Layer_2" data-name="Layer 2" xmlns="http://www.w3.org/2000/svg" viewBox="0 0 49 32"><defs><style>.cls-1{fill:#fdd005;}.cls-2{fill:#231f20;}</style></defs><title>AltLinux</title><path id="path13" class="cls-1" d="M8.5,0V32h32V0Z"/><path id="path25" class="cls-2" d="M2.88,13.27,0,13A3,3,0,0,1,.5,11.81a2.5,2.5,0,0,1,.87-.75,3.68,3.68,0,0,1,1.13-.35,9.38,9.38,0,0,1,1.55-.12,12.2,12.2,0,0,1,2.14.15,2.72,2.72,0,0,1,1.35.62,2.09,2.09,0,0,1,.6.93,3.25,3.25,0,0,1,.22,1.15v3.42a4.5,4.5,0,0,0,.07.85,4.32,4.32,0,0,0,.3.79H6a4.27,4.27,0,0,1-.22-.45c0-.11-.06-.27-.1-.5a3.83,3.83,0,0,1-1.16.81,5,5,0,0,1-1.84.32A3.13,3.13,0,0,1,.52,18,2.05,2.05,0,0,1-.2,16.45,2.09,2.09,0,0,1,.32,15a3.58,3.58,0,0,1,1.92-.85c1.12-.22,1.84-.38,2.17-.47a9.22,9.22,0,0,0,1-.35,1,1,0,0,0-.22-.76,1.18,1.18,0,0,0-.8-.21,2.12,2.12,0,0,0-1.1.23,1.24,1.24,0,0,0-.46.68m2.58,1.56c-.41.14-.83.27-1.28.38A2.84,2.84,0,0,0,3,15.69a.72.72,0,0,0-.25.54A.71.71,0,0,0,3,16.8a1,1,0,0,0,.72.23,1.9,1.9,0,0,0,.93-.24,1.48,1.48,0,0,0,.6-.59,2,2,0,0,0,.18-.9Z"/><path id="path27" class="cls-2" d="M10.23,7.81h3V18.5h-3Z"/><path id="path29" class="cls-2" d="M18.69,7.81v3h1.63v2.18H18.69v2.74a1.35,1.35,0,0,0,.1.65.52.52,0,0,0,.51.25,3.55,3.55,0,0,0,.92-.19l.22,2.05a9.74,9.74,0,0,1-2.06.24,3.75,3.75,0,0,1-1.64-.28,1.69,1.69,0,0,1-.77-.87,5,5,0,0,1-.26-1.87V12.94H14.62V10.76h1.09V9.34Z"/><path id="path31" class="cls-2" d="M10.24,20.08h3v10.7h-3Z"/><path id="path33" class="cls-2" d="M15.23,20.08h3v2h-3v-2m0,3h3v7.74h-3Z"/><path id="path35" class="cls-2" d="M20.09,23h2.77v1.27a4,4,0,0,1,1.25-1.11,3.32,3.32,0,0,1,1.55-.33,2.5,2.5,0,0,1,1.92.73,3.2,3.2,0,0,1,.7,2.26v4.92h-3V26.53a1.55,1.55,0,0,0-.27-1,1,1,0,0,0-.76-.3,1.07,1.07,0,0,0-.87.41,2.38,2.38,0,0,0-.34,1.46v3.71h-3Z"/><path id="path37" class="cls-2" d="M38.22,30.78H35.44V29.53a4.13,4.13,0,0,1-1.25,1.1,3.28,3.28,0,0,1-1.54.33,2.51,2.51,0,0,1-1.92-.74A3.13,3.13,0,0,1,30,28V23h3V27.3a1.58,1.58,0,0,0,.27,1,1,1,0,0,0,.75.3,1.08,1.08,0,0,0,.88-.41,2.39,2.39,0,0,0,.33-1.46V23h3Z"/><path id="path39" class="cls-2" d="M39.37,23h3.52l1.22,2.16L45.54,23h3.27l-2.64,3.69L49,30.78H45.54l-1.43-2.49-1.68,2.49H39.22L42,26.73Z"/></svg>