<?xml version="1.0" encoding="utf-8"?>
<!-- Generator: Adobe Illustrator 22.0.1, SVG Export Plug-In . SVG Version: 6.00 Build 0)  -->
<svg version="1.1" id="Layer_1" xmlns="http://www.w3.org/2000/svg" xmlns:xlink="http://www.w3.org/1999/xlink" x="0px" y="0px"
	 viewBox="0 0 38.7 46.8" style="enable-background:new 0 0 38.7 46.8;" xml:space="preserve">
<style type="text/css">
	.st0{fill:#A80030;}
</style>
<title>Windows_Server copy</title>
<g id="Layer_2_1_">
	<path class="st0" d="M23.1,24.7c-0.8,0,0.1,0.4,1.1,0.5c0.3-0.2,0.5-0.4,0.8-0.6C24.4,24.8,23.8,24.8,23.1,24.7"/>
	<path class="st0" d="M27.3,23.7c0.5-0.6,0.8-1.3,0.9-2.1c-0.1,0.5-0.4,1-0.6,1.4c-1.5,0.9-0.1-0.5,0-1.1C26,24,27.3,23.1,27.3,23.7
		"/>
	<path class="st0" d="M28.8,19.7c0.1-1.4-0.3-1-0.4-0.4C28.6,19.3,28.7,20.3,28.8,19.7"/>
	<path class="st0" d="M20.2,0.6c0.4,0.1,0.9,0.1,0.8,0.2C21.5,0.7,21.6,0.6,20.2,0.6"/>
	<path class="st0" d="M21,0.8l-0.3,0.1L21,0.8L21,0.8"/>
	<path class="st0" d="M33.9,20.2c0,1-0.3,2-0.7,2.9l-0.7,0.3c-0.5,1.1,0.1,0.7-0.3,1.5c-1,1-2,1.8-3.2,2.5c-0.4,0,0.3-0.5,0.4-0.7
		c-1.1,0.8-0.9,1.2-2.7,1.7l0-0.1c-4.3,2-10.3-2-10.2-7.5c0,0.3-0.1,0.3-0.2,0.4c-0.2-2.9,1.3-5.6,3.9-6.8c2.4-1.2,5.3-0.8,7.3,0.9
		c-1.3-1.7-3.3-2.6-5.3-2.6c-2.1,0-4.1,1.2-5.1,3.1c-1.2,0.7-1.3,2.9-1.8,3.2c-0.7,5.1,1.3,7.2,4.7,9.8c0.5,0.4,0.1,0.4,0.2,0.7
		c-1.1-0.5-2.2-1.3-3-2.3c0.4,0.7,1,1.3,1.5,1.8c-1-0.4-2.5-2.5-2.9-2.6c1.8,3.2,7.4,5.7,10.3,4.5c-1.5,0.1-3.1-0.1-4.6-0.5
		c-0.6-0.3-1.5-1-1.3-1.1c3.8,1.6,8.2,1,11.5-1.6c0.9-0.7,1.8-1.8,2.1-1.9c-0.4,0.6,0.1,0.3-0.2,0.9c0.9-1.4-0.4-0.6,0.9-2.4
		l0.5,0.6c-0.2-1.2,1.5-2.6,1.3-4.4c0.4-0.6,0.4,0.6,0,1.9c0.5-1.4,0.2-1.7,0.3-2.9c0.2,0.4,0.3,0.8,0.5,1.2
		c-0.4-1.4,0.4-2.3,0.5-3.1c-0.2-0.1-0.5,0.6-0.6-1c0-0.7,0.2-0.4,0.3-0.5c-0.4-0.5-0.7-1.1-0.7-1.7c0.2-0.2,0.4,0.6,0.7,0.7
		c-0.2-0.7-0.3-1.4-0.4-2.1c-0.7-1.4-0.2,0.2-0.8-0.6c-0.7-2.1,0.6-0.5,0.7-1.5c0.9,1.5,1.5,3.1,1.9,4.8c-0.2-1.2-0.6-2.3-1-3.4
		c0.3,0.1-0.5-2.4,0.4-0.7c-1.2-3.7-3.8-6.7-7.1-8.6c0.4,0.3,0.8,0.8,0.7,0.8c-1.4-0.9-1.1-1-1.3-1.4c-1.2-0.5-1.3,0-2.1,0
		c-1.5-0.8-3.1-1.4-4.7-1.8l0.1,0.4c-1.5-0.5-1.7,0.2-3.4,0c-0.1-0.1,0.5-0.3,1-0.4c-1.4,0.2-1.4-0.3-2.8,0c0.3-0.2,0.7-0.4,1-0.6
		c-1.2,0.1-2.8,0.7-2.3,0.1c-1.9,0.9-5.3,2.1-7.2,3.9L9.4,3.9C8.5,5,5.6,7.1,5.3,8.4L5.1,8.5C4.7,9.3,4.3,10.1,4,10.9
		c-0.6,1-0.9,0.4-0.8,0.6c-0.9,1.9-1.7,3.9-2.3,6c0.4,0.5,0,3.2,0.1,5.4c-0.6,10.7,7.5,21,16.3,23.4c1.6,0.4,3.2,0.6,4.9,0.5
		c-1.9-0.5-2.2-0.3-4.1-0.9c-1.4-0.6-1.7-1.4-2.6-2.2l0.4,0.7c-2-0.6-1.1-0.8-2.7-1.3l0.4-0.5c-0.8-0.3-1.5-0.8-1.9-1.6h-0.7
		c-0.8-1-1.2-1.7-1.2-2.3L9.7,39c-0.2-0.4-2.9-3.7-1.6-3c-0.4-0.3-0.7-0.6-1-1.1l0.3-0.3c-0.6-0.7-1-1.5-1.2-2.3
		c0.2,0.3,0.5,0.6,0.9,0.7c-1.7-4.2-1.8-0.2-3.1-4.3h0.3c-0.2-0.3-0.4-0.7-0.5-1l0.1-1.2c-1.2-1.4-0.3-6-0.2-8.6
		c0.1-1,1-2.1,1.7-3.8L5.1,14c0.8-1.4,4.6-5.6,6.3-5.4c0.9-1.1-0.2,0-0.3-0.3c1.9-1.9,2.4-1.4,3.7-1.7c1.4-0.8-1.2,0.3-0.5-0.3
		c2.3-0.6,1.7-1.4,4.7-1.7c0.3,0.2-0.7,0.3-1,0.5c2-1,6.2-0.7,8.9,0.5c3.2,1.5,6.8,5.9,6.9,10h0.2c-0.1,1.6,0.2,3.5-0.3,5.3
		L33.9,20.2"/>
	<path class="st0" d="M14.6,25.8l-0.1,0.5c0.4,0.7,1,1.4,1.6,2C15.6,27.4,15.3,27,14.6,25.8"/>
	<path class="st0" d="M15.9,25.7c-0.2-0.3-0.5-0.6-0.6-1c0.2,0.6,0.5,1.2,0.9,1.7L15.9,25.7"/>
	<path class="st0" d="M37.2,21.1l-0.1,0.3c-0.2,1.5-0.7,3-1.3,4.3C36.5,24.3,37,22.7,37.2,21.1"/>
	<path class="st0" d="M20.3,0.2C20.9,0.1,21.6,0,22.2,0c-0.7,0.1-1.4,0.1-2.1,0.2L20.3,0.2"/>
	<path class="st0" d="M1.9,10c0.1,1.1-0.8,1.6,0.2,0.8C2.7,9.5,1.9,10.5,1.9,10"/>
	<path class="st0" d="M0.7,15.2c0.2-0.5,0.3-1.1,0.4-1.6C0.4,14.4,0.8,14.6,0.7,15.2"/>
</g>
</svg>
